<?xml version="1.0" encoding="utf-8"?>
<!-- Generator: Adobe Illustrator 22.0.1, SVG Export Plug-In . SVG Version: 6.00 Build 0)  -->
<!DOCTYPE svg PUBLIC "-//W3C//DTD SVG 1.1//EN" "http://www.w3.org/Graphics/SVG/1.1/DTD/svg11.dtd">
<svg version="1.1" id="Layer_1" xmlns="http://www.w3.org/2000/svg" xmlns:xlink="http://www.w3.org/1999/xlink" x="0px" y="0px"
	 viewBox="0 0 1133.9 618.2" style="enable-background:new 0 0 1133.9 618.2;" xml:space="preserve">
<style type="text/css">
	.st0{fill:#FFFFFF;}
</style>
<title>vitaelab_logo_svg</title>
<g>
	<path class="st0" d="M503.2,316c68.4,0,124-55.6,124-124s-55.6-124-124-124s-124,55.6-124,124S434.8,316,503.2,316z M387.2,192
		c0-17.6,4-34.3,11-49.3l22.7,19.2l20.6,14.7l18.7,22l16.8,11l15,9.2l11.2,20.2l-10.9,29.5l-5.6,22.1l-12.2,9.1l-10,1.5
		C419.5,285.4,387.2,242.4,387.2,192z M484.5,88.5V77.5c2.7-0.4,5.4-0.8,8.1-1l6.8,87.3V184l-9.4,9.2l-11.2-12.9l7.5-16.5l1.8-18.4
		l1.9-14.7v-12.8L484.5,88.5z M478.9,121.5l-7.5,44.1l-7.5,20.2l-5.6-9.2l-3.7-9.2l1.8-14.7l-1.8-20.2l3.9-5.7l0.4-10l-0.6-13.7
		l-6.6-15c6.9-3.4,14.2-6.2,21.8-8.2l-2.2,15.9L478.9,121.5z M449,95.8l1.9,14.7v12.9l-7.5,1.8l-3.7-9.2l-10.1-13.5
		c5.3-4.4,11-8.3,17.1-11.7L449,95.8z M487.5,306.9l30.7-18.3l-7.7,19.1c-2.4,0.2-4.9,0.2-7.3,0.2
		C497.9,308,492.6,307.6,487.5,306.9z M522.4,77.6c10.2,1.7,20,4.8,29.1,9L523.7,127l-5.6-25.7L522.4,77.6z M529.4,134.4l30.8-43.3
		c4.8,2.7,9.5,5.8,13.9,9.2l-23,28.4l-6.8,7.5l-9.3,9.2l-3.8,25.7l-16.8,33h-9.3l1.9-16.5L529.4,134.4z M557.4,174.8l-5.6,16.5
		l-20.6,12.8l5.6-11l7.5-18.3v-18.4l7.5-9.2l48.6-18.4c2.6,4,4.9,8.1,7,12.3L557.4,174.8z M609.2,145c1,2.3,2,4.7,2.9,7.1l-49.1,30
		L609.2,145z M533.1,290.5l7.1,11.4c-5.2,1.7-10.5,3.1-15.9,4.1L533.1,290.5z M569.3,287.3l-6.2,1.4l-11.2-5.5l-9.4-9.2l-5.6-16.5
		l1.9-18.4l-1.9-20.2L548,206l18.7-12.9l47-36.3c3.5,11.1,5.5,22.9,5.5,35.2C619.2,231.4,599.4,266.3,569.3,287.3z M594.9,121
		l-35.6,13.4l22.2-27.9C586.4,111,590.8,115.8,594.9,121z M507.3,76.1l1.1,22.6l0.8,9.1l6.1,12.6l-2.8,21.4l-5.6,25.7l-9.5-91.3
		c1.9-0.1,3.8-0.1,5.7-0.1C504.6,76,505.9,76.1,507.3,76.1z M423.1,108.2l7.2,9.6l7.5,16.6l7.4,16.5v20.2l-15-12.8l-29.8-20
		C406.3,127.1,414,116.9,423.1,108.2z"/>
	<path class="st0" d="M182.6,390.4c-2.4,7.2-5.3,15.6-8.8,25.5s-7.4,20.4-11.6,31.7s-8.8,23.1-13.3,35.4
		c-4.5,12.3-9.1,24.4-13.8,36.3s-9.2,23.3-13.9,34.3s-8.8,21-12.7,29.9c-7-16.6-13.8-33.2-20.6-50s-13.5-33.3-19.8-49.7
		c-6.4-16.4-12.5-32.4-18.3-48.2C44,419.8,38.8,404.7,34,390.3c-3,0.5-6,1-8.8,1.4c-5.4,0.7-10.9,0.7-16.3,0
		c-2.8-0.4-5.8-0.9-8.8-1.4c7.9,18.7,16.1,38.6,24.7,59.5c8.6,20.9,17,41.3,25.2,61.4s15.8,39.1,23,57.2l0.1,0.1
		c7.2,18.1,13.3,33.5,18.3,46.4c3.6-0.4,7.2-0.5,10.8-0.5c3.7,0,7.3,0.1,10.8,0.5c14.4-37.2,29.4-74.4,45-111.7
		c15.6-37.2,32-74.8,49-112.7C198.9,392.9,190.4,392.9,182.6,390.4z"/>
	<path class="st0" d="M248.3,490c0.3-10.8,1-20.8,2-30.2c-4.8,1-9.7,1.5-14.6,1.7c-4.9-0.1-9.8-0.7-14.6-1.7c1,9.3,1.7,19.4,2,30.2
		c0.3,10.8,0.5,21.1,0.5,30.8v33.9c0,9.8-0.1,20.1-0.5,30.8s-1,20.5-2,29.2c5-0.3,9.8-0.5,14.6-0.5s9.6,0.1,14.6,0.5
		c-1-8.7-1.7-18.4-2-29.2s-0.5-21.1-0.5-30.8v-33.9C247.8,511,248,500.7,248.3,490z"/>
	<path class="st0" d="M235.7,386.4c-4.4,0-8.6,1.7-11.6,4.9h0c-3.2,3.1-4.9,7.3-4.9,11.7c0.1,9.1,7.4,16.5,16.5,16.6
		c8.8-0.2,15.9-7.3,16.2-16.2C252.1,394.2,244.9,386.6,235.7,386.4z"/>
	<path class="st0" d="M326.3,416.1C326.3,416.1,326.3,416.2,326.3,416.1L326.3,416.1L326.3,416.1z"/>
	<path class="st0" d="M347.6,608.9c-6.5,0-11.5-1.4-15-4.3c-3.6-3-6.3-6.9-7.8-11.3c-1.8-5.1-2.9-10.4-3.1-15.8
		c-0.3-5.9-0.5-11.9-0.5-18c0-7.2,0.1-15.4,0.2-24.5c0.1-9.1,0.4-17.9,0.5-26.3c0.2-8.4,0.4-15.7,0.8-21.8s0.7-9.6,0.9-10.5h16
		c3.5,0,6.8,0,9.8,0.1c3,0.1,5.9,0.2,8.8,0.4l-0.4-3.3v-6.8l0.4-3.6c-7.6,0.5-14.6,0.7-21.2,0.8c-6.6,0.2-11,0.2-13.4,0.2
		c0.4-8,0.8-16,1.1-23.9c0.4-7.9,0.8-16,1.5-24.2h-1.6l-27.3,11.3c0.3,7,0.5,13.7,0.6,20.2c0.1,6.5,0.2,11.9,0.3,16.2
		c-4.6,0-11.7-0.3-21.6-1l0.5,3.3l0.1,3.3l-0.1,3.8l-0.5,3.8c2.2-0.2,4.3-0.3,6.2-0.4l5.6-0.1h10.7c0,12.2-0.1,23.2-0.4,33.1
		c-0.2,9.9-0.5,18.9-0.8,27.1c-0.3,8.2-0.7,15.7-0.9,22.5c-0.2,6.8-0.3,13.2-0.3,19.1c0,13.1,3.3,23,9.9,29.7
		c6.6,6.8,16.7,10.2,30.5,10.2c4.3,0,8.7-0.5,12.9-1.5c4.5-1,8.5-1.8,12.2-2.4v-7.9c-2.5,0.8-5.1,1.4-7.7,1.8
		C352.3,608.6,350,608.9,347.6,608.9z"/>
	<path class="st0" d="M497.5,605c-3.3,0-5.7-0.7-7.3-2.3c-1.7-1.6-3-3.5-3.8-5.7c-0.9-2.5-1.4-5.2-1.5-7.8c-0.1-2.9-0.2-5.7-0.2-8.3
		c0-13.7,0.2-26.8,0.8-39c0.5-12.3,0.7-24.7,0.7-37.1c0.1-6.8-1.3-13.5-4-19.7c-2.6-5.8-6.3-11-11-15.3c-4.9-4.4-10.6-7.7-16.8-9.8
		c-6.9-2.3-14.2-3.5-21.6-3.4c-8.6,0-17.2,1.3-25.5,3.9h0c-8.3,2.6-17.3,7.6-27.1,15v16.9h3.5c3.8-7,9.7-12.7,16.8-16.3
		c7.5-3.9,15.9-5.9,24.3-5.9c6.5,0,12.1,1.1,16.6,3.4c4.4,2.1,8.2,5.2,11.2,9c2.9,3.9,5,8.3,6.2,13.1c1.3,5.1,2,10.4,1.9,15.7
		c0.1,2.7-0.2,5.4-0.9,8c-0.7,2.1-2.6,3.8-5.8,5.4s-8,3-14.6,4.4c-6.7,1.4-15.9,3.1-27.6,5.1c-14.3,2.4-25.6,7.2-33.8,14.4
		S366,565.9,366,578.9c-0.1,5.8,1.1,11.6,3.7,16.8c2.4,4.8,5.7,9,9.8,12.5c4,3.5,8.7,6.1,13.8,7.5c5.2,1.5,10.5,2.3,15.9,2.3
		c11.1,0,20.4-1.9,28-5.6c7.6-3.7,15.3-9.4,23.1-17.3c0.4,5.3,2.8,10.3,6.6,14c3.8,3.6,9.2,5.5,16.3,5.5c4,0,8.1-0.3,12.1-1
		c3.1-0.5,6.1-1.4,9-2.7v-7.3l-3.4,1.1L497.5,605z M459.6,582.6c-4,6.4-9.4,11.9-15.8,16c-6.7,4.5-14.6,6.9-22.6,6.8
		c-7.2,0-13.7-2.6-19.5-7.8c-5.9-5.2-8.8-13-8.8-23.2c0-6.1,1.2-11.1,3.4-15.1c2.3-3.9,5.4-7.2,9.1-9.8c4-2.7,8.4-4.8,13-6.2
		c4.9-1.5,9.9-2.8,14.9-3.8c5-1,9.9-1.9,14.8-2.8l0,0.1c4.4-0.7,8.7-1.8,12.9-3.3L459.6,582.6z"/>
	<path class="st0" d="M643.4,476.3c-6-6.2-13.1-11.1-21.1-14.4c-8.4-3.6-18.4-5.4-29.9-5.4c-24.4,0-43,7.6-55.8,22.8h0
		c-12.7,15.2-19.1,36.2-19.1,63c-0.1,10.4,1.8,20.7,5.7,30.4c3.7,9.2,9.3,17.5,16.4,24.3c7.2,6.9,15.8,12.3,25.2,15.7
		c10.3,3.7,21.2,5.6,32.2,5.4c10.4,0,20.6-1.9,30.3-5.6c8.8-3.2,17-7.7,24.3-13.4l2-16l-1.7-1c-3,3.4-6.3,6.5-9.9,9.2
		c-3.8,2.8-7.9,5.3-12.3,7.4c-4.3,2-8.8,3.7-13.5,4.9c-4.4,1.1-8.9,1.7-13.4,1.8c-9.2,0-17.2-1.6-24.2-4.7
		c-6.7-2.9-12.7-7.3-17.7-12.8c-4.9-5.6-8.7-12.1-11-19.1c-2.5-7.7-3.8-15.7-3.8-23.8v-4.3c-0.1-1.6,0.1-3.3,0.5-4.9l21.4-0.7
		c7.1-0.2,14.2-0.3,21.4-0.3c11.8,0,23.4,0.1,35,0.3l35,0.7c0.1-2.2,0.2-4.3,0.3-6.3s0.2-4.2,0.2-6.4c0.1-8.8-1.3-17.5-4.1-25.8
		C653.4,489.5,649,482.3,643.4,476.3z M611.6,524.4c-7.4,0.2-14.7,0.3-21.9,0.3c-7,0-14.2-0.1-21.5-0.3l-21.1-0.7
		c0.5-6.4,1.7-12.8,3.4-18.9c1.8-6.5,4.6-12.7,8.2-18.4c3.6-5.6,8.3-10.3,13.8-14v0c5.6-3.7,12.4-5.6,20.5-5.6
		c8.5,0,15.4,1.8,20.6,5.6c5.2,3.7,9.4,8.5,12.3,14.2c3,5.8,5,12,5.9,18.4c0.9,6.2,1.4,12.5,1.4,18.8L611.6,524.4z"/>
	<path class="st0" d="M763.5,600.1c-14.1,0.4-29,0.5-44.4,0.5c-0.2-15.9-0.4-33.9-0.7-54.1c-0.2-20.2-0.3-44-0.3-71.4
		c0-14.4,0.3-28.5,0.9-42.4s1.2-28,2-42.4c-2.8,0.5-5.6,1-8.2,1.4c-2.6,0.4-5.3,0.6-7.9,0.6c-2.6,0-5.3-0.2-7.8-0.6
		c-2.6-0.4-5.4-0.9-8.2-1.4c0.7,14.4,1.2,28.5,1.7,42.3h0c0.5,13.8,0.7,27.9,0.7,42.3v56.2c0,14.4-0.2,28.5-0.7,42.5
		s-1,27.6-1.7,41.1c10.4-0.3,20.4-0.5,30.1-0.5h60.2c10,0,20,0.1,30.1,0.5c-1-2.8-1.5-5.8-1.7-8.8c0.1-3.3,0.7-6.6,1.7-9.8
		C794,598.3,778.8,599.6,763.5,600.1z"/>
	<path class="st0" d="M957.7,605c-3.3,0-5.8-0.7-7.4-2.3c-1.7-1.6-2.9-3.5-3.7-5.7c-0.9-2.5-1.4-5.2-1.5-7.8
		c-0.1-2.9-0.2-5.7-0.2-8.3c0-13.7,0.3-26.8,0.7-39c0.5-12.3,0.8-24.7,0.8-37.1c0.1-6.8-1.3-13.5-4-19.7c-2.6-5.8-6.3-11-11-15.3
		c-4.9-4.4-10.6-7.7-16.8-9.8c-7-2.3-14.2-3.5-21.6-3.4c-8.6,0-17.2,1.3-25.5,3.9h0c-8.3,2.6-17.3,7.6-27.1,15v16.9h3.6
		c3.8-7,9.7-12.7,16.8-16.3c7.5-3.9,15.9-6,24.3-5.9c6.5,0,12.1,1.1,16.7,3.4c4.3,2.1,8.1,5.2,11.1,9c3,3.9,5.1,8.3,6.3,13.1
		c1.3,5.1,1.9,10.4,1.9,15.7c0.1,2.7-0.3,5.4-1,8c-0.6,2.1-2.5,3.8-5.7,5.4s-8.1,3-14.7,4.4s-15.8,3.1-27.6,5.1
		c-14.3,2.4-25.5,7.2-33.7,14.4s-12.2,17.3-12.2,30.4c-0.1,5.8,1.1,11.6,3.7,16.8c2.4,4.8,5.8,9,9.8,12.5c4,3.5,8.8,6,13.9,7.5
		c5.2,1.5,10.5,2.3,15.9,2.3c11.1,0,20.4-1.9,28-5.6s15.3-9.5,23.1-17.3c0.4,5.3,2.8,10.3,6.7,14c3.7,3.6,9.1,5.4,16.2,5.5
		c4,0,8.1-0.3,12.1-1c3.1-0.5,6.1-1.4,9-2.7v-7.3l-3.4,1.1L957.7,605z M919.8,582.6c-4,6.4-9.4,11.9-15.8,16
		c-6.7,4.5-14.6,6.9-22.7,6.8c-7.2,0-13.7-2.6-19.5-7.8s-8.8-13-8.8-23.2c0-6.1,1.2-11.1,3.4-15.1c2.3-3.9,5.4-7.2,9.1-9.8
		c4-2.7,8.4-4.8,13.1-6.2c4.9-1.5,9.8-2.8,14.8-3.8c5-1,9.9-1.9,14.8-2.8l0,0.1c4.4-0.7,8.7-1.8,12.9-3.3L919.8,582.6z"/>
	<path class="st0" d="M1129.8,504c-2.5-8.8-6.6-17.1-12.2-24.3c-5.6-7.1-12.6-12.8-20.6-16.8c-8.3-4.2-18.1-6.3-29.4-6.3
		c-11.7,0-22.1,2.7-31.1,8.1s-17.2,14-24.5,25.7h-0.7c0.2-10,0.4-21.1,0.7-33.5s0.5-24.2,0.7-35.9s0.5-22.2,0.9-31.7
		s1-16.4,1.7-20.8c-3,0.5-5.9,1-8.5,1.4c-2.5,0.4-5,0.6-7.5,0.6c-5-0.2-9.9-0.8-14.7-1.9c0.4,5.4,0.8,12,1.1,19.8s0.6,15.9,0.8,24.3
		s0.3,17.1,0.4,25.8s0.2,16.8,0.2,24.2v59.2c0,7.4,0,15.5-0.2,24.2s-0.3,17.2-0.4,25.6s-0.4,16.3-0.8,23.7s-0.6,13.7-1.1,18.9h5.9
		c6.8-6.3,14.1-12.6,21.9-18.9c4.3,6.3,10.7,11.7,19.1,16.2c8.7,4.5,18.4,6.9,28.3,6.7c10.1,0.1,20-2,29.2-6.1
		c9-4,17.1-9.9,23.6-17.3c6.9-7.9,12.2-17,15.7-26.9v0C1135.2,547.3,1135.7,525,1129.8,504z M1101.6,563.8
		c-2.1,8.5-5.4,16.7-10,24.2c-3.7,6.2-8.8,11.5-14.9,15.5c-5.6,3.6-12.1,5.5-18.7,5.4c-31.9,0-47.8-22-47.8-65.8
		c0-13.5,1.4-25,4.1-34.2s6.4-16.8,10.9-22.6c4.2-5.5,9.8-9.8,16.2-12.4c6.2-2.5,12.8-3.8,19.5-3.8c5.7,0,11.4,1.4,16.5,4.1
		c5.5,2.9,10.4,6.9,14.1,11.9c4.4,5.9,7.7,12.5,9.8,19.5l0.1,0c2.6,8.6,3.9,17.6,3.8,26.7C1105.3,542.9,1104.1,553.5,1101.6,563.8z"
		/>
	<path class="st0" d="M503.2,384c105.9,0,192-86.1,192-192S609.1,0,503.2,0c-105.9,0-192,86.1-192,192S397.3,384,503.2,384z
		 M503.2,8c101.4,0,184,82.5,184,184s-82.5,184-184,184c-101.4,0-184-82.5-184-184S401.8,8,503.2,8z"/>
	<path class="st0" d="M503.2,367.3c96.7,0,175.3-78.6,175.3-175.3c0-96.6-78.6-175.2-175.3-175.2c-96.6,0-175.3,78.6-175.3,175.2
		C327.9,288.7,406.6,367.3,503.2,367.3z M503.2,19.5c95.2,0,172.6,77.4,172.6,172.5c0,95.2-77.4,172.6-172.6,172.6
		c-95.2,0-172.6-77.4-172.6-172.6C330.6,96.9,408,19.5,503.2,19.5z"/>
	<path class="st0" d="M439.5,323.6c-0.3-0.5-0.8-0.9-1.3-1.2c-0.5-0.3-1.1-0.4-1.7-0.3s-1.2,0.2-1.7,0.6c-0.5,0.3-0.9,0.8-1.2,1.3
		c-0.3,0.6-0.4,1.1-0.3,1.7c0,0.6,0.2,1.2,0.6,1.7s0.8,0.9,1.3,1.2c0.6,0.3,1.1,0.4,1.7,0.3c0.6,0,1.2-0.2,1.7-0.6
		c0.5-0.3,0.9-0.8,1.2-1.3c0.3-0.6,0.4-1.1,0.3-1.7C440,324.7,439.8,324.2,439.5,323.6z"/>
	<path class="st0" d="M427.4,311.9c-0.3-0.2-0.5-0.4-0.8-0.6c-0.8-0.5-1.5-0.8-2.3-0.9c-0.8-0.1-1.5-0.1-2.1,0.2
		c-0.6,0.3-1.2,0.7-1.6,1.4c-0.4,0.6-0.6,1.2-0.5,1.7c0,0.6,0.2,1.2,0.5,1.8c0.3,0.6,0.7,1.4,1.3,2.3c0.3,0.5,0.5,0.9,0.6,1.2
		c0.1,0.3,0.1,0.5-0.1,0.7c-0.1,0.2-0.3,0.3-0.6,0.4c-0.3,0-0.6-0.1-1-0.3c-0.6-0.4-1.1-0.9-1.4-1.4c-0.4-0.6-0.7-1.2-0.9-1.7
		l-1.6,2.4c0.1,0.2,0.2,0.4,0.4,0.8c0.2,0.3,0.6,0.7,1,1.2c0.4,0.4,0.9,0.8,1.5,1.2c0.8,0.5,1.6,0.8,2.3,0.9c0.7,0.1,1.4,0,2-0.3
		c0.6-0.3,1-0.7,1.4-1.2c0.4-0.6,0.6-1.2,0.6-1.8c0-0.6-0.1-1.2-0.4-1.7c-0.2-0.6-0.6-1.1-1-1.8c-0.4-0.5-0.6-1-0.8-1.4
		c-0.1-0.4-0.1-0.7,0.1-1c0.1-0.2,0.3-0.3,0.6-0.3c0.3-0.1,0.7,0.1,1.2,0.4c0.6,0.4,1.1,0.8,1.4,1.4s0.7,1.1,1,1.8l1.7-2.5
		c-0.4-0.6-0.8-1.1-1.3-1.6C428,312.5,427.7,312.1,427.4,311.9z"/>
	<path class="st0" d="M418.8,309c0-1.1-0.3-2.1-0.8-3c-0.6-0.9-1.3-1.7-2.1-2.3c-0.6-0.5-1.2-0.9-1.9-1.2s-1.5-0.5-2.2-0.6
		c-0.8-0.1-1.6,0.1-2.3,0.4c-0.8,0.3-1.5,0.9-2.1,1.8l-4.2,5.4l2.9,2.3l3.6-4.6c0.5-0.6,1-1.1,1.5-1.4c0.5-0.3,1-0.4,1.5-0.3
		c0.5,0.1,0.9,0.3,1.4,0.6c0.4,0.4,0.8,0.8,0.9,1.2c0.2,0.5,0.2,1,0.1,1.5c-0.1,0.6-0.5,1.2-1,1.8l-3.6,4.6l2.9,2.3l4.2-5.4
		C418.4,311.1,418.8,310.1,418.8,309z"/>
	<polygon class="st0" points="406.7,296 401.9,301 402.1,291.5 399.7,289.2 391.1,298.1 393.8,300.7 398.6,295.8 398.4,305.2 
		400.8,307.5 409.4,298.6 	"/>
	<path class="st0" d="M394.4,282.9c-1-1.2-2.1-1.9-3.2-2.2c-0.8-0.2-1.6-0.2-2.5,0c-0.9,0.1-1.8,0.6-2.8,1.4c-0.6,0.5-1,1-1.4,1.5
		c-0.4,0.5-0.6,1.1-0.8,1.6c-0.2,0.5-0.2,1.1-0.2,1.6c0,0.3,0,0.7,0.1,1c0.1,0.4,0.2,0.7,0.3,1.2c0.2,0.4,0.4,0.9,0.7,1.4
		c0.3,0.5,0.7,1,1.2,1.6l3.3,3.9l9.5-7.9L394.4,282.9z M388.7,291.5l-1-1.2c-0.4-0.4-0.6-0.9-0.8-1.4c-0.2-0.5-0.2-1.1,0-1.8
		c0.2-0.7,0.7-1.3,1.4-2c1.1-0.9,2.1-1.3,2.9-1s1.5,0.7,2.2,1.5l1,1.2L388.7,291.5z"/>
	<polygon class="st0" points="387.5,273.8 383.5,276.5 380.3,271.9 384.3,269.2 382.2,266.1 372,273 374.1,276.1 377.8,273.6 
		381,278.2 377.2,280.8 379.3,283.9 389.6,276.9 	"/>
	<polygon class="st0" points="376.9,256.3 374.7,257.5 377.4,262.4 375.1,263.7 372.6,259.1 370.4,260.3 372.9,264.9 370.9,266 
		368.3,261.2 366.1,262.4 370.5,270.4 381.4,264.5 	"/>
	<path class="st0" d="M373.3,248.4c-0.6-1.5-1.5-2.5-2.4-3c-0.7-0.4-1.5-0.6-2.4-0.7c-0.9-0.1-1.9,0.1-3.1,0.6
		c-0.7,0.3-1.2,0.6-1.7,1.1s-0.9,0.9-1.2,1.3c-0.3,0.5-0.5,1-0.7,1.5c-0.1,0.3-0.2,0.6-0.2,1c0,0.4,0,0.8,0,1.2c0,0.5,0.1,1,0.3,1.5
		c0.1,0.5,0.4,1.2,0.7,1.9l2.1,4.7l11.3-4.9L373.3,248.4z M365.4,255.1l-0.6-1.5c-0.2-0.5-0.4-1.1-0.4-1.6c0-0.6,0.1-1.1,0.5-1.7
		c0.4-0.6,1-1.1,1.9-1.5c1.3-0.6,2.3-0.6,3.1-0.2s1.3,1.2,1.7,2l0.6,1.5L365.4,255.1z"/>
	<path class="st0" d="M363.3,232.7c0.2-0.6,0.1-1.2,0-1.8s-0.5-1.1-0.9-1.5c-0.4-0.4-0.9-0.7-1.5-0.9c-0.6-0.2-1.2-0.1-1.8,0
		c-0.6,0.2-1.1,0.5-1.5,0.9c-0.4,0.4-0.7,0.9-0.9,1.5c-0.1,0.6-0.1,1.2,0,1.8c0.2,0.6,0.5,1.1,0.9,1.5c0.4,0.4,0.9,0.7,1.5,0.9
		s1.2,0.1,1.8,0c0.6-0.2,1.1-0.5,1.5-0.9C362.9,233.8,363.2,233.3,363.3,232.7z"/>
	<polygon class="st0" points="362.6,207.6 359.7,208 360.5,213.6 351.2,214.9 351.7,218.6 363.9,216.9 	"/>
	
		<rect x="350" y="202.7" transform="matrix(0.9963 -8.569572e-02 8.569572e-02 0.9963 -16.2196 31.2727)" class="st0" width="12.4" height="3.7"/>
	<polygon class="st0" points="362,193.5 349.3,188.2 349.4,192.1 356.6,194.9 349.5,197.8 349.6,201.7 362,196 	"/>
	<path class="st0" d="M354,174.7c0.5,0.4,1,0.6,1.6,0.7c0.6,0.1,1.2,0,1.8-0.2c0.6-0.2,1-0.6,1.4-1.1c0.4-0.5,0.6-1,0.7-1.6
		c0.1-0.6,0-1.2-0.2-1.7c-0.2-0.6-0.6-1-1.1-1.4c-0.5-0.4-1-0.6-1.6-0.7c-0.6-0.1-1.2,0-1.8,0.2c-0.6,0.2-1,0.6-1.4,1.1
		c-0.4,0.5-0.6,1-0.7,1.6c-0.1,0.6,0,1.2,0.2,1.8C353.1,173.8,353.5,174.3,354,174.7z"/>
	<path class="st0" d="M354.7,158.7c0.4,0.4,1,0.8,1.6,0.9c0.7,0.2,1.3,0.2,1.9,0c0.6-0.2,1.1-0.5,1.5-0.9c0.5-0.4,0.9-0.9,1.3-1.5
		c0.4-0.5,0.7-0.9,1-1.2c0.3-0.3,0.6-0.3,0.9-0.3c0.2,0,0.3,0.2,0.5,0.4c0.2,0.2,0.2,0.7,0,1.3c-0.2,0.7-0.5,1.3-0.8,1.8
		c-0.4,0.5-0.9,1-1.4,1.6l2.9,0.7c0.4-0.6,0.8-1.1,1.1-1.7c0.3-0.6,0.5-1,0.6-1.4c0.1-0.4,0.2-0.7,0.3-0.9c0.2-0.9,0.3-1.7,0.2-2.5
		c-0.1-0.8-0.4-1.4-0.9-1.9c-0.5-0.5-1.1-0.9-1.8-1.1c-0.7-0.2-1.3-0.2-1.8,0c-0.5,0.2-1,0.5-1.5,1c-0.5,0.5-1.1,1.1-1.7,1.9
		c-0.4,0.5-0.7,0.8-0.9,0.9c-0.2,0.2-0.5,0.2-0.7,0.1c-0.3-0.1-0.4-0.2-0.6-0.5s-0.1-0.6,0-1c0.2-0.7,0.5-1.3,0.9-1.8
		c0.4-0.5,0.9-1,1.4-1.4l-2.8-0.7c-0.1,0.1-0.3,0.3-0.6,0.7s-0.5,0.8-0.8,1.3c-0.3,0.5-0.5,1.1-0.7,1.8c-0.2,0.9-0.3,1.8-0.1,2.5
		C354,157.7,354.3,158.3,354.7,158.7z"/>
	<path class="st0" d="M366,149.4c1-0.3,1.9-0.9,2.5-1.7c0.7-0.8,1.2-1.7,1.5-2.7c0.2-0.7,0.4-1.4,0.5-2.2c0.1-0.8,0-1.5-0.2-2.3
		c-0.2-0.8-0.6-1.4-1.1-2.1c-0.6-0.6-1.4-1.1-2.4-1.5l-6.4-2.3l-1.2,3.5l5.5,1.9c0.8,0.3,1.4,0.6,1.8,1c0.4,0.4,0.7,0.8,0.8,1.3
		c0.1,0.5,0,1-0.1,1.5c-0.2,0.5-0.5,1-0.8,1.3c-0.4,0.3-0.8,0.5-1.4,0.5s-1.3-0.1-2-0.3l-5.5-1.9l-1.2,3.5l6.4,2.3
		C363.8,149.7,365,149.8,366,149.4z"/>
	<polygon class="st0" points="374.4,133.8 368.2,130.8 377.1,128 378.6,125 367.4,119.7 365.8,123.1 372,126 363.1,128.8 
		361.6,131.8 372.8,137.1 	"/>
	<path class="st0" d="M382.9,117.9c0.8-1.4,1.2-2.6,1-3.7c-0.1-0.8-0.3-1.6-0.7-2.4c-0.4-0.8-1.2-1.5-2.2-2.2
		c-0.6-0.4-1.2-0.6-1.9-0.8c-0.6-0.2-1.2-0.2-1.8-0.2c-0.6,0-1.1,0.1-1.6,0.3c-0.3,0.1-0.6,0.2-0.9,0.4s-0.7,0.4-1,0.7
		c-0.4,0.3-0.7,0.7-1.1,1.1c-0.4,0.4-0.7,1-1.1,1.6l-2.7,4.4l10.6,6.4L382.9,117.9z M372.9,115.3l0.8-1.4c0.3-0.5,0.7-0.9,1.1-1.3
		s1-0.6,1.7-0.6c0.7,0,1.4,0.2,2.3,0.7c1.2,0.8,1.9,1.6,1.9,2.4c0,0.9-0.2,1.7-0.7,2.5l-0.8,1.4L372.9,115.3z"/>
	<polygon class="st0" points="389.2,108.4 385.4,105.5 388.8,101 392.6,104 394.9,101 385,93.5 382.8,96.5 386.4,99.2 383,103.7 
		379.4,101 377.1,103.9 387,111.4 	"/>
	<polygon class="st0" points="402.5,92.8 400.6,91.1 396.8,95.2 394.9,93.4 398.4,89.6 396.6,87.9 393.1,91.8 391.4,90.2 
		395.1,86.2 393.2,84.5 387,91.3 396.2,99.7 	"/>
	<path class="st0" d="M408.8,86.9c1.2-1.1,1.9-2.2,2.1-3.3c0.1-0.8,0.1-1.6,0-2.5s-0.7-1.8-1.5-2.7c-0.5-0.5-1-1-1.6-1.3
		c-0.6-0.3-1.1-0.6-1.7-0.7s-1.1-0.2-1.6-0.2c-0.3,0-0.7,0.1-1,0.1c-0.3,0.1-0.7,0.2-1.2,0.4c-0.4,0.2-0.9,0.4-1.3,0.7
		c-0.5,0.3-1,0.7-1.5,1.2l-3.8,3.4l8.3,9.1L408.8,86.9z M401.1,80.5c0.4-0.4,0.9-0.7,1.4-0.9c0.5-0.2,1.1-0.3,1.8-0.1s1.3,0.6,2,1.4
		c1,1.1,1.3,2,1.1,2.8c-0.2,0.8-0.7,1.6-1.4,2.2l-1.2,1.1l-4.9-5.4L401.1,80.5z"/>
	<path class="st0" d="M417.3,70.9c0.4,0.5,0.8,0.9,1.4,1.1c0.5,0.3,1.1,0.4,1.7,0.3c0.6-0.1,1.2-0.2,1.7-0.6
		c0.5-0.3,0.9-0.8,1.1-1.3c0.3-0.6,0.4-1.1,0.3-1.7c0-0.6-0.2-1.2-0.6-1.7c-0.4-0.5-0.8-0.9-1.4-1.2s-1.1-0.4-1.7-0.3
		c-0.6,0.1-1.2,0.3-1.7,0.6c-0.5,0.3-0.9,0.8-1.1,1.3c-0.3,0.5-0.4,1.1-0.3,1.7S416.9,70.4,417.3,70.9z"/>
	<polygon class="st0" points="444,63.6 442.6,60.9 437.6,63.5 433.4,55.1 430,56.8 435.6,67.8 	"/>
	<polygon class="st0" points="448.9,61.4 444,50.1 440.6,51.5 445.5,62.9 	"/>
	<polygon class="st0" points="457,58.6 458,45 454.4,46.3 454.1,53.9 449,48.2 445.3,49.4 454.7,59.4 	"/>
	<path class="st0" d="M470.5,48.9c0.4,0.4,0.9,0.8,1.5,1c0.6,0.2,1.2,0.2,1.8,0.1c0.6-0.1,1.1-0.4,1.6-0.8c0.5-0.4,0.8-0.9,1-1.5
		c0.2-0.6,0.2-1.2,0.1-1.8c-0.1-0.6-0.4-1.1-0.8-1.6c-0.4-0.5-0.9-0.8-1.5-1c-0.6-0.2-1.2-0.2-1.8-0.1c-0.6,0.1-1.1,0.4-1.6,0.8
		c-0.5,0.4-0.8,0.9-1,1.5s-0.2,1.2-0.1,1.8S470.1,48.5,470.5,48.9z"/>
	<path class="st0" d="M487.3,44.3c0.4,0.5,0.8,0.9,1.3,1.2s1.1,0.6,1.8,0.8c0.6,0.2,1.1,0.4,1.4,0.6c0.3,0.2,0.5,0.5,0.5,0.8
		c0,0.2-0.1,0.4-0.2,0.6c-0.2,0.2-0.6,0.4-1.2,0.4c-0.7,0.1-1.3,0-2-0.2c-0.6-0.2-1.3-0.5-1.9-0.8l0.2,3c0.7,0.2,1.3,0.4,2,0.5
		c0.6,0.1,1.1,0.2,1.5,0.2c0.4,0,0.7,0,0.9,0c0.9-0.1,1.7-0.3,2.4-0.6c0.7-0.4,1.2-0.8,1.5-1.4c0.3-0.6,0.5-1.3,0.4-2.1
		c-0.1-0.7-0.3-1.3-0.6-1.7c-0.4-0.4-0.8-0.8-1.4-1.1s-1.4-0.7-2.4-1c-0.5-0.2-0.9-0.4-1.2-0.6c-0.2-0.2-0.3-0.4-0.4-0.6
		c0-0.3,0.1-0.5,0.3-0.7c0.2-0.2,0.5-0.3,1-0.3c0.7-0.1,1.4,0,2,0.3c0.6,0.2,1.2,0.5,1.8,0.8l-0.2-2.9c-0.1-0.1-0.4-0.2-0.8-0.3
		c-0.4-0.1-0.9-0.2-1.5-0.3c-0.6-0.1-1.2-0.1-1.9,0c-1,0.1-1.8,0.3-2.4,0.7c-0.6,0.4-1.1,0.8-1.4,1.4c-0.3,0.6-0.4,1.2-0.3,1.8
		C486.7,43.2,486.9,43.8,487.3,44.3z"/>
	<path class="st0" d="M501.9,50.3c1,0.4,2,0.6,3.1,0.6c0.7,0,1.5-0.1,2.3-0.3c0.8-0.2,1.5-0.5,2.1-0.9c0.7-0.4,1.2-1,1.6-1.8
		c0.4-0.7,0.6-1.6,0.6-2.7l0.1-6.8l-3.7,0l-0.1,5.9c0,0.8-0.1,1.5-0.4,2s-0.6,0.9-1,1.2c-0.4,0.2-0.9,0.4-1.5,0.4
		c-0.6,0-1.1-0.1-1.5-0.4c-0.4-0.2-0.7-0.6-1-1.2c-0.2-0.5-0.3-1.2-0.3-2l0.1-5.9l-3.7,0l-0.1,6.8c0,1.4,0.3,2.5,1,3.4
		S500.9,49.9,501.9,50.3z"/>
	<polygon class="st0" points="517.7,44.5 523.3,52.1 526.6,52.5 528,40.2 524.3,39.8 523.5,46.6 518,39 514.7,38.6 513.3,50.9 
		516.9,51.4 	"/>
	<path class="st0" d="M538.6,54.1c0.7-0.3,1.4-0.8,2-1.5c0.6-0.6,1.1-1.6,1.3-2.8c0.2-0.7,0.2-1.4,0.2-2s-0.2-1.2-0.4-1.8
		c-0.2-0.5-0.5-1-0.8-1.4c-0.2-0.3-0.4-0.5-0.7-0.8c-0.3-0.2-0.6-0.5-1-0.7c-0.4-0.2-0.9-0.5-1.4-0.7c-0.5-0.2-1.2-0.4-1.9-0.6
		l-5-1.1l-2.7,12.1l6.5,1.5C536.3,54.6,537.6,54.6,538.6,54.1z M532.4,51.1L534,44l1.5,0.3c0.5,0.1,1.1,0.3,1.5,0.6
		c0.5,0.3,0.9,0.8,1.1,1.4c0.3,0.6,0.3,1.4,0,2.4c-0.3,1.4-0.9,2.3-1.7,2.6c-0.8,0.3-1.7,0.3-2.6,0.1L532.4,51.1z"/>
	<polygon class="st0" points="547.3,52.7 552.6,54.5 551,59.1 554.6,60.3 558.5,48.5 555,47.3 553.5,51.6 548.2,49.8 549.7,45.5 
		546.1,44.3 542.2,56.1 545.7,57.3 	"/>
	<polygon class="st0" points="564.7,64.8 565.7,62.5 560.6,60.3 561.7,57.9 566.5,60 567.5,57.7 562.7,55.6 563.6,53.5 568.6,55.7 
		569.6,53.5 561.2,49.7 556.2,61 	"/>
	<path class="st0" d="M572.3,69c1.4,0.8,2.6,1.1,3.7,0.9c0.8-0.1,1.6-0.4,2.3-0.8c0.8-0.4,1.5-1.2,2.1-2.3c0.4-0.6,0.6-1.3,0.7-1.9
		c0.1-0.6,0.2-1.2,0.1-1.8c0-0.6-0.2-1.1-0.4-1.6c-0.1-0.3-0.3-0.6-0.4-0.9c-0.2-0.3-0.4-0.6-0.7-1c-0.3-0.3-0.7-0.7-1.1-1
		c-0.4-0.3-1-0.7-1.7-1.1l-4.5-2.5l-6.1,10.8L572.3,69z M574.6,58.9l1.4,0.8c0.5,0.3,0.9,0.6,1.3,1.1c0.4,0.4,0.6,1,0.7,1.7
		c0.1,0.7-0.2,1.5-0.7,2.3c-0.7,1.3-1.5,1.9-2.3,2c-0.8,0.1-1.7-0.2-2.5-0.6l-1.4-0.8L574.6,58.9z"/>
	<path class="st0" d="M591.5,77.2c0.5,0.4,1,0.6,1.6,0.7c0.6,0.1,1.2,0,1.8-0.2c0.6-0.2,1-0.6,1.4-1.1c0.4-0.5,0.6-1,0.7-1.6
		c0.1-0.6,0-1.2-0.2-1.7c-0.2-0.6-0.6-1-1.1-1.4c-0.5-0.4-1-0.6-1.6-0.7c-0.6-0.1-1.2,0-1.7,0.2c-0.6,0.2-1,0.6-1.4,1.1
		c-0.4,0.5-0.6,1-0.7,1.6c-0.1,0.6,0,1.2,0.3,1.8C590.7,76.3,591,76.8,591.5,77.2z"/>
	<polygon class="st0" points="607.1,92 603,88.1 609.5,81.3 606.8,78.7 598.2,87.6 605,94.1 	"/>
	
		<rect x="605.7" y="90.7" transform="matrix(0.7363 -0.6766 0.6766 0.7363 98.7039 438.4048)" class="st0" width="12.4" height="3.7"/>
	<polygon class="st0" points="614,104.9 627.3,101.4 624.8,98.4 617.4,100.6 621.2,93.9 618.8,90.9 612.5,103 	"/>
	<path class="st0" d="M629.8,120.7c0.5,0.3,1.1,0.5,1.7,0.4c0.6,0,1.2-0.2,1.7-0.5s0.9-0.7,1.2-1.3c0.3-0.5,0.4-1.1,0.4-1.7
		c0-0.6-0.2-1.2-0.5-1.7c-0.3-0.5-0.7-0.9-1.3-1.2c-0.5-0.3-1.1-0.4-1.7-0.4c-0.6,0-1.2,0.2-1.7,0.5c-0.5,0.3-0.9,0.7-1.2,1.3
		c-0.3,0.5-0.4,1.1-0.4,1.7c0,0.6,0.2,1.2,0.5,1.7C628.9,120,629.3,120.4,629.8,120.7z"/>
	<path class="st0" d="M632.5,133.3c0,0.7,0,1.4,0.1,2c0.1,0.6,0.2,1.1,0.3,1.5s0.2,0.7,0.3,0.9c0.4,0.8,0.8,1.5,1.4,2.1
		c0.5,0.5,1.2,0.9,1.8,1c0.7,0.1,1.4,0.1,2.1-0.2c0.6-0.3,1.1-0.6,1.4-1.1c0.3-0.5,0.5-1.1,0.6-1.7c0.1-0.7,0.2-1.5,0.2-2.6
		c0-0.6,0.1-1,0.2-1.3c0.1-0.3,0.2-0.4,0.5-0.5c0.2-0.1,0.5-0.1,0.7,0c0.2,0.1,0.5,0.4,0.6,0.8c0.3,0.7,0.4,1.3,0.4,2
		c0,0.7-0.1,1.3-0.2,1.9l2.7-1.1c0-0.2,0.1-0.5,0.1-0.9c0-0.4,0-0.9-0.1-1.5c-0.1-0.6-0.3-1.2-0.6-1.8c-0.4-0.9-0.8-1.6-1.4-2.1
		c-0.6-0.5-1.1-0.8-1.8-0.9c-0.6-0.1-1.2,0-1.9,0.2c-0.6,0.3-1.1,0.6-1.5,1.1c-0.3,0.5-0.6,1-0.7,1.6c-0.1,0.6-0.2,1.3-0.2,2
		c0,0.7,0,1.2-0.1,1.6c-0.1,0.4-0.3,0.6-0.6,0.8c-0.2,0.1-0.4,0.1-0.7,0s-0.5-0.4-0.8-1c-0.3-0.6-0.4-1.3-0.4-1.9
		c0-0.7,0.1-1.3,0.2-2.1L632.5,133.3z"/>
	<path class="st0" d="M638.3,144c-0.6,0.9-0.9,1.9-1,2.9c0,1,0.1,2.1,0.4,3.1c0.2,0.7,0.5,1.4,0.9,2.1c0.4,0.7,0.9,1.2,1.5,1.7
		c0.6,0.5,1.3,0.8,2.2,1c0.8,0.2,1.7,0.1,2.8-0.2l6.5-2l-1.1-3.5l-5.6,1.8c-0.8,0.2-1.4,0.3-2,0.3c-0.6-0.1-1-0.3-1.4-0.6
		c-0.4-0.3-0.6-0.8-0.8-1.3c-0.2-0.5-0.2-1-0.1-1.5c0.1-0.5,0.4-0.9,0.8-1.3c0.4-0.4,1-0.7,1.8-0.9l5.6-1.8l-1.1-3.5l-6.5,2
		C639.9,142.5,638.9,143.1,638.3,144z"/>
	<polygon class="st0" points="641,161.5 647.8,160.2 642.3,167.8 643,171.1 655.1,168.6 654.3,165 647.6,166.3 653.1,158.7 
		652.4,155.4 640.3,157.9 	"/>
	<path class="st0" d="M643.8,179.3c0.2,1.6,0.6,2.8,1.4,3.6c0.5,0.6,1.2,1,2,1.4c0.8,0.4,1.9,0.5,3.1,0.4c0.7-0.1,1.4-0.2,2-0.5
		c0.6-0.2,1.1-0.6,1.6-0.9c0.4-0.4,0.8-0.8,1.1-1.2c0.2-0.3,0.4-0.6,0.5-0.9c0.2-0.3,0.3-0.7,0.4-1.2c0.1-0.5,0.2-1,0.2-1.5
		c0-0.6,0-1.2-0.1-2l-0.5-5.1l-12.4,1.2L643.8,179.3z M653.4,175.4l0.2,1.6c0.1,0.6,0,1.1-0.1,1.7c-0.1,0.6-0.5,1-1,1.5
		c-0.5,0.4-1.3,0.7-2.3,0.8c-1.4,0.1-2.4-0.1-3-0.8c-0.5-0.7-0.9-1.5-0.9-2.4l-0.2-1.6L653.4,175.4z"/>
	<polygon class="st0" points="644.4,190.7 649.3,190.7 649.3,196.3 644.4,196.3 644.4,200.1 656.8,200.1 656.8,196.3 652.3,196.3 
		652.3,190.7 656.8,190.7 656.8,187 644.4,187 	"/>
	<polygon class="st0" points="643.4,211.1 645.9,211.3 646.4,205.8 649,206 648.5,211.2 651,211.4 651.5,206.3 653.8,206.5 
		653.3,211.9 655.8,212.1 656.6,203 644.2,201.9 	"/>
	<path class="st0" d="M641.8,219.7c-0.3,1.6-0.2,2.8,0.3,3.8c0.4,0.7,0.9,1.3,1.5,1.9c0.7,0.6,1.6,1,2.9,1.2c0.7,0.1,1.4,0.2,2,0.1
		c0.6-0.1,1.2-0.2,1.7-0.4c0.5-0.2,1-0.5,1.4-0.9c0.2-0.2,0.5-0.4,0.7-0.7c0.2-0.3,0.5-0.6,0.7-1c0.2-0.4,0.4-0.9,0.6-1.4
		c0.2-0.5,0.3-1.2,0.5-1.9l0.9-5.1l-12.2-2.3L641.8,219.7z M644.6,218.8l0.3-1.6l7.2,1.3l-0.3,1.6c-0.1,0.5-0.3,1.1-0.6,1.6
		s-0.7,0.9-1.4,1.2c-0.6,0.3-1.4,0.3-2.4,0.1c-1.4-0.3-2.3-0.8-2.6-1.6C644.5,220.7,644.4,219.8,644.6,218.8z"/>
	<path class="st0" d="M645.6,240.4c-0.4-0.5-0.9-0.8-1.5-1c-0.6-0.2-1.2-0.2-1.8-0.1s-1.1,0.4-1.6,0.8c-0.5,0.4-0.8,0.9-1,1.5
		c-0.2,0.6-0.2,1.2-0.1,1.8c0.1,0.6,0.4,1.1,0.8,1.6c0.4,0.5,0.9,0.8,1.5,1c0.6,0.2,1.2,0.2,1.8,0.1s1.1-0.4,1.6-0.8
		c0.5-0.4,0.8-0.9,1-1.5c0.2-0.6,0.2-1.2,0.1-1.8C646.2,241.3,646,240.8,645.6,240.4z"/>
	<polygon class="st0" points="626.9,261.1 629.5,262.4 632.1,257.4 640.5,261.6 642.1,258.3 631.1,252.7 	"/>
	<rect x="628.5" y="261" transform="matrix(0.5026 -0.8645 0.8645 0.5026 82.551 677.876)" class="st0" width="3.7" height="12.3"/>
	<polygon class="st0" points="619.3,272.9 626.6,284.5 628.8,281.3 624.5,274.9 632,276.6 634.1,273.3 620.7,270.9 	"/>
	<path class="st0" d="M614.6,290.9c-0.5-0.4-1-0.7-1.6-0.8c-0.6-0.1-1.2-0.1-1.8,0.1s-1.1,0.5-1.5,1c-0.4,0.4-0.7,1-0.8,1.6
		s-0.1,1.2,0.1,1.8c0.2,0.6,0.5,1.1,1,1.5c0.5,0.4,1,0.7,1.6,0.8c0.6,0.1,1.2,0.1,1.8-0.1c0.6-0.2,1.1-0.5,1.5-1
		c0.4-0.5,0.7-1,0.8-1.6c0.1-0.6,0.1-1.2-0.1-1.8C615.4,291.8,615,291.3,614.6,290.9z"/>
	<path class="st0" d="M605.3,303.1c-0.5-0.5-1-0.9-1.5-1c-0.6-0.2-1.2-0.2-1.8-0.1c-0.6,0.1-1.3,0.2-2,0.5c-0.6,0.2-1.1,0.4-1.5,0.4
		c-0.4,0-0.7-0.1-0.9-0.3c-0.1-0.1-0.2-0.3-0.2-0.6s0.2-0.6,0.7-1.1c0.5-0.5,1.1-0.8,1.7-1c0.6-0.2,1.3-0.4,2-0.5l-2-2.3
		c-0.7,0.2-1.3,0.5-1.9,0.8s-1,0.6-1.3,0.8c-0.3,0.2-0.5,0.4-0.7,0.6c-0.7,0.6-1.2,1.3-1.5,1.9c-0.3,0.7-0.5,1.4-0.4,2.1
		s0.4,1.3,0.9,1.9c0.5,0.5,1,0.9,1.5,1c0.6,0.1,1.2,0.2,1.8,0s1.5-0.3,2.5-0.6c0.6-0.2,1-0.2,1.3-0.2c0.3,0,0.5,0.1,0.7,0.3
		c0.2,0.2,0.2,0.4,0.2,0.7s-0.2,0.6-0.6,0.9c-0.5,0.5-1.1,0.8-1.8,1s-1.3,0.3-1.9,0.4l1.9,2.2c0.2,0,0.5-0.1,0.8-0.2
		c0.4-0.1,0.9-0.3,1.4-0.6c0.5-0.3,1-0.7,1.6-1.1c0.7-0.6,1.2-1.3,1.5-2c0.3-0.7,0.4-1.3,0.3-2C606,304.2,605.7,303.6,605.3,303.1z"
		/>
	<path class="st0" d="M591.5,306c-1-0.3-2.1-0.3-3.1,0c-1,0.3-1.9,0.8-2.8,1.4c-0.6,0.4-1.2,1-1.7,1.6c-0.5,0.6-0.9,1.3-1.2,2
		c-0.3,0.7-0.3,1.5-0.2,2.4c0.1,0.8,0.5,1.7,1.1,2.5l4,5.5l3-2.2l-3.5-4.8c-0.5-0.7-0.8-1.3-0.9-1.8c-0.1-0.6-0.1-1.1,0.1-1.5
		c0.2-0.4,0.5-0.8,1-1.2c0.5-0.3,0.9-0.5,1.4-0.6c0.5,0,1,0.1,1.5,0.4c0.5,0.3,1,0.8,1.5,1.4l3.5,4.7l3-2.2l-4-5.5
		C593.5,307,592.5,306.3,591.5,306z"/>
	<polygon class="st0" points="575.7,314.2 579.2,320.2 570.2,317.4 567.4,319 573.5,329.8 576.7,327.9 573.3,322 582.2,324.7 
		585.1,323.1 578.9,312.3 	"/>
	<path class="st0" d="M559.7,322.4c-1.5,0.6-2.4,1.5-3,2.5c-0.4,0.7-0.6,1.5-0.7,2.4c-0.1,0.9,0.1,1.9,0.6,3.1
		c0.3,0.7,0.7,1.2,1.1,1.7c0.4,0.5,0.9,0.9,1.4,1.2c0.5,0.3,1,0.5,1.5,0.7c0.3,0.1,0.6,0.2,1,0.2s0.8,0,1.2,0c0.5,0,1-0.1,1.5-0.3
		s1.2-0.4,1.9-0.7l4.7-2.1l-5-11.3L559.7,322.4z M564.9,330.9c-0.5,0.2-1.1,0.4-1.6,0.4c-0.6,0-1.1-0.1-1.7-0.5
		c-0.6-0.4-1.1-1-1.5-1.9c-0.6-1.3-0.6-2.3-0.2-3.1c0.5-0.7,1.1-1.3,2-1.7l1.5-0.6l3,6.7L564.9,330.9z"/>
	<polygon class="st0" points="549.1,326.5 550.6,331.1 545.2,332.9 543.8,328.3 540.2,329.4 544,341.2 547.6,340 546.2,335.7 
		551.5,334 552.9,338.3 556.5,337.1 552.6,325.4 	"/>
	<polygon class="st0" points="529.4,331.8 529.9,334.3 535.3,333.1 535.9,335.6 530.9,336.8 531.4,339.2 536.5,338.1 537,340.3 
		531.7,341.5 532.2,343.9 541.1,341.9 538.4,329.8 	"/>
	<path class="st0" d="M520.7,333c-1.6,0.2-2.8,0.7-3.5,1.5c-0.6,0.6-1,1.2-1.4,2.1c-0.4,0.8-0.5,1.9-0.3,3.1c0.1,0.7,0.3,1.4,0.5,2
		c0.3,0.6,0.6,1.1,1,1.5c0.4,0.4,0.8,0.8,1.3,1.1c0.3,0.2,0.6,0.3,0.9,0.5c0.3,0.1,0.7,0.3,1.2,0.3s1,0.1,1.5,0.1c0.6,0,1.2,0,2-0.1
		l5.1-0.7l-1.6-12.2L520.7,333z M523.4,342.6c-0.6,0.1-1.1,0.1-1.7-0.1c-0.6-0.1-1.1-0.4-1.5-0.9c-0.5-0.5-0.7-1.3-0.9-2.3
		c-0.2-1.4,0-2.4,0.7-3c0.6-0.6,1.5-0.9,2.4-1l1.6-0.2l1,7.2L523.4,342.6z"/>
	<path class="st0" d="M501.1,338.4c-0.5-0.3-1.1-0.5-1.7-0.5c-0.6,0-1.2,0.1-1.7,0.4c-0.5,0.3-1,0.7-1.3,1.2
		c-0.3,0.5-0.5,1.1-0.5,1.7c0,0.6,0.1,1.2,0.4,1.7c0.3,0.5,0.7,1,1.2,1.3c0.5,0.3,1.1,0.5,1.7,0.5c0.6,0,1.2-0.1,1.7-0.4
		c0.5-0.3,1-0.7,1.3-1.2c0.3-0.5,0.5-1.1,0.5-1.7c0-0.6-0.1-1.2-0.4-1.7C502.1,339.1,501.6,338.7,501.1,338.4z"/>
	<polygon class="st0" points="476.3,334.7 481.9,335.6 480.5,344.9 484.2,345.4 486,333.2 476.7,331.8 	"/>
	
		<rect x="465.8" y="335.2" transform="matrix(0.2095 -0.9778 0.9778 0.2095 43.546 727.9801)" class="st0" width="12.4" height="3.7"/>
	<polygon class="st0" points="463.2,328.2 454.4,338.8 458.1,339.8 462.9,333.8 463.7,341.4 467.4,342.5 465.6,328.9 	"/>
</g>
</svg>
