<?xml version="1.0" encoding="utf-8"?>
<!-- Generator: Adobe Illustrator 22.1.0, SVG Export Plug-In . SVG Version: 6.00 Build 0)  -->
<!DOCTYPE svg PUBLIC "-//W3C//DTD SVG 1.1//EN" "http://www.w3.org/Graphics/SVG/1.1/DTD/svg11.dtd">
<svg version="1.1" id="Layer_1" xmlns="http://www.w3.org/2000/svg" xmlns:xlink="http://www.w3.org/1999/xlink" x="0px" y="0px"
	 viewBox="0 0 70 70" style="enable-background:new 0 0 70 70;" xml:space="preserve">
<style type="text/css">
	.st0{fill:#E2E999;}
	.st1{fill:#FFFFFF;}
</style>
<g>
	<circle class="st0" cx="35" cy="35" r="34.5"/>
	<g>
		<path class="st1" d="M40.1,40.1c-0.8,0-1.6-0.3-2.4-0.7c-0.9-0.4-1.8-0.8-2.7-0.8s-1.8,0.4-2.7,0.8c-1.2,0.5-2.5,1.1-3.6,0.3
			c-1.3-0.9-1.8-3.2-1.8-8.2c0-7,3.3-14.7,8.1-14.7s8.1,7.8,8.1,14.7c0,5-0.5,7.3-1.8,8.2C40.9,40,40.5,40.1,40.1,40.1z M35,36.9
			c1.3,0,2.4,0.5,3.4,0.9c0.8,0.3,1.6,0.7,1.9,0.5c0.4-0.3,1-1.5,1-6.7c0-6.5-3.2-13-6.4-13s-6.4,6.4-6.4,13c0,5.2,0.6,6.4,1,6.7
			c0.3,0.2,1.1-0.1,1.9-0.5C32.6,37.4,33.7,36.9,35,36.9z"/>
		<g>
			<path class="st1" d="M42.2,53.1c-3.5,0-6.4-2.9-6.4-6.4v-8.1c0-0.5,0.4-0.9,0.9-0.9s0.9,0.4,0.9,0.9v8.1c0,2.6,2.1,4.6,4.6,4.6
				c0.5,0,0.9,0.4,0.9,0.9C43.1,52.7,42.7,53.1,42.2,53.1z"/>
			<path class="st1" d="M40.1,47.6c-0.5,0-0.9-0.4-0.9-0.9v-7.3c0-0.5,0.4-0.9,0.9-0.9s0.9,0.4,0.9,0.9v7.3
				C41,47.2,40.6,47.6,40.1,47.6z"/>
		</g>
		<g>
			<path class="st1" d="M27.8,53.1c-0.5,0-0.9-0.4-0.9-0.9s0.4-0.9,0.9-0.9c2.6,0,4.6-2.1,4.6-4.6v-8.1c0-0.5,0.4-0.9,0.9-0.9
				s0.9,0.4,0.9,0.9v8.1C34.2,50.3,31.3,53.1,27.8,53.1z"/>
			<path class="st1" d="M29.9,47.6c-0.5,0-0.9-0.4-0.9-0.9v-7.3c0-0.5,0.4-0.9,0.9-0.9s0.9,0.4,0.9,0.9v7.3
				C30.8,47.2,30.4,47.6,29.9,47.6z"/>
		</g>
	</g>
</g>
</svg>
