<?xml version="1.0" encoding="utf-8"?>
<!-- Generator: Adobe Illustrator 22.0.1, SVG Export Plug-In . SVG Version: 6.00 Build 0)  -->
<!DOCTYPE svg PUBLIC "-//W3C//DTD SVG 1.1//EN" "http://www.w3.org/Graphics/SVG/1.1/DTD/svg11.dtd">
<svg version="1.1" id="Layer_1" xmlns="http://www.w3.org/2000/svg" xmlns:xlink="http://www.w3.org/1999/xlink" x="0px" y="0px"
	 viewBox="0 0 1133.9 1080.8" style="enable-background:new 0 0 1133.9 1080.8;" xml:space="preserve">
<style type="text/css">
	.st0{fill:#FFFFFF;}
</style>
<title>Friends_Of_The_Sea_</title>
<g>
	<path class="st0" d="M552.7,771.4c-64.6-10.8-115.2-7.5-152.4-1.7V807c0,0,64.6-9.1,114.3-4.1s107.7,17.4,160.7,4.1v-33.1
		C675.3,773.9,617.3,782.1,552.7,771.4z"/>
	<path class="st0" d="M655.5,590.8L655.5,590.8c-55.5-4.1-189.7-19.9-261-23.2s-153.2,13.2-153.2,13.2v58.8c0,0,87-12.4,138.4-12.4
		c51.4,0,174.8,12.4,262.6,19.1s198.8-4.1,198.8-4.1v-63C841,579.2,711,594.9,655.5,590.8z"/>
	<polygon class="st0" points="553.6,292.5 553.5,292.5 553.6,292.5 	"/>
	<path class="st0" d="M624,688.5L624,688.5c-52.2-7.5-160.7-24-207.9-24c-47.2,0-92-0.8-135.9,11.6v55.5c0,0,105.2-9.9,162.4-6.6
		c57.2,3.3,182.3,25.7,237.8,23.2s106.9-14.1,106.9-14.1v-59.7C787.2,674.4,676.2,696,624,688.5z"/>
	<polygon class="st0" points="694.4,546 553.6,292.5 553.6,546 	"/>
	<path class="st0" d="M540.4,0C241.9,0,0,242,0,540.4s241.9,540.4,540.4,540.4s540.4-242,540.4-540.4S838.9,0,540.4,0z M788.5,162.5
		L788.5,162.5c0,0,17.6-17.7,21.9-27c4.3-9.3,0.5-16.8-3.2-20s-6.1-8.8-4.5-11.8s6.7-5.1,12.3-1.9s31.5,19.5,37.1,25.4
		s6.2,9.3,2.9,13.6s-10.7-0.5-14.7-1.9c-4-1.3-9.6-3.5-13.3,1.6s-37.1,49.7-37.1,49.7L788.5,162.5L788.5,162.5L788.5,162.5z
		 M694.5,44.7c9.9,1.6,54,21.6,74,31.5c0,0,6.9,33.4,9.6,64.1h0c2.7,30.7,2.1,64.1,2.1,64.1l-31,40.3L723.3,226
		c0,0,2.1-47.2-5.3-88.1c-7.5-40.8-15.7-68.3-21.4-73.4s-14.4-6.4-14.2-12.6C682.6,47.9,684.5,43.1,694.5,44.7z M915.9,721.2
		c-4.7-4.2-8-9.4-6.1-12.8c2.7-4.1,8.2-5.4,12.5-3c5.3,2.8,23.3,11.1,34.6,16.6s8.9,9.4,6.9,13.9s-10.5,1.7-19.4,2.2
		s-12.8,8.3-12.8,8.3l-12.8-7.5C921.2,733.2,920.6,725.4,915.9,721.2z M920.3,692.7c-5.8,1.9-14.1-2.5-23,1.4s-17.5,10.5-20.8,18.8
		l-12.5-5.5l19.1-40.2c0,0,24.9,8.9,32.4,12.5l0,0C923.1,683.3,926.1,690.8,920.3,692.7z M540.4,864.7
		c-179.1,0-324.3-145.2-324.3-324.3c0-171.9,133.8-312.6,302.9-323.6L334.8,535.2h205.5V216.1c0,0,0.1,0,0.1,0
		c179.1,0,324.3,145.2,324.3,324.3C864.7,719.5,719.5,864.7,540.4,864.7z M807,789.2c-1.7-2.8-2.8-5,0-8.6s6.9-2.2,12.8,2.5
		s25.5,21.9,27.2,24.9c1.7,3.3,0.8,7.4-2.2,9.7c-3,2.2-9.4-0.3-15.8-3.6c-13.4-6.5-29.3-4.8-41,4.4l-7.5-11.9l0,0
		c8.3-4.8,17-9,26-12.5C807.7,792.8,807.9,790.8,807,789.2z M663.4,901.7c-8-4.2-24.7-1.4-24.7-1.4l-3.9-12.8
		c13.9-4.2,27.6-9.1,41-14.7c0,0,15.2,30.8,16.9,36.3s-3.3,9.7-9.2,7.8S671.4,905.8,663.4,901.7L663.4,901.7z M368.8,872.6l7.2-10
		c3,1.9,25.8,11.6,25.8,11.6c-1.4,7.8-11.4,33.8-17.7,43.2s-13.9,0.6-14.7-4.7v0c-0.8-5.3,4.4-17.2,6.1-23.5
		C377.1,882.9,368.8,872.6,368.8,872.6z M318.7,826.6l-8.9,11.6c0,0-8.6-2.8-15.8,1.9s-14.1,15.2-20.8,14.7
		c-6.7-0.6-13.3-7.8-5.5-16.9l0.1,0c7.7-9.1,26-29.4,26-29.4S312.3,821.9,318.7,826.6z M642.2,151.8c-1.6,7.7-10.1,37.4-10.1,37.4
		c-13.4-3.5-45.7-10.7-45.7-10.7l1.1-13.3c21.9,0.8,28.3-5.9,34.7-13.1s9.6-16,14.4-13.9h0C641.4,140.3,643.8,144.1,642.2,151.8z
		 M682.5,190c3.5,3.2,5.9,7.5,3.2,10.9c-2.7,3.5-5.6,2.7-14.7-1.1c-9.1-3.7-18.2-5.9-23-8c-4.8-2.1-6.1-4-4.3-8.5
		c1.9-4.5,7-3.2,11-3.7c4-0.5,9.1-4.3,12.3-13.3c3.2-9.1,27.2-77.7,27.2-77.7v0l7.7,22.7c0,0-22.4,60.1-24.8,65.7
		C674.7,182.5,679,186.8,682.5,190z M606.7,25.5c29.1,5.6,63,13.9,63,13.9s-4.8,18.2-7.2,28.8s-5.3,16.5-12.5,15
		c-7.2-1.6-5.6-13.6-13.6-27.2c-8-13.6-31.5-15.5-31.5-15.5L606.7,25.5z M595.5,93.3c5.3-0.8,13.3-2.1,17.3-6.1s6.7-13.6,13.1-13.1
		s7.2,8,6.4,12.5c-0.8,4.6-4.3,16-5.6,28.6c-1.3,12.5-5.3,19-11.5,18.2s-6.9-9.1-7.7-16.5c-0.8-7.5-12.5-9.6-12.5-9.6L595.5,93.3z
		 M505.5,27.9c0.6-4.2,4-6.9,17.9-6.7s70.2,4,70.2,4L577,176.9c0,0-24.3-3.7-36.6-2.9s-23.2,3.7-25.4-2.7c-2.1-6.4,3.5-9,6.7-10.1
		c3.2-1.1,5.6-5.6,5.3-17.1s-2.7-92.4-3.2-98c-0.5-5.6-1.1-9.1-5.9-10.7l0,0C513.2,33.8,504.7,33.8,505.5,27.9z M395.2,40.5
		c8-3.5,63-13.6,77.2-14.9c14.2-1.3,15.5,4.5,15,8c-0.5,3.5-4.3,4.5-7.5,4.8c-3.2,0.3-6.1,0.5-5.9,5.6c0.3,5.1,11.8,99.9,15.8,121.2
		c3.1-0.3,6.2-0.4,9.3-0.3c2.4,0.3,3.2,4.5,3.2,7.7c0,3.2,1.1,5.1-10.4,6.7c-11.5,1.6-20,2.1-31.2,4.5c-11.2,2.4-19.8,4.8-25.1,5.6
		c-5.3,0.8-8-3.2-6.4-7.7c1.6-4.5,8.5-9.1,8.5-9.1s-15-58.5-19.8-78c-4.8-19.5-12.6-40.6-17.4-39.8l0,0c-4.8,0.8-11.2,1.6-12.5-2.9
		C386.7,47.6,387.2,44,395.2,40.5z M313,74.7c11-3.4,48.3-14.9,60.3,16.6s-22.4,52.6-22.4,52.6c9.1-3.5,18.8-5.1,28.6-4.8
		c15.2,0.8,20.5,26.2,22.7,32.8c2.1,6.7,4.5,6.1,6.1,3.5c1.6-2.7,2.4-6.7,6.9-6.9c4.5-0.3,7.5,3.2,5.1,13.9s-6.7,17.9-24.8,26.7
		c-18.2,8.8-34.2-3.8-40.6-13.6c-6.4-9.8-13.1-24.6-18.1-28.8c-5.1-4.3-13.6,0.8-13.6,0.8l-7.5-12c0,0,5.5-5.4,9.3-8.3
		c3.7-2.9-6.9-21.4-13.1-31.2c-6.1-9.9-10.1-15.2-13.6-16.3c-3.5-1-12.8,5.3-12.8,5.3l-6.4-11.8C279.1,93.1,302.1,78.1,313,74.7z
		 M205.4,144.9c5.6-5.6,49.1-37.4,63.8-45.4c0,0,66.5,106.5,69.4,110.8c2.9,4.3,6.1,4.8,11.2,3.2s9.1,0.3,10.7,2.9
		c1.6,2.7-1.6,8.8-7.7,11.8c-6.1,2.9-18.4,12-25.9,17.9c-7.5,5.8-16.5,14.1-19.5,16s-9.3,2.1-12.3-1.9s1.1-8.5,3.5-11.5
		c0,0,0.3-2.4-2.4-5.9c-2.7-3.4-72.1-87.6-74.5-89.4c-2.4-1.9-5.6-1.6-8.8,1.3v0c-3.2,2.9-8.3,4.5-10.7,0.5
		C199.8,151.3,201.6,148.6,205.4,144.9z M210.2,257L210.2,257C210.2,257,210.2,257,210.2,257l-11-9.6c0,0,8-9.4,3.5-15.8
		c-4.5-6.4-11.5-10.7-6.9-17.4c4.5-6.7,11.2-4.8,17.9,1.6c6.6,6.4,28,27,31.2,30.7c3.2,3.7,1.9,7.8-1.6,10.1
		c-3.5,2.4-11-0.5-14.4-2.7c-3.5-2.1-11.2-1.9-14.4,0.3C213.1,255.3,211.7,256.2,210.2,257L210.2,257z M192.3,157.7
		c0,0,19.5,19.2,28,28.6c8.5,9.3-5.1,12.8-11.2,12c-6.1-0.8-16.3-4-28.8-0.8c-12.6,3.2-21.1,17.4-21.1,17.4l-10.4-9.6
		C162.7,187.1,192.3,157.7,192.3,157.7z M95.7,278.9c5.8-10.7,29.6-47.3,45.3-64.1c0,0,102.2,83.8,103.3,84.9s4,1.9,6.4-1.1
		c2.4-2.9,5.1-6.1,8.8-5.1s8.5,5.1,5.6,8.8c-2.9,3.7-36.8,53.4-39.2,56.6c-2.4,3.2-7.2,2.4-9.9,0c-2.7-2.4-0.5-6.9-0.5-9.3
		c0-2.4,0.5-4-4.5-7.2s-93.7-56.9-95.8-58.7s-4-0.5-6.7,1.6s-8.5,7-10.7,6.4h0C95.7,291.2,89.8,289.6,95.7,278.9z M64.8,540
		c24.6-12.2,62.1-11.3,85.6,7.2s30.2,46,30.2,46l-13.6,2.8c-2.5-6.1-5-9.1-11.4-9.4c-6.4-0.3-90.1,13.3-103.4,16.6l0,0
		c-13.3,3.3-12.2,17.2-12.2,17.2L28,620.1C29.1,576.9,40.2,552.2,64.8,540z M30.8,634.5l10.5-5c0,0,5.3,13.6,16.6,11.6
		c11.4-1.9,100-21.6,103.9-24.9c3.8-3.3,5.8-8.3,5.3-13.3h13.3c0,0,3.3,24.7-12.2,54.6l0,0c-15.5,29.9-65.1,49-99.5,30.5
		C39.3,672.2,30.8,634.5,30.8,634.5z M116.5,801.3c3,4.4,7.5,11.1,0,14.7s-11.4-8.6-14.1-13.6s-28-51.3-34.6-62.3
		c-6.6-11.1-4.2-14.4-1.1-16.6s7.8,0.3,9.7,4.4s7.5,7.5,14.7,3.9c5.7-2.8,90.1-41.3,93.7-43.8c3.6-2.5,5-5,4.4-8c-0.6-3-0.6-5.2,3-8
		c3.6-2.8,6.7,0.6,9.7,9.2s16.9,31.8,24.7,41.8c0,0-102,63.5-107.2,67.1l0-0.1C114,793.5,113.5,796.8,116.5,801.3z M204.8,785.1
		c-9.1,7.7-33.5,26.1-35.5,27.7s-8-0.5-9.7-5.3s1.7-11.1,4.7-15s4.7-10,0.3-19.4l11.1-6.9c0,0,8.6,9.7,13.8,7.8s9.2-6.1,12.5-4.2
		l0,0C205.3,771.8,213.9,777.3,204.8,785.1z M216.1,791.1c-2.8-4.2,1.9-8.3,5.8-12.8s5-13.6,3.3-21.1c-1.7-7.5-8.3-18.6-8.3-18.6
		l12.8-8v0c0,0,17.2,25.5,27.4,36c0,0-24.9,22.7-29.9,26.3S218.9,795.2,216.1,791.1z M318.1,992c-3.6,5.8-8,3.3-12.2,0.8
		c-4.2-2.5-64.3-38.8-71.5-44.6c-7.2-5.8-7.2-9.7-5.5-13.8c1.6-4.2,9.1-0.5,13,1.7s9.4,3.3,13.6-3.3s69.8-100.8,69.8-100.8l41.3,26
		L309,969c0,0-3.6,4.1,0,7.5h0C312.6,979.8,321.7,986.2,318.1,992z M454.8,1035.8c-1.1,5.8-8.1,5.3-15,4.4
		c-6.9-0.8-59.1-14.1-70.9-20.2s-9.1-13.9-3.9-15.2s12.2,4.5,15.8-5.8c3.6-10.3,32.4-91.2,33.3-97.3c0.8-6.1-0.8-8.6-4.2-10.2
		c-2.8-1.3-4.4-4.4-3.9-7.5c1-3.9,4.2-6.6,10.5-4.4s18,7.5,31.3,10.8s22.5,3.9,25.5,4.7s6.6,4.7,4.4,8.6c-2.2,3.9-13-1.4-15.5,9.4
		s-18,97.3-18.8,102.3s-1.1,10,2.8,11.9l0.1,0C450.1,1029.2,455.9,1030,454.8,1035.8z M559.8,1044.1c-0.5,3.1-3,6.1-13.3,5.3
		c-10.2-0.8-60.4-2.2-69-3.3c-8.6-1.1-16.1-4.4-16.1-10.2s5.5-5.3,8-5.3s10-0.8,11.6-12.5c1.7-11.6,5-43.2,5-43.2l-22.5-3l0.8-10.8
		l22.5,1.4c0,0,5-37.7,5.3-41.8c0.3-4.2-0.3-8.3-5-10.8s-6.3-4-5.5-7.2s3.5-5.7,9.1-4.7c5.5,1.1,46.3,3.3,58.2,3
		c0,0,5.8,1.1,5.3,5.8s-3.3,6.1-6.9,6.9s-3.9,3.3-4.4,9.7s1.4,100.9,1.4,103.4s0.3,8,6.9,8.9l0.1-0.1
		C557.9,1036.3,560.4,1041,559.8,1044.1z M588.3,1046.9c-9.7,0.5-13-3.6-13-7.5c0-3.9,3.9-5.6,8.9-6.4s6.9-3,6.9-3
		S580,923.6,579.1,919.2s-2.8-6.1-8.3-7.5s-5-3.9-5-6.9c0.1-2.7,1.9-5.2,4.4-6.1l0,0c2.1-0.6,34.6-2.5,55.7-7.8l34,143.8
		C660,1034.7,597.9,1046.3,588.3,1046.9z M653.1,964.9l-3-14.7c0,0,12.2-7.8,11.6-14.1s-3.1-10.8,3.6-13.6s11.1,1.9,14.1,13
		s10.5,32.4,10.5,36s-3,11.4-8.9,9.1l0,0c-5.8-2.2-8-9.4-14.4-13.3C662.6,965,657.8,964.1,653.1,964.9z M673.1,1030.9l-3.3-11.9
		c0,0,9.1-5.8,16.6-10.8s13.9-13.8,15.5-20.2s0.3-16.9,6.1-18.6v0c5.8-1.7,10.2,0.3,12.2,6.9s15.5,35.2,15.5,35.2L673.1,1030.9z
		 M827.7,953c0,0-2.2,2.2-2.2,4.7s-2.5,6.1-8,8.9s-8.3,2.5-13.9-4.4s-19.7-29.4-18.8-36.3s6.9-10,11.1-6.7s18.3,16.6,34.1,14.4l0,0
		c9.2-1.2,18.1-4.1,26.3-8.6l9.1,11.6C853.7,943.7,841,949.2,827.7,953z M873.2,930.2l-8.9-10.8c0,0,9.9-10,10.8-18
		s0.8-15.8-14.1-14.7s-37.7,11.9-57.4,15.5s-36.1-0.2-49.3-21.1c-11.9-18.9,1.4-57.6,20.5-68.4l9.4,11.4c-3.6,2.7-6.2,6.5-7.5,10.8
		c-2.2,7.2,5.8,17.2,18,14.4s46.8-19.7,66.8-20.2l0,0c20-0.6,40.4,7.5,42.7,34.4S889.8,914.1,873.2,930.2z M962.4,826.7
		c-9.2,15.2-21.3,30.8-27.4,31.6s-7.8-6.9-6.1-10.5s6.4-7.2-0.3-12.8s-83.1-67.6-85.3-69.3s-4.2,1.1-5.8,3s-6.7,4.7-10.5,1.1
		s1.1-7.5,2.8-10l0,0c2.6-3.9,24.7-34.4,28.5-43.8l126.4,74.3C984.6,790.3,971.6,811.4,962.4,826.7z M990.7,778.3l-11.9-7.4
		c5.8-10.2,6.3-14.4,6.9-28.8s-10.2-20.5-13-26.6v0c-2.8-6.1,0.8-13.9,8.9-10.3s36.9,16.9,36.9,16.9
		C1008.7,746.5,990.7,778.3,990.7,778.3z M1034.4,674.6c-3.3,9.7-8.8,36.3-13,39.6c-4.2,3.3-9.4,3.6-11.6-2.5s2.5-19.7-8.6-28.8
		s-79-55.4-79-55.4l27.2-0.8c0,0,57.1,42.7,61.2,44.9s8.9-2,11.1-5.3s3.1-8.8,10-8C1038.7,659.2,1037.7,664.9,1034.4,674.6z
		 M1042.2,534.5c1.1-4.7,2.8-7.2,7.2-7.2l0-0.1c4.4,0,6.4,2.2,5.8,16.1c-0.6,13.8-4.9,64.6-6.1,72.6c-1.2,8-5.6,11.4-9.2,10.8
		s-5.5-6.6-5.5-10.2s-1.9-5-3.9-5s-13.9,0-15.5,0.3s-4.4,3.6-5.5,10.5s-6.7,31.9-6.7,31.9l-13-9.4l6.9-30.5c0,0-67.1,4.7-79,5
		s-21.9,0.3-20.2-6.7c0,0,6.1-28,8.9-44.6c0,0,99.8-12.7,129.7-26C1036.1,542,1041.1,539.2,1042.2,534.5z M958.6,260.7
		c3.5,31.8-19.8,63.3-53.7,73.7c-33.9,10.4-70.5-1.1-86.2-24.8l10.4-10.1c0,0,6.9,7.5,10.7,6.9c3.7-0.5,8.3-3.2,23.2-15.2
		s61.4-48.3,64.6-52.1s5.3-9.9,2.9-13.6l0,0c-2.4-3.7-4-5.9-4-5.9l10.4-8.3C936.9,211.3,955.1,229,958.6,260.7z M812,302.4
		c0,0-30.2-29.6-38.2-38.7c-8-9.1-3.5-12.5,0.3-13.6l0,0c3.7-1.1,10.1,6.9,15.5,1.1c5.3-5.8,78.5-87,78.5-87s0.8-2.4-2.4-6.1
		c-3.2-3.7-6.7-8.8-3.7-12.8c2.2-3,8.8-3.5,16,3.7s51,51.8,51,51.8L812,302.4z"/>
	<path class="st0" d="M1069.5,76.8c-35.5,0-64.3,28.8-64.3,64.3c0,35.5,28.8,64.3,64.3,64.3c35.5,0,64.3-28.8,64.3-64.3c0,0,0,0,0,0
		C1133.8,105.6,1105.1,76.8,1069.5,76.8z M1122.6,141.1c0,29.3-23.8,53-53.1,53.1c-29.3,0-53.1-23.8-53.1-53.1
		c0-29.3,23.8-53.1,53.1-53.1C1098.8,88.1,1122.6,111.8,1122.6,141.1C1122.6,141.1,1122.6,141.1,1122.6,141.1z"/>
	<path class="st0" d="M1085.7,166.2L1085.7,166.2c-3.8,3.2-8.7,4.8-13.7,4.7c-4.4,0-8.6-1.2-12.4-3.4c-3.9-2.4-6.9-6.1-8.4-10.4
		c-1.9-5.2-2.8-10.7-2.7-16.2c0-4.8,0.8-9.5,2.3-14c1.4-4.4,4.2-8.2,7.9-10.8c3.8-2.7,8.4-4,14-4c4.3-0.2,8.6,1.1,12.1,3.6
		c3.2,2.4,5.7,6.3,7.4,11.6l9.5-2.2c-1.6-6.2-5.2-11.8-10.4-15.7c-5-3.7-11.1-5.6-18.4-5.6c-6.2-0.1-12.2,1.4-17.6,4.4
		c-5.3,2.9-9.7,7.4-12.4,12.9c-3,6.2-4.5,13-4.3,19.9c0,6.7,1.3,13.4,3.8,19.5c2.2,5.7,6.2,10.5,11.2,13.9
		c4.9,3.2,11.3,4.8,19.1,4.8c7.6,0,14-2.1,19.2-6.2c5.2-4.2,8.9-10.2,10.9-18.1l-9.6-2.4C1091.9,158.5,1089.4,163.1,1085.7,166.2z"
		/>
</g>
</svg>
