<svg id="Layer_1" data-name="Layer 1" xmlns="http://www.w3.org/2000/svg" viewBox="0 0 1133.86 1080.8"><defs><style>.cls-1{fill:#b62418;}.cls-2{fill:#fff;}.cls-3{fill:#2e2f78;}.cls-4{fill:#1e1e1c;}</style></defs><title>Friends_Of_The_Sea_</title><path class="cls-1" d="M1084.12,547.08c0,298.45-241.95,540.4-540.4,540.4S3.32,845.53,3.32,547.08,245.26,6.68,543.72,6.68s540.4,241.95,540.4,540.4Z" transform="translate(-3.32 -6.68)"/><path class="cls-2" d="M183.59,204.16c12.55-3.2,22.69,0,28.83.8s19.76-2.67,11.21-12-28-28.57-28-28.57S166,193.74,152.09,211.9l10.41,9.61s8.54-14.15,21.09-17.35Zm427.19-80.64h0c.8,7.48,1.6,15.75,7.74,16.55s10.15-5.61,11.48-18.15,4.8-24,5.61-28.57,0-12-6.41-12.55-9.08,9.08-13.08,13.08-12,5.34-17.35,6.14l-.53,13.88S610,116,610.78,123.52ZM101.09,298.41h0c2.14.54,8-4.27,10.68-6.41s4.54-3.47,6.67-1.6,90.77,55.53,95.84,58.73,4.54,4.81,4.54,7.21-2.13,6.94.53,9.34,7.47,3.2,9.88,0,36.31-52.86,39.24-56.6-1.87-7.74-5.61-8.81-6.41,2.14-8.81,5.07-5.34,2.13-6.41,1.07-103.32-84.9-103.32-84.9C128.59,238.34,104.83,274.92,99,285.6s0,12.28,2.14,12.81ZM403.86,61.58h0c4.8-.8,12.55,20.29,17.35,39.78s19.76,78,19.76,78-6.94,4.54-8.54,9.08,1.07,8.54,6.41,7.74,13.88-3.2,25.1-5.61,19.76-2.94,31.24-4.54,10.41-3.47,10.41-6.67-.8-7.48-3.2-7.74a83.9,83.9,0,0,0-9.34.27c-4-21.36-15.49-116.13-15.75-121.21s2.67-5.34,5.87-5.61,6.94-1.34,7.48-4.81-.8-9.34-14.95-8-69.15,11.48-77.16,14.95-8.49,7.1-7.21,11.48c1.33,4.53,7.75,3.74,12.55,2.94ZM521.34,42.09h0c4.81,1.6,5.34,5.07,5.87,10.68s2.94,86.5,3.2,98-2.13,16-5.34,17.09-8.81,3.74-6.67,10.14,13.08,3.47,25.36,2.67,36.57,2.94,36.57,2.94L596.89,31.94s-56.33-3.74-70.21-4-17.31,2.44-17.89,6.67c-.8,5.88,7.74,5.87,12.55,7.47ZM216.16,161.44h0c3.2-2.94,6.41-3.2,8.81-1.33s71.81,86,74.48,89.43,2.4,5.87,2.4,5.87c-2.4,2.94-6.41,7.47-3.47,11.48s9.34,3.74,12.28,1.87,12-10.15,19.49-16,19.76-14.95,25.9-17.89,9.34-9.08,7.74-11.75-5.61-4.54-10.68-2.94-8.28,1.07-11.21-3.2-69.41-110.79-69.41-110.79c-14.68,8-58.2,39.78-63.81,45.39-3.74,3.74-5.61,6.41-3.2,10.41s7.47,2.4,10.68-.53Zm85.43-55.27h0c3.47,1.07,7.48,6.41,13.62,16.29s16.82,28.3,13.08,31.23S319,162,319,162l7.48,12s8.54-5.07,13.61-.8,11.75,19,18.15,28.83,22.43,22.43,40.58,13.61,22.42-16,24.83-26.7-.53-14.15-5.07-13.88-5.34,4.27-6.94,6.94-4,3.2-6.14-3.47-7.48-32-22.69-32.84a72.73,72.73,0,0,0-28.57,4.8s34.44-21.09,22.43-52.59-49.39-20-60.34-16.55-33.91,18.42-33.91,18.42l6.41,11.75s9.34-6.41,12.81-5.34ZM213.49,263.7h0a50,50,0,0,0,4.27-2.67c3.2-2.14,10.95-2.4,14.42-.27s10.95,5.07,14.42,2.67,4.81-6.41,1.6-10.15S223.64,229,217,222.58s-13.35-8.28-17.89-1.6,2.4,10.95,6.94,17.35-3.47,15.75-3.47,15.75l10.95,9.61Zm578.3-94.53h0l1.33,27.76s33.37-44.59,37.11-49.66,9.34-2.94,13.35-1.6,11.48,6.14,14.69,1.87,2.67-7.74-2.94-13.62-31.5-22.15-37.11-25.36-10.68-1.07-12.28,1.87.8,8.54,4.54,11.75,7.48,10.68,3.2,20-21.89,27-21.89,27ZM639.88,144.88h0c-4.81-2.14-8,6.67-14.42,13.88s-12.82,13.88-34.71,13.08l-1.07,13.35s32.3,7.21,45.65,10.68c0,0,8.54-29.63,10.14-37.37s-.8-11.48-5.61-13.62ZM781.38,147h0c-2.67-30.7-9.61-64.08-9.61-64.08-20-9.88-64.07-29.9-74-31.5s-11.84,3.21-12,7.21c-.27,6.14,8.54,7.48,14.15,12.55s13.88,32.57,21.36,73.42,5.34,88.1,5.34,88.1l25.9,18.69,31-40.32s.53-33.37-2.13-64.07Zm152.43,85.16h0c2.4,3.74.27,9.88-2.94,13.62s-49.65,40.05-64.6,52.06-19.49,14.69-23.23,15.22-10.68-6.94-10.68-6.94L822,316.27c15.75,23.76,52.33,35.24,86.23,24.83s57.13-41.91,53.66-73.68S940.23,218,940.23,218l-10.41,8.28s1.6,2.13,4,5.86ZM777.38,256.74h0c-3.74,1.07-8.28,4.54-.27,13.62s38.18,38.71,38.18,38.71L932.22,207.35s-43.78-44.58-51-51.79-13.79-6.78-16-3.74c-2.94,4,.54,9.07,3.74,12.81s2.4,6.14,2.4,6.14-73.15,81.17-78.49,87-11.75-2.14-15.48-1.07ZM639.61,62.65h0c8,13.62,6.41,25.63,13.61,27.23s10.14-4.27,12.55-14.95S673,46.09,673,46.09s-33.91-8.28-63-13.88l-1.87,14.95S631.6,49,639.61,62.65Zm57.94,32.57h0s-24,68.61-27.23,77.69S662,185.72,658,186.25s-9.08-.8-10.95,3.74-.53,6.41,4.27,8.54,13.88,4.27,23,8,12,4.54,14.68,1.07.27-7.74-3.2-10.95-7.74-7.48-5.34-13.08,24.83-65.67,24.83-65.67l-7.74-22.69ZM55.68,609.9h0c13.3-3.33,97-16.9,103.36-16.63s8.87,3.33,11.36,9.42L184,599.93s-6.65-27.44-30.21-46-61-19.4-85.63-7.21S32.4,583.58,31.29,626.81l12.19.28s-1.11-13.86,12.19-17.18Zm115.84,54.31h0c15.52-29.93,12.19-54.59,12.19-54.59h-13.3a15.58,15.58,0,0,1-5.27,13.3c-3.88,3.33-92.56,23-103.92,24.94S44.6,636.23,44.6,636.23l-10.53,5s8.59,37.69,38,53.48c34.38,18.49,84-.55,99.48-30.48Zm-49,132.46h0c5.27-3.6,107.24-67.06,107.24-67.06-7.76-10-21.61-33.26-24.66-41.85s-6.1-11.92-9.7-9.15-3.6,5-3,8-.83,5.54-4.43,8-88,41-93.66,43.78c-7.2,3.6-12.75.28-14.69-3.88s-6.65-6.65-9.7-4.43-5.54,5.54,1.11,16.62,31.87,57.36,34.64,62.35,6.65,17.18,14.13,13.58,3-10.25,0-14.69-2.49-7.76,2.77-11.36ZM233,737.38h0l-12.75,8s6.65,11.09,8.31,18.57.55,16.62-3.33,21.06-8.59,8.59-5.82,12.75,6.1,5.54,11.09,1.94,29.93-26.33,29.93-26.33c-10.25-10.53-27.43-36-27.43-36Zm-27.71,39.07h0c-3.32-1.94-7.21,2.22-12.47,4.16S179,772.85,179,772.85l-11.08,6.93c4.43,9.42,2.77,15.52-.28,19.4s-6.37,10.25-4.71,15,7.76,6.93,9.7,5.27,26.33-20,35.47-27.71.55-13.3-2.77-15.24ZM271,844.63h0c-7.76,9.15-1.11,16.35,5.54,16.9s13.58-10,20.78-14.69,15.8-1.94,15.8-1.94L322,833.27c-6.37-4.71-24.94-18-24.94-18s-18.29,20.23-26,29.37Zm101.7,74.82h0c.83,5.27,8.31,14.13,14.69,4.71s16.35-35.47,17.74-43.23c0,0-22.72-9.7-25.77-11.64l-7.21,10s8.31,10.26,6.65,16.63-6.93,18.29-6.1,23.55ZM312.3,983.19h0c-3.6-3.33,0-7.48,0-7.48l57.64-111.12-41.29-26S263,932.75,258.81,939.4s-9.7,5.54-13.58,3.33-11.36-5.82-13-1.66-1.66,8,5.54,13.85,67.34,42.12,71.5,44.62,8.59,5,12.19-.83-5.54-12.19-9.15-15.52Zm137.18,50.72h0c-3.88-1.94-3.6-6.93-2.77-11.92s16.35-91.45,18.84-102.26,13.3-5.54,15.52-9.42-1.39-7.76-4.43-8.59-12.19-1.39-25.49-4.71-24.94-8.59-31.31-10.81-9.55.52-10.53,4.43a7,7,0,0,0,3.88,7.48c3.33,1.66,5,4.16,4.16,10.25s-29.65,87-33.26,97.27-10.53,4.43-15.79,5.82-8,9.14,3.88,15.24,64,19.4,70.94,20.23,13.86,1.39,15-4.43-4.71-6.65-8.59-8.59Zm105,8.31h0c-6.65-.83-6.93-6.37-6.93-8.87s-1.94-97-1.39-103.37.83-8.87,4.43-9.7,6.37-2.22,6.93-6.93-5.27-5.82-5.27-5.82c-11.92.28-52.65-1.94-58.19-3S485.76,906,485,909.2s.83,4.71,5.54,7.2,5.27,6.65,5,10.81-5.27,41.85-5.27,41.85l-22.45-1.39-.83,10.81,22.45,3s-3.33,31.6-5,43.23-9.14,12.47-11.64,12.47-8-.55-8,5.27,7.48,9.15,16.07,10.25,58.75,2.49,69,3.33,12.75-2.22,13.3-5.27-1.94-7.76-8.59-8.59Zm19.12-136.9h0a6.77,6.77,0,0,0-4.44,6.1c0,3-.55,5.54,5,6.93s7.48,3,8.31,7.48,11.92,110.85,11.92,110.85-1.94,2.22-6.93,3-8.87,2.49-8.87,6.37,3.33,8,13,7.48,71.78-12.19,71.78-12.19L629.33,897.56c-21.06,5.27-53.57,7.15-55.7,7.76Zm93.11,3h0c8,4.16,14.41,13.3,20.23,15.24s10.81-2.22,9.15-7.76-16.9-36.3-16.9-36.3a410,410,0,0,1-41,14.69L642.08,907s16.63-2.77,24.66,1.39Zm17.73,79h0c5.82,2.22,8.87-5.54,8.87-9.14s-7.48-24.94-10.53-36-7.48-15.8-14.13-13-4.16,7.21-3.6,13.58-11.64,14.13-11.64,14.13l3,14.69A21.09,21.09,0,0,1,670.07,974c6.37,3.88,8.59,11.08,14.41,13.3ZM711.36,976h0c-5.82,1.66-4.43,12.19-6.1,18.57s-8,15.24-15.52,20.23-16.63,10.81-16.63,10.81l3.33,11.92,62.63-19.4s-13.58-28.54-15.52-35.19-6.37-8.59-12.19-6.93Zm72.33-162.67h0l7.48,11.91a38.77,38.77,0,0,1,41-4.43c6.37,3.32,12.75,5.82,15.8,3.6a7.8,7.8,0,0,0,2.22-9.7c-1.66-3-21.34-20.23-27.16-24.94s-10-6.1-12.75-2.49-1.66,5.82,0,8.59a4.14,4.14,0,0,1-.55,5,190,190,0,0,0-26,12.47Zm81.2,22.45h0c-20,.55-54.59,17.46-66.79,20.23s-20.23-7.21-18-14.41a21.61,21.61,0,0,1,7.48-10.81l-9.42-11.36C759,830.22,745.73,869,757.64,887.86c13.21,20.89,29.65,24.66,49.33,21.06s42.4-14.41,57.36-15.52,15,6.65,14.13,14.69-10.81,18-10.81,18l8.87,10.81c16.63-16.07,33.25-39.91,31-66.79s-22.72-34.92-42.67-34.36ZM833.3,940.24h0c-15.79,2.22-29.93-11.09-34.09-14.41s-10.25-.28-11.08,6.65,13.3,29.38,18.84,36.3,8.31,7.2,13.86,4.43,8-6.37,8-8.87,2.22-4.71,2.22-4.71a150.64,150.64,0,0,0,37.69-16.35l-9.14-11.64a75.73,75.73,0,0,1-26.32,8.59ZM833,766.48h0c-1.66,2.49-6.65,6.37-2.77,10s8.87.83,10.53-1.11,3.6-4.71,5.82-3,78.7,63.74,85.35,69.28,1.94,9.14.28,12.75,0,11.36,6.1,10.53,18.29-16.35,27.44-31.59S987.93,797,987.93,797L861.56,722.69c-3.88,9.42-25.92,39.86-28.54,43.78Zm85.91-80.09h0c-7.48-3.6-32.42-12.47-32.42-12.47L867.38,714.1l12.47,5.54c3.32-8.31,11.92-15,20.78-18.84s17.18.55,23-1.39,2.77-9.42-4.71-13ZM935,753.18h0s3.88-7.76,12.75-8.31,17.46,2.22,19.4-2.22,4.43-8.31-6.93-13.86-29.38-13.85-34.64-16.62a9.37,9.37,0,0,0-12.47,3c-1.94,3.33,1.38,8.59,6.09,12.75s5.27,11.92,3,17.74L935,753.18Zm41-31h0c2.77,6.09,13.58,12.19,13,26.6s-1.11,18.57-6.93,28.82L994,785s18-31.87,27.71-56.26c0,0-28.82-13.3-36.86-16.9S973.24,716,976,722.14ZM1035,665h0c-6.93-.83-7.76,4.71-10,8s-6.93,7.48-11.09,5.27-61.24-44.89-61.24-44.89l-27.16.83s67.89,46.28,79,55.42,6.37,22.72,8.59,28.82,7.48,5.82,11.64,2.49,9.7-29.93,13-39.63S1042,665.88,1035,665ZM1052.77,534h0c-4.43,0-6.1,2.49-7.21,7.2s-6.1,7.48-6.1,7.48c-29.93,13.3-129.69,26-129.69,26-2.77,16.63-8.87,44.61-8.87,44.61-1.66,6.93,8.31,6.93,20.23,6.65s79-5,79-5l-6.93,30.48,13,9.42s5.54-24.94,6.65-31.87,3.88-10.25,5.54-10.53,13.58-.28,15.52-.28,3.88,1.38,3.88,5,1.94,9.7,5.54,10.25,8-2.77,9.15-10.81,5.54-58.75,6.1-72.6-1.39-16.07-5.82-16.07Z" transform="translate(-3.32 -6.68)"/><path class="cls-3" d="M868.05,547.08c0,179.12-145.21,324.34-324.34,324.34S219.38,726.2,219.38,547.08,364.59,222.74,543.72,222.74,868.05,367.95,868.05,547.08Z" transform="translate(-3.32 -6.68)"/><path class="cls-2" d="M543.62,186.52,338.16,541.93H543.62V186.52Zm13.26,112.68h0V552.7H697.71L556.87,299.19Zm101.9,298.25h0c-55.51-4.14-189.72-19.88-261-23.2S244.54,587.5,244.54,587.5v58.82s87-12.43,138.36-12.43S557.7,646.33,645.52,653s198.83-4.14,198.83-4.14v-63s-130.07,15.74-185.58,11.6Zm-31.48,97.76h0c-52.19-7.46-160.72-24-207.95-24s-92-.83-135.87,11.6v55.51s105.22-9.94,162.38-6.63,182.26,25.68,237.77,23.2S790.5,740.77,790.5,740.77V681.12s-111,21.54-163.21,14.08ZM556,778.05h0c-64.62-10.77-115.16-7.46-152.44-1.66v37.28s64.62-9.12,114.33-4.14,107.7,17.4,160.72,4.14V780.54s-58,8.28-122.61-2.49Z" transform="translate(-3.32 -6.68)"/><path class="cls-4" d="M1089,172.92a20.71,20.71,0,0,1-13.71,4.67,23.56,23.56,0,0,1-12.36-3.43,20.19,20.19,0,0,1-8.42-10.37,44.58,44.58,0,0,1-2.71-16.24,43.61,43.61,0,0,1,2.28-14,21.24,21.24,0,0,1,7.92-10.82q5.63-4,14-4a19.57,19.57,0,0,1,12.12,3.63q4.82,3.63,7.35,11.59l9.48-2.24A28.94,28.94,0,0,0,1094.6,116q-7.45-5.57-18.38-5.57a36,36,0,0,0-17.65,4.4,29.74,29.74,0,0,0-12.36,12.88,42.92,42.92,0,0,0-4.35,19.87,49.66,49.66,0,0,0,3.85,19.54,30,30,0,0,0,11.23,13.9q7.37,4.8,19.14,4.8,11.37,0,19.24-6.24t10.9-18.13l-9.64-2.44q-2,9.2-7.59,13.88ZM1072.85,83.5h0a64.32,64.32,0,1,0,64.32,64.32,64.32,64.32,0,0,0-64.32-64.32Zm0,117.4h0a53.08,53.08,0,1,1,53.08-53.08,53.15,53.15,0,0,1-53.08,53.08Z" transform="translate(-3.32 -6.68)"/></svg>