<?xml version="1.0" encoding="utf-8"?>
<!-- Generator: Adobe Illustrator 22.0.1, SVG Export Plug-In . SVG Version: 6.00 Build 0)  -->
<!DOCTYPE svg PUBLIC "-//W3C//DTD SVG 1.1//EN" "http://www.w3.org/Graphics/SVG/1.1/DTD/svg11.dtd">
<svg version="1.1" id="Layer_1" xmlns="http://www.w3.org/2000/svg" xmlns:xlink="http://www.w3.org/1999/xlink" x="0px" y="0px"
	 viewBox="0 0 100 152" style="enable-background:new 0 0 100 152;" xml:space="preserve">
<style type="text/css">
	.st0{fill:#80BC00;}
	.st1{fill:#FFFFFF;}
</style>
<g>
	<path class="st0" d="M82.3,0.8H17.7C8.2,0.8,0.5,8.5,0.5,17.9v116.1c0,9.5,7.7,17.2,17.2,17.2h64.6c9.5,0,17.2-7.7,17.2-17.2V17.9
		C99.5,8.5,91.8,0.8,82.3,0.8z"/>
	<path class="st1" d="M87.5,7.8C56,22.5,45.2,34.1,33.2,46.4c-2.4-3-5.7-5.1-9.4-6.8c-4-1.8-8.3-3.2-11.1-3.7c0,0,0.4,0.5,0.4,0.4
		c5.1,6.2,15.3,16.7,21.5,31c0,0,0.1,0.2,0.1,0.2C49.9,38.5,62,27.9,67.1,23.4c5.2-5.1,19.7-15,19.7-15L87.5,7.8"/>
	<path class="st1" d="M9.6,71.1h12.5c5,0,9.5,1.7,9.5,7.3c0,3.1-2.1,6-5.2,6.6v0.1c3.8,0.5,6.3,3.4,6.3,7.2c0,2.8-1,8.4-10.6,8.4
		H9.6V71.1 M12.5,84.1h9.7c4.5,0,6.7-2.2,6.7-5c0-3.7-2.3-5.6-6.7-5.6h-9.7V84.1z M12.5,98.3h9.7c4.2,0,7.8-1.4,7.8-6.1
		c0-3.8-2.9-5.7-7.8-5.7h-9.7V98.3z"/>
	<path class="st1" d="M37.4,71.1h13.6c4.9,0,9,2.4,9,7.7c0,3.7-2,6.8-5.8,7.6v0.1c3.9,0.5,5,3.2,5.2,6.7c0.1,2,0.1,6.1,1.4,7.6h-3.1
		c-0.7-1.2-0.7-3.4-0.8-4.6c-0.2-4.2-0.6-8.8-5.9-8.5H40.2v13.2h-2.8V71.1 M40.2,85.2h10.6c3.4,0,6.4-2.2,6.4-5.8
		c0-3.6-2.2-5.9-6.4-5.9H40.2V85.2z"/>
	<path class="st1" d="M86.7,80.1c-1-4.6-4.8-7.2-9.1-7.2c-7.9,0-11.2,6.6-11.2,13c0,6.5,3.3,13,11.2,13c5.5,0,9-4.2,9.5-9.5H90
		c-0.8,7.3-5.4,11.9-12.3,11.9c-9.3,0-14-7.3-14-15.4c0-8.1,4.6-15.4,14-15.4c5.6,0,11.2,3.4,11.9,9.6H86.7"/>
	<path class="st1" d="M14.2,139c0-1.5-0.3-2.2-1.3-2.2c-1.1,0-1.3,1.1-1.3,4c0,3.2,0.4,3.7,1.3,3.7c0.8,0,1.3-0.4,1.3-2.7h2.1
		c0,2.3-0.6,4.2-3.3,4.2c-3.2,0-3.6-2.3-3.6-5.4s0.4-5.4,3.6-5.4c3,0,3.2,2.2,3.2,3.7H14.2"/>
	<polyline class="st1" points="23.4,135.5 23.4,137.2 19.7,137.2 19.7,139.7 23.2,139.7 23.2,141.4 19.7,141.4 19.7,144.2 
		23.6,144.2 23.6,145.9 17.6,145.9 17.6,135.5 23.4,135.5 	"/>
	<path class="st1" d="M24.6,135.5h3.9c1.7,0,2.8,0.9,2.8,2.7c0,1.4-0.6,2.3-1.7,2.6v0c1.4,0.2,1.7,1,1.7,3.2c0,1.1,0.1,1.7,0.5,1.9
		v0.1h-2.3c-0.2-0.3-0.2-0.7-0.3-1.1l-0.1-2c0-0.8-0.4-1.3-1.2-1.3h-1.1v4.4h-2.1V135.5 M26.7,140.1h0.9c1,0,1.6-0.4,1.6-1.6
		c0-1-0.5-1.4-1.5-1.4h-1V140.1z"/>
	<polyline class="st1" points="38.6,135.5 38.6,137.2 36.4,137.2 36.4,145.9 34.2,145.9 34.2,137.2 32,137.2 32,135.5 38.6,135.5 	
		"/>
	<rect x="39.7" y="135.5" class="st1" width="2.1" height="10.5"/>
	<polyline class="st1" points="43.3,135.5 49.2,135.5 49.2,137.2 45.4,137.2 45.4,139.7 49,139.7 49,141.4 45.4,141.4 45.4,145.9 
		43.3,145.9 43.3,135.5 	"/>
	<rect x="50.2" y="135.5" class="st1" width="2.1" height="10.5"/>
	<path class="st1" d="M58.4,139c0-1.5-0.3-2.2-1.3-2.2c-1.1,0-1.3,1.1-1.3,4c0,3.2,0.4,3.7,1.4,3.7c0.8,0,1.3-0.4,1.3-2.7h2.1
		c0,2.3-0.6,4.2-3.3,4.2c-3.2,0-3.6-2.3-3.6-5.4s0.4-5.4,3.6-5.4c3,0,3.2,2.2,3.2,3.7H58.4"/>
	<path class="st1" d="M63.6,135.5h2.6l2.8,10.5h-2.2l-0.5-2.2h-2.8l-0.5,2.2h-2.2L63.6,135.5 M63.8,142h2.1l-1-4.7h0L63.8,142z"/>
	<polyline class="st1" points="75,135.5 75,137.2 72.7,137.2 72.7,145.9 70.6,145.9 70.6,137.2 68.3,137.2 68.3,135.5 75,135.5 	"/>
	<polyline class="st1" points="81.8,135.5 81.8,137.2 78,137.2 78,139.7 81.5,139.7 81.5,141.4 78,141.4 78,144.2 81.9,144.2 
		81.9,145.9 75.9,145.9 75.9,135.5 81.8,135.5 	"/>
	<path class="st1" d="M83.1,135.5h3.5c2.9,0,3.5,2,3.5,5.1c0,3.7-0.8,5.4-3.6,5.4h-3.3V135.5 M85.2,144.4h0.9c1.5,0,1.8-0.9,1.8-3.8
		c0-2.4-0.2-3.6-1.8-3.6h-0.9V144.4z"/>
	<polyline class="st1" points="9.5,104.4 25.2,104.4 25.2,109 15.2,109 15.2,115.6 24.6,115.6 24.6,120.2 15.2,120.2 15.2,132.3 
		9.5,132.3 9.5,104.4 	"/>
	<path class="st1" d="M36.6,103.8c8.5,0,9.5,6,9.5,14.5c0,8.5-1.1,14.5-9.5,14.5c-8.5,0-9.5-6-9.5-14.5
		C27.1,109.9,28.1,103.8,36.6,103.8 M36.6,128.7c3.3,0,3.9-2.9,3.9-10.4c0-7.5-0.5-10.4-3.9-10.4c-3.3,0-3.9,2.9-3.9,10.4
		C32.7,125.9,33.3,128.7,36.6,128.7z"/>
	<path class="st1" d="M58.4,103.8c8.5,0,9.5,6,9.5,14.5c0,8.5-1.1,14.5-9.5,14.5c-8.5,0-9.5-6-9.5-14.5
		C48.8,109.9,49.9,103.8,58.4,103.8 M58.4,128.7c3.3,0,3.9-2.9,3.9-10.4c0-7.5-0.5-10.4-3.9-10.4c-3.3,0-3.9,2.9-3.9,10.4
		C54.5,125.9,55,128.7,58.4,128.7z"/>
	<path class="st1" d="M71.5,104.4h9.2c7.8,0,9.2,5.4,9.2,13.6c0,9.9-2.1,14.4-9.6,14.4h-8.9V104.4 M77.1,128.2h2.5
		c3.9,0,4.7-2.5,4.7-10.1c0-6.3-0.5-9.6-4.8-9.6h-2.4V128.2z"/>
</g>
</svg>
