<?xml version="1.0" encoding="utf-8"?>
<!-- Generator: Adobe Illustrator 22.0.1, SVG Export Plug-In . SVG Version: 6.00 Build 0)  -->
<!DOCTYPE svg PUBLIC "-//W3C//DTD SVG 1.1//EN" "http://www.w3.org/Graphics/SVG/1.1/DTD/svg11.dtd">
<svg version="1.1" id="Layer_1" xmlns="http://www.w3.org/2000/svg" xmlns:xlink="http://www.w3.org/1999/xlink" x="0px" y="0px"
	 viewBox="0 0 773.5 300.4" style="enable-background:new 0 0 773.5 300.4;" xml:space="preserve">
<style type="text/css">
	.st0{fill:#EB008B;}
</style>
<title>logo_HM</title>
<path class="st0" d="M95.3,157c5.6,4.6,16.7,3,19.7-4.6c1.7-4.3,0.1-9.9-3.6-18.3c-2.6-5.4-5.8-11.1-9.6-14.3
	c-5.4-4.4-14.6-1.6-17.5,6C82.4,130.4,87.6,150.7,95.3,157z"/>
<path class="st0" d="M150.9,144.7c3-3.8,3.1-10.2,1.7-19.4c-1.2-5.8-2.4-12.7-5.2-16.9c-4-5.9-14-5.8-19.2,0.8
	c-3.2,4-4.5,25.1,1.6,34.1C133.8,149.2,145.7,151.3,150.9,144.7z"/>
<path class="st0" d="M223.4,271.9c-3.8-6.3-7.9-31.7-11-73.7c-0.5-8.5-1-17.4-1.4-24.4c1.1-0.9,2.2-1.8,3.2-2.7
	c27.2-24,35.8-47.6,26.3-58.3c-5.8-6.6-15.9-10.6-21-6c-1,0.9-1.8,2.1-2.2,3.4c-3.1,9.4,3.4,9.4-8.8,22.1
	c-2.3-50.1-2.8-98.4-0.1-113.8c0.3-1.9-0.1-3.7-1.1-5.3c-0.8-1.2-1.7-2.3-2.7-3.2c-8.4-8-33-12.6-40.8-7.9
	c-6.9,4.2-1.8,80.7,8.8,158.7c-25.2,14.8-53.2,21.1-87.2,22c-4.6-11.9-9.6-25.2-10.6-27.8C56,105.1,41.5,54.2,39.4,52.3
	c-8.6-7.6-32.8-6.7-38.6-0.1c-5.2,5.9,16.2,64,45.2,129.6c-19.4-1.2-31.8-2.4-38.3,3.4c-3.9,3.5-3.9,5.6-1.1,8.7
	c3.9,4.3,24.4,12.3,52.5,16.7c3.5,7.4,6.5,13.8,6.8,14.2c16.3,34.1,30.8,61.2,38.2,67.8c8.5,7.6,23.6,10.6,29,4.6c1-1.2,1.4-3,1-5.4
	c-0.6-2.8-17.4-34.7-35.8-78.3c29.3-0.1,55.9-6,79.8-17.9c1.1,7.2,2.3,14.8,3.2,21.3c4.8,26,9.2,45.5,12.7,51.3
	c4.5,7.4,25.7,17.1,33.5,12.3c0.8-0.5,1.6-1.4,1-2.5C227.4,276.6,225.6,275.4,223.4,271.9z"/>
<path class="st0" d="M651.2,256.1c-4.2-0.1-19.8-0.4-30.5-0.8c-12,0-23.9,0.9-35.7,2.5c-19,2-17.9,19.7-5.6,19.8
	c5,0,22.1-1.6,50.6,1.4c10,1.2,20.7,2.5,24.5,2.7c40.3,4.8,84.5,11.7,96.6,16.2c1.2,0.4,2.5,0.4,3.7-0.1c0.9-0.4,1.7-0.9,2.5-1.4
	c6.3-4.8,11.9-21,9.5-26.9C764.5,264,707.4,257.9,651.2,256.1z"/>
<path class="st0" d="M557.7,174.6l-14.4-1.7c-4.4-0.5-7.4,2.8-7.9,7.3l-2.2,19.1c-1.2,9.9-5.3,18.4-14.1,17.3
	c-9.4-1.1-10.2-11.4-9.1-20.9l2.1-18.2c0.5-4.5-1.6-8.4-6-8.9l-13.9-1.6c-4.4-0.5-7.4,2.8-7.9,7.3l-2,17.5
	c-2.4-23.1-13-34.7-27.6-36c-15.4-1.4-19.6,7-19.6,7l-0.9-0.1l0.2-1.9c0.4-3.9-0.8-5.5-5.8-6l-14-1.3c-5-0.5-6.6,1.2-6.9,5.1
	l-5.1,54.8c0-0.7,0-1.3-0.1-2c-2-41.5-17.3-59.7-36.8-58.7c-15.9,0.8-19,10.4-19,10.4h-0.9l-0.1-2c-0.2-4.1-1.6-5.7-6.8-5.5
	l-14.5,0.7c-5.2,0.3-6.5,2.3-6.3,6.5l4.1,82c-1.6,0.3-4.1,0.8-5,0.9c-3.9,0.3-5.6-1.2-5.9-4.9l-3.9-46.4
	c-1.9-22.3-12.3-39.3-43.1-36.7c-29.7,2.5-35.7,22.3-35.3,35.7c0.1,2.6,0.7,3.5,6.1,4.1l13.1,1.4c4.5,0.6,6.5,0,6.2-3
	c-0.3-3.4,2.5-8.6,11.6-9.3c8.6-0.7,12.7,4.5,13.6,14.8l0.7,8.8H280c0,0-6.4-6.2-18.4-5.2c-23,1.9-33,21.2-31.5,39.6
	c1.6,19,13.5,36.4,34.8,34.6c18.6-1.5,23.7-14.2,23.7-14.2l1-0.1l0.2,0.5c0.9,2,6.2,10.7,18.9,9.9c7.5-0.5,12-2.7,14.7-5.5l1,19.5
	c0.3,5.3,3.4,8.1,7.8,7.9l14.6-0.7c4.4-0.2,7.2-3.4,7-8.7l-1.1-22.2h0.9c0,0,4,7,15.9,6.4c14.9-0.7,25.3-8.8,30.2-25.6L397,276
	c-0.5,4.9,2.1,8,6.4,8.4l14.1,1.3c4.3,0.4,7.4-2.1,7.8-7l1.9-20.6l0.9,0.1c0,0,3,7,14.4,8c21.4,2,35.4-12.3,39.5-47.6
	c2.6,14.1,11.1,24.9,26.8,26.8c16.2,1.9,21.4-10.3,21.4-10.3l0.9,0.1l-2,17.4c-1.3,11.4-5.9,16.8-15.1,15.7
	c-7.1-0.8-11.6-6.7-10.9-12.5c0.2-2-0.4-5.2-5.8-4.9l-13.7,0.9c-4.8,0.3-6.7,1.9-6.8,6.3c-0.2,10.6,2.3,30.8,34.3,34.6
	c30.7,3.6,41.8-13.4,44.5-36.1l8.5-72.8C564.2,179.1,562.1,175.2,557.7,174.6z M272.9,254.8c-7.9,0.6-13.4-4.1-14.1-12.4
	c-0.7-8.3,4-13.8,11.9-14.4c9.3-0.8,13.8,5.4,14.4,12.2C285.6,247.2,282.1,254.1,272.9,254.8L272.9,254.8z M362.7,242.7
	c-9.6,0.5-14.1-7.4-15.2-28.4c-1.1-21.9,2.6-31.4,12.2-31.9c7.7-0.4,13.1,8,14.2,30.6C375,234.9,370.4,242.3,362.7,242.7
	L362.7,242.7z M454.5,212.3c-1.9,20.3-7.3,26.5-14.8,25.8c-9.3-0.9-12.6-8.8-10.8-28.2c1.9-20.3,6.7-28.6,15.9-27.7
	C452.4,182.9,456.5,191.4,454.5,212.3L454.5,212.3z"/>
<path class="st0" d="M740.1,136c-29.7-4-45.7,11.4-51.2,48.9l-1.2-58c-0.1-5-3-8.4-7.9-8.3l-10.1,0.2c-5,0.2-9.5,2.8-12.2,7
	l-23.8,36.7l-25.2-35.6c-2.9-4.1-7.5-6.5-12.5-6.5l-10.1,0.2c-4.9,0.1-7.7,3.6-7.6,8.7l2.2,108.5c0.1,5.6,3.3,8.6,8.1,8.5l15.7-0.3
	c4.8-0.1,7.8-3.3,7.7-8.8l-1.3-60.7l19.1,25.1c1.9,2.6,5.5,3.1,8.1,1.3c0.5-0.4,1-0.9,1.4-1.5l18-25.9l1.3,60.7
	c0.1,5.5,3.3,8.6,8.1,8.5l15.7-0.3c4.8-0.1,7.8-3.3,7.7-8.8l-0.3-13.8c4.6,15.7,16.2,24.1,35.4,26.6c24.9,3.3,39.2-9.7,43.1-25.6
	c1.4-5.5-0.5-7.6-5.1-8.9l-14.2-3.6c-3-0.9-5-0.8-5.4,2.5c-0.7,5-5,10-14,8.8c-9.3-1.2-12.6-8.8-10.9-25.9l47.8,6.4
	c4.2,0.6,5.6-0.5,5.9-3.5l0.5-4.6C776.6,155.3,767.6,139.7,740.1,136z M747.7,180.5l-26.1-3.5c3.3-13,8-18.1,15.3-17.1
	C745.4,161,748.7,168.9,747.7,180.5L747.7,180.5z"/>
</svg>
