<?xml version="1.0" encoding="utf-8"?>
<!-- Generator: Adobe Illustrator 22.1.0, SVG Export Plug-In . SVG Version: 6.00 Build 0)  -->
<!DOCTYPE svg PUBLIC "-//W3C//DTD SVG 1.1//EN" "http://www.w3.org/Graphics/SVG/1.1/DTD/svg11.dtd">
<svg version="1.1" id="Layer_1" xmlns="http://www.w3.org/2000/svg" xmlns:xlink="http://www.w3.org/1999/xlink" x="0px" y="0px"
	 viewBox="0 0 70 70" style="enable-background:new 0 0 70 70;" xml:space="preserve">
<style type="text/css">
	.st0{fill:#F399C1;}
</style>
<g>
	<path class="st0" d="M26.4,1.5c-3.1,0.8-5.9,2-8.6,3.5v25.6h-17c-0.2,1.4-0.3,2.8-0.3,4.3s0.1,2.9,0.3,4.3h17v25.6
		c2.7,1.5,5.6,2.7,8.6,3.5V39.2h42.8c0.2-1.4,0.3-2.8,0.3-4.3s-0.1-2.9-0.3-4.3H26.4V1.5z"/>
	<path class="st0" d="M30.8,0.7v25.7h37.7c-3.6-14-15.7-24.6-30.6-25.8h-5.8C31.7,0.6,31.2,0.6,30.8,0.7z"/>
	<path class="st0" d="M30.8,43.6v25.5c1.4,0.2,2.8,0.3,4.2,0.3c16,0,29.5-11,33.4-25.8C68.4,43.6,30.8,43.6,30.8,43.6z"/>
	<path class="st0" d="M13.6,26.4V7.9C7.7,12.5,3.4,19,1.6,26.4H13.6z"/>
	<path class="st0" d="M13.6,61.9V43.6h-12C3.5,51,7.8,57.4,13.6,61.9z"/>
</g>
</svg>
