<?xml version="1.0" encoding="utf-8"?>
<!-- Generator: Adobe Illustrator 22.1.0, SVG Export Plug-In . SVG Version: 6.00 Build 0)  -->
<!DOCTYPE svg PUBLIC "-//W3C//DTD SVG 1.1//EN" "http://www.w3.org/Graphics/SVG/1.1/DTD/svg11.dtd">
<svg version="1.1" id="Layer_1" xmlns="http://www.w3.org/2000/svg" xmlns:xlink="http://www.w3.org/1999/xlink" x="0px" y="0px"
	 viewBox="0 0 70 70" style="enable-background:new 0 0 70 70;" xml:space="preserve">
<style type="text/css">
	.st0{fill:#A3DDF8;}
	.st1{fill:#FFFFFF;}
</style>
<g>
	<circle class="st0" cx="35" cy="35" r="35"/>
	<g>
		<path class="st1" d="M49.7,31.5c-1.3-0.3-2.8-0.5-4.6-0.7c1.1-1.4,2.1-2.6,2.8-3.7c0.9-1.3,2.7-4.1,0.9-5.9
			c-0.5-0.5-1.1-0.7-1.8-0.7c-1.6,0-4.2,1.5-7.8,4.4c-0.2-1.8-0.4-3.3-0.7-4.6c-0.3-1.6-1-4.8-3.5-4.8s-3.2,3.2-3.5,4.8
			c-0.3,1.3-0.5,2.8-0.7,4.6c-3.6-2.9-6.2-4.4-7.8-4.4c-0.7,0-1.4,0.3-1.8,0.7c-1.7,1.7,0.1,4.5,0.9,5.9c0.7,1.1,1.6,2.4,2.8,3.7
			c-1.8,0.2-3.3,0.4-4.6,0.7c-1.6,0.3-4.8,1-4.8,3.5s3.2,3.2,4.8,3.5c1.3,0.3,2.8,0.5,4.6,0.7c-1.1,1.4-2.1,2.6-2.8,3.7
			c-0.9,1.3-2.7,4.1-0.9,5.9c0.5,0.5,1.1,0.7,1.8,0.7c1.6,0,4.2-1.5,7.8-4.4c0.2,1.8,0.4,3.3,0.7,4.6c0.3,1.6,1,4.8,3.5,4.8
			s3.2-3.2,3.5-4.8c0.3-1.3,0.5-2.8,0.7-4.6c3.6,2.9,6.2,4.4,7.8,4.4c0.7,0,1.4-0.3,1.8-0.7c1.7-1.7-0.1-4.5-0.9-5.9
			c-0.7-1.1-1.6-2.4-2.8-3.7c1.8-0.2,3.3-0.4,4.6-0.7c1.6-0.3,4.8-1,4.8-3.5S51.3,31.8,49.7,31.5z M41,37.5c4.5,5,7.2,9.1,6.4,9.9
			c-0.1,0.1-0.2,0.1-0.4,0.1c-1.4,0-5.1-2.6-9.5-6.5c-0.4,6.7-1.3,11.5-2.5,11.5s-2.1-4.8-2.5-11.5c-4.4,3.9-8.1,6.5-9.5,6.5
			c-0.2,0-0.3,0-0.4-0.1c-0.8-0.8,1.9-4.9,6.4-9.9c-6.7-0.4-11.5-1.3-11.5-2.5c0-1.1,4.8-2.1,11.5-2.5c-4.5-5-7.2-9.1-6.4-9.9
			c0.1-0.1,0.2-0.1,0.4-0.1c1.4,0,5.1,2.6,9.5,6.5c0.4-6.7,1.3-11.5,2.5-11.5s2.1,4.8,2.5,11.5c4.4-3.9,8.1-6.5,9.5-6.5
			c0.2,0,0.3,0,0.4,0.1c0.8,0.8-1.9,4.9-6.4,9.9c6.7,0.4,11.5,1.3,11.5,2.5S47.7,37.1,41,37.5z"/>
		<circle class="st1" cx="35" cy="35" r="2.5"/>
	</g>
</g>
</svg>
