<svg id="Layer_1" data-name="Layer 1" xmlns="http://www.w3.org/2000/svg" viewBox="0 0 1133.86 618.15"><defs><style>.cls-1,.cls-3,.cls-4{fill:none;}.cls-1,.cls-4{stroke:#a6b4ac;}.cls-1{stroke-width:8.04px;}.cls-2,.cls-5,.cls-6{fill:#a6b4ac;}.cls-4{stroke-width:2.68px;}.cls-5{font-size:18.27px;}.cls-5,.cls-6{font-family:GillSansMT-Bold, Gill Sans MT;font-weight:700;}.cls-6{font-size:21.09px;}</style></defs><title>vitaelab_logo_svg</title><path class="cls-1" d="M764.94,591.59a120,120,0,1,1-120-120A120,120,0,0,1,764.94,591.59Z" transform="translate(-141.73 -399.59)"/><path class="cls-2" d="M214.56,967.92q-10.77-27.11-23-57.18t-25.17-61.37Q153.53,818,141.73,789.9q4.6.78,8.82,1.38a59.36,59.36,0,0,0,16.3,0c2.87-.4,5.8-.86,8.83-1.38q7.2,21.6,15.87,45.24c5.76,15.78,11.9,31.83,18.26,48.19s13,32.9,19.81,49.65,13.58,33.44,20.58,50c3.9-8.91,8.11-18.9,12.74-29.89s9.15-22.41,13.85-34.26,9.32-24,13.84-36.29,9.06-24.09,13.31-35.42,8.13-21.89,11.61-31.71,6.38-18.29,8.76-25.47a38.69,38.69,0,0,0,24.22,0q-25.56,56.86-49,112.72t-45,111.68c-3.49-.35-7.1-.48-10.77-.48a93.43,93.43,0,0,0-10.81.48q-7.5-19.28-18.3-46.37" transform="translate(-141.73 -399.59)"/><path class="cls-2" d="M365.82,790.88A15.93,15.93,0,0,1,377.46,786a16.57,16.57,0,0,1,0,33.13,16.68,16.68,0,0,1-16.52-16.56,16.1,16.1,0,0,1,4.89-11.69m-1,98.68q-.52-16.17-2-30.15a87.51,87.51,0,0,0,14.58,1.65,87.47,87.47,0,0,0,14.62-1.65q-1.49,14-2,30.15c-.26,10.77-.48,21.08-.48,30.83v33.92c0,9.77.22,20.07.48,30.83s1,20.47,2,29.16c-5-.35-9.82-.48-14.62-.48s-9.6.13-14.58.48c1-8.69,1.64-18.38,2-29.16s.5-21.06.5-30.83V920.39c0-9.75-.24-20.06-.5-30.83" transform="translate(-141.73 -399.59)"/><path class="cls-2" d="M468,815.73c-.63,8.24-1.1,16.31-1.47,24.26s-.69,15.88-1.12,23.92c2.34,0,6.79,0,13.38-.17s13.59-.35,21.21-.83l-.35,3.59v6.79l.35,3.26c-2.85-.15-5.79-.28-8.8-.37s-6.34-.13-9.83-.13h-16c-.24.91-.52,4.37-.91,10.47s-.65,13.37-.82,21.76-.44,17.15-.53,26.3-.19,17.34-.19,24.52c0,6.1.15,12.11.45,18a55.33,55.33,0,0,0,3.12,15.85,25.64,25.64,0,0,0,7.83,11.29c3.51,2.85,8.52,4.26,15.05,4.26a41,41,0,0,0,7-.76,49,49,0,0,0,7.72-1.77v7.87c-3.71.65-7.78,1.43-12.24,2.42a59.19,59.19,0,0,1-12.89,1.49c-13.78,0-23.92-3.4-30.49-10.15s-9.87-16.62-9.87-29.71c0-5.85.09-12.25.31-19.08s.57-14.36.9-22.53.61-17.17.83-27.08.36-20.94.36-33.13H430.27l-5.58.13c-1.92.09-4,.22-6.21.37l.53-3.78.15-3.76-.15-3.29-.53-3.28c9.85.69,17,1,21.57,1-.13-4.33-.26-9.74-.35-16.22s-.31-13.19-.58-20.15l27.27-11.33H468" transform="translate(-141.73 -399.59)"/><path class="cls-2" d="M549.08,860a84.59,84.59,0,0,1,25.47-3.89,65.2,65.2,0,0,1,21.57,3.41,47.78,47.78,0,0,1,16.83,9.8,45.81,45.81,0,0,1,11,15.33,47.5,47.5,0,0,1,4,19.73q0,18.62-.69,37.07c-.52,12.24-.76,25.26-.76,39q0,3.91.15,8.31a24.17,24.17,0,0,0,1.49,7.83,14.32,14.32,0,0,0,3.76,5.71c1.6,1.58,4,2.3,7.33,2.3l3.42-.18,3.44-1.12v7.35a38.5,38.5,0,0,1-9,2.68,68,68,0,0,1-12.07,1c-7.1,0-12.5-1.81-16.26-5.45a22.08,22.08,0,0,1-6.62-14q-11.74,11.75-23.14,17.28t-28,5.58a57,57,0,0,1-15.94-2.32,36.21,36.21,0,0,1-13.83-7.52,40.78,40.78,0,0,1-9.78-12.54,36.31,36.31,0,0,1-3.72-16.83c0-13.06,4-23.23,12.19-30.41s19.42-11.94,33.76-14.36q17.61-2.92,27.6-5.06c6.61-1.41,11.5-2.86,14.64-4.42s5.08-3.33,5.75-5.4a29,29,0,0,0,.93-8,60.32,60.32,0,0,0-1.94-15.67,36.32,36.32,0,0,0-6.18-13.07,31.16,31.16,0,0,0-11.15-9c-4.55-2.28-10.1-3.41-16.63-3.41a51.64,51.64,0,0,0-24.33,5.88,38.67,38.67,0,0,0-16.82,16.31H522V875c9.78-7.39,18.85-12.36,27.12-15m40.65,76.43c-4.88.87-9.81,1.78-14.8,2.76A144,144,0,0,0,560.05,943a47.7,47.7,0,0,0-13,6.23A30,30,0,0,0,537.9,959c-2.27,3.94-3.44,8.93-3.44,15.06q0,15.31,8.85,23.18c5.85,5.24,12.35,7.83,19.55,7.83a39.72,39.72,0,0,0,22.64-6.83,51.17,51.17,0,0,0,15.83-16l1.28-49a78.19,78.19,0,0,1-12.87,3.28" transform="translate(-141.73 -399.59)"/><path class="cls-2" d="M678.29,879q19.17-22.83,55.76-22.84c11.57,0,21.52,1.81,29.94,5.4a62,62,0,0,1,21.1,14.37,56.48,56.48,0,0,1,12.61,21,80.3,80.3,0,0,1,4.09,25.82c0,2.16-.07,4.28-.15,6.37s-.19,4.17-.33,6.34l-35.05-.65q-17.35-.31-35-.34c-7.19,0-14.31.13-21.42.34l-21.43.65a17.68,17.68,0,0,0-.52,4.89v4.29a74.3,74.3,0,0,0,3.76,23.83,54.12,54.12,0,0,0,11,19.12,51.63,51.63,0,0,0,17.65,12.76c7,3.16,15,4.71,24.22,4.71a54.44,54.44,0,0,0,13.42-1.77,79.93,79.93,0,0,0,13.46-4.91A75.7,75.7,0,0,0,783.65,991a60.89,60.89,0,0,0,9.94-9.17l1.65,1-2,16a89.48,89.48,0,0,1-24.33,13.39,83.94,83.94,0,0,1-30.28,5.58,92.09,92.09,0,0,1-32.22-5.43,71.32,71.32,0,0,1-25.19-15.66,69.64,69.64,0,0,1-16.37-24.31A80,80,0,0,1,659.16,942q0-40.17,19.12-63m35.93-7a48.52,48.52,0,0,0-13.75,14,68.72,68.72,0,0,0-8.19,18.43,96.29,96.29,0,0,0-3.42,18.94l21.12.65c7.31.21,14.5.3,21.46.3,7.22,0,14.51-.09,21.93-.3l21.62-.65a129.53,129.53,0,0,0-1.44-18.77,58.87,58.87,0,0,0-5.93-18.43,39,39,0,0,0-12.26-14.15c-5.27-3.74-12.12-5.58-20.63-5.58-8.09,0-14.9,1.84-20.51,5.58" transform="translate(-141.73 -399.59)"/><path class="cls-2" d="M832.24,832.22c-.52-13.79-1-27.92-1.72-42.32,2.88.52,5.6,1,8.24,1.38a53,53,0,0,0,7.85.56,54,54,0,0,0,7.9-.56c2.58-.4,5.34-.86,8.18-1.38-.76,14.4-1.41,28.53-2,42.39s-.89,27.94-.89,42.36q0,41.18.33,71.44t.67,54.11c15.4,0,30.25-.17,44.39-.52a401.16,401.16,0,0,0,45.75-4,38,38,0,0,0-1.65,9.77,30.84,30.84,0,0,0,1.65,8.83c-10.05-.35-20.07-.48-30.08-.48H860.62c-9.67,0-19.68.13-30.09.48.67-13.5,1.19-27.21,1.72-41.14s.74-28.11.74-42.47V874.5q0-21.54-.74-42.28" transform="translate(-141.73 -399.59)"/><path class="cls-2" d="M1009.26,860a84.54,84.54,0,0,1,25.46-3.89,65.17,65.17,0,0,1,21.58,3.41,48.22,48.22,0,0,1,16.83,9.8,45.8,45.8,0,0,1,11,15.33,48.3,48.3,0,0,1,4,19.73q0,18.62-.76,37.07c-.45,12.24-.71,25.26-.71,39,0,2.6.07,5.38.15,8.31a24.55,24.55,0,0,0,1.5,7.83,14.92,14.92,0,0,0,3.72,5.71c1.65,1.58,4.1,2.3,7.4,2.3l3.42-.18,3.44-1.12v7.35a38.77,38.77,0,0,1-9,2.68,68,68,0,0,1-12.08,1q-10.65,0-16.24-5.45a22,22,0,0,1-6.65-14c-7.85,7.83-15.51,13.6-23.11,17.28s-16.92,5.58-28,5.58a56.06,56.06,0,0,1-15.94-2.32,36.67,36.67,0,0,1-13.87-7.52,41.68,41.68,0,0,1-9.79-12.54,36.91,36.91,0,0,1-3.68-16.83c0-13.06,4-23.23,12.2-30.41s19.42-11.94,33.74-14.36c11.76-1.94,21-3.63,27.59-5.06s11.51-2.86,14.66-4.42,5.09-3.33,5.69-5.4a26.54,26.54,0,0,0,1-8,64.49,64.49,0,0,0-1.92-15.67,35.91,35.91,0,0,0-6.28-13.07,30.7,30.7,0,0,0-11.07-9c-4.58-2.28-10.12-3.41-16.65-3.41a51.47,51.47,0,0,0-24.33,5.88,38.78,38.78,0,0,0-16.83,16.31h-3.56V875q14.67-11.08,27.11-15m40.64,76.43c-4.88.87-9.82,1.78-14.78,2.76a142.71,142.71,0,0,0-14.85,3.77,47.31,47.31,0,0,0-13.07,6.23,30.23,30.23,0,0,0-9.12,9.77c-2.25,3.94-3.42,8.93-3.42,15.06,0,10.21,3,17.94,8.83,23.18s12.37,7.83,19.55,7.83a39.82,39.82,0,0,0,22.67-6.83,51.53,51.53,0,0,0,15.83-16l1.27-49a79,79,0,0,1-12.9,3.28" transform="translate(-141.73 -399.59)"/><path class="cls-2" d="M1269.87,967.46a82.92,82.92,0,0,1-15.7,26.89,67.55,67.55,0,0,1-23.56,17.31,71.23,71.23,0,0,1-29.25,6.08,59.28,59.28,0,0,1-28.26-6.72c-8.42-4.46-14.82-9.87-19.14-16.18-7.83,6.31-15.18,12.63-21.93,18.94h-5.88c.44-5.24.76-11.55,1.08-18.94s.57-15.31.76-23.71.33-17,.45-25.64.15-16.78.15-24.18V862.13c0-7.39,0-15.48-.15-24.17s-.25-17.35-.45-25.83-.48-16.61-.76-24.35-.64-14.34-1.08-19.76a74.59,74.59,0,0,0,14.7,1.94,51.45,51.45,0,0,0,7.53-.56c2.64-.42,5.46-.84,8.5-1.38-.67,4.34-1.24,11.28-1.67,20.76s-.74,20-.94,31.71-.43,23.61-.67,35.94-.48,23.49-.68,33.48h.68q11.06-17.52,24.54-25.65t31.05-8.13q17,0,29.42,6.35a61.09,61.09,0,0,1,20.62,16.85,70.92,70.92,0,0,1,12.25,24.29,107.12,107.12,0,0,1-1.61,63.85m-26.78-62.2a63.73,63.73,0,0,0-9.82-19.49,41.2,41.2,0,0,0-14.09-11.92,36,36,0,0,0-16.48-4.11,51.83,51.83,0,0,0-19.51,3.76A39.43,39.43,0,0,0,1167,885.92c-4.55,5.8-8.22,13.32-10.94,22.58s-4.09,20.67-4.09,34.21q0,65.73,47.79,65.77a34.05,34.05,0,0,0,18.67-5.42,48.43,48.43,0,0,0,14.87-15.53,84.73,84.73,0,0,0,10-24.17,126.42,126.42,0,0,0,3.6-31.42,86.06,86.06,0,0,0-3.76-26.67" transform="translate(-141.73 -399.59)"/><polygon class="cls-2" points="457.22 302.43 474.56 299.83 486.72 290.72 492.36 268.58 503.22 239.06 491.99 218.84 477.03 209.65 460.23 198.61 441.52 176.6 420.93 161.89 394.81 139.84 396.98 135.95 430.27 158.27 445.24 171.11 445.24 150.91 437.8 134.39 430.27 117.82 420.81 105.15 427.33 99.53 439.64 116.01 443.38 125.17 450.86 123.32 450.86 110.47 449 95.81 444.68 86.75 450.31 84.89 458.35 103.11 458.93 116.82 458.51 126.82 454.63 132.53 456.47 152.72 454.63 167.43 458.35 176.6 463.93 185.77 471.4 165.61 478.93 121.5 471.4 95.81 474.14 75.66 484.51 73.77 484.51 88.46 490.11 117.82 490.11 130.67 488.24 145.38 486.4 163.76 478.93 180.28 490.11 193.13 499.46 183.95 499.46 163.76 492.36 73.04 497.1 72.63 506.94 167.43 512.54 141.7 515.35 120.34 509.23 107.75 508.39 98.66 507.07 72.17 523.14 73.49 518.17 101.3 523.74 127.04 553.94 83.03 562.58 87.81 529.42 134.39 506.94 187.63 505.08 204.15 514.4 204.15 531.24 171.11 534.99 145.38 544.33 136.21 551.17 128.68 576.49 97.36 584.3 102.99 559.3 134.39 599 119.46 604.63 127.28 551.82 147.23 544.33 156.41 544.33 174.79 536.87 193.13 531.24 204.15 551.82 191.31 557.39 174.79 610.75 138.98 612.43 142.43 563.07 182.1 615.91 149.83 617.24 154.14 566.76 193.13 548.05 205.99 536.87 218.84 538.76 239.06 536.87 257.42 542.47 273.96 551.82 283.16 563.07 288.62 579.86 284.95 563.07 295.98 542.64 305.89 533.11 290.49 521.4 311.1 508.83 311.96 518.17 288.62 481.94 310.21 457.22 302.43"/><path class="cls-1" d="M832.94,591.59c0,103.85-84.18,188-188,188s-188-84.19-188-188,84.17-188,188-188S832.94,487.79,832.94,591.59Z" transform="translate(-141.73 -399.59)"/><rect class="cls-3" y="0.01" width="1133.86" height="618.14"/><path class="cls-4" d="M818.9,591.59a173.94,173.94,0,0,1-347.89,0c0-96.07,77.89-173.87,173.94-173.87S818.9,495.52,818.9,591.59Z" transform="translate(-141.73 -399.59)"/><rect class="cls-3" width="1133.86" height="618.14"/><text class="cls-5" transform="matrix(-0.91, -0.4, 0.4, -0.92, 448.97, 323.36)"> </text><text class="cls-6" transform="matrix(-0.9, -0.44, 0.44, -0.9, 444.56, 321.45)">•</text><text class="cls-5" transform="translate(439.83 319.15) rotate(-152.21)"> </text><text class="cls-5" transform="matrix(-0.87, -0.5, 0.5, -0.87, 435.46, 316.85)"> </text><text class="cls-5" transform="translate(431.14 314.48) rotate(-147.03)">S</text><text class="cls-5" transform="translate(422.07 308.71) rotate(-141.9)">U</text><text class="cls-5" transform="translate(410.48 299.66) rotate(-135.91)">N</text><text class="cls-5" transform="translate(399.65 289.16) rotate(-130)">D</text><text class="cls-5" transform="matrix(-0.56, -0.83, 0.83, -0.56, 390.43, 278.22)">H</text><text class="cls-5" transform="translate(382.13 265.83) rotate(-118.79)">E</text><text class="cls-5" transform="translate(376.61 255.96) rotate(-113.58)">D</text><text class="cls-5" transform="translate(370.99 242.7) rotate(-109.67)"> </text><text class="cls-5" transform="translate(369.9 239.72) rotate(-108.38)"> </text><text class="cls-6" transform="matrix(-0.27, -0.96, 0.96, -0.27, 368.31, 235.03)">•</text><text class="cls-5" transform="translate(366.34 228.01) rotate(-103.44)"> </text><text class="cls-5" transform="translate(365.18 223.18) rotate(-101.44)"> </text><text class="cls-5" transform="matrix(-0.14, -0.99, 0.99, -0.14, 364.13, 218.41)">L</text><text class="cls-5" transform="translate(362.6 207.45) rotate(-94.92)">I</text><text class="cls-5" transform="matrix(-0.02, -1, 1, -0.02, 361.98, 201.62)">V</text><text class="cls-5" transform="matrix(0.04, -1, 1, 0.04, 361.84, 188.69)"> </text><text class="cls-6" transform="translate(362.03 183.74) rotate(-85.42)"> </text><text class="cls-6" transform="translate(362.47 178.07) rotate(-82.79)">•</text><text class="cls-5" transform="translate(363.41 170.81) rotate(-80.3)"> </text><text class="cls-5" transform="translate(364.24 165.91) rotate(-78.28)"> </text><text class="cls-5" transform="translate(364.77 162.85) rotate(-75.81)">S</text><text class="cls-5" transform="translate(367.31 152.4) rotate(-70.64)">U</text><text class="cls-5" transform="translate(372.15 138.53) rotate(-64.63)">N</text><text class="cls-5" transform="translate(378.62 124.9) rotate(-58.7)">D</text><text class="cls-5" transform="translate(386.04 112.64) rotate(-52.83)">H</text><text class="cls-5" transform="translate(395.11 100.8) rotate(-47.55)">E</text><text class="cls-5" transform="matrix(0.74, -0.67, 0.67, 0.74, 402.67, 92.41)">D</text><text class="cls-5" transform="translate(413.43 82.8) rotate(-38.47)"> </text><text class="cls-5" transform="matrix(0.79, -0.6, 0.6, 0.8, 415.88, 80.83)"> </text><text class="cls-6" transform="translate(419.81 77.81) rotate(-34.7)">•</text><text class="cls-5" transform="translate(425.82 73.67) rotate(-32.21)"> </text><text class="cls-5" transform="matrix(0.86, -0.5, 0.5, 0.86, 430.02, 71.02)"> </text><text class="cls-5" transform="matrix(0.89, -0.45, 0.45, 0.89, 434.22, 68.48)">L</text><text class="cls-5" transform="matrix(0.91, -0.4, 0.4, 0.92, 444.08, 63.55)">I</text><text class="cls-5" transform="matrix(0.94, -0.33, 0.34, 0.94, 449.4, 61.1)">V</text><text class="cls-5" transform="translate(461.62 56.88) rotate(-15.98)"> </text><text class="cls-5" transform="matrix(0.96, -0.25, 0.25, 0.97, 464.68, 55.98)"> </text><text class="cls-6" transform="translate(469.43 54.71) rotate(-12.2)">•</text><text class="cls-5" transform="translate(476.6 53.18) rotate(-9.72)"> </text><text class="cls-5" transform="matrix(0.99, -0.13, 0.13, 0.99, 481.49, 52.34)"> </text><text class="cls-5" transform="matrix(0.99, -0.08, 0.08, 1, 486.33, 51.6)">S</text><text class="cls-5" transform="translate(497.03 50.64) rotate(0.54)">U</text><text class="cls-5" transform="translate(511.73 50.75) rotate(6.61)">N</text><text class="cls-5" transform="translate(526.73 52.49) rotate(12.63)">D</text><text class="cls-5" transform="matrix(0.95, 0.32, -0.32, 0.95, 540.69, 55.59)">H</text><text class="cls-5" transform="translate(554.8 60.41) rotate(23.92)">E</text><text class="cls-5" transform="matrix(0.87, 0.49, -0.49, 0.87, 565.16, 64.92)">D</text><text class="cls-5" transform="matrix(0.84, 0.54, -0.54, 0.84, 577.68, 72.06)"> </text><text class="cls-6" transform="matrix(0.82, 0.56, -0.57, 0.82, 580.35, 73.77)"> </text><text class="cls-6" transform="translate(585.06 76.97) rotate(37.05)">•</text><text class="cls-5" transform="matrix(0.77, 0.63, -0.64, 0.77, 590.89, 81.4)"> </text><text class="cls-5" transform="translate(593.36 83.41) rotate(40.8)"> </text><text class="cls-5" transform="translate(597.12 86.54) rotate(44)">L</text><text class="cls-5" transform="matrix(0.67, 0.73, -0.74, 0.68, 605, 94.25)">I</text><text class="cls-5" transform="translate(609.08 98.5) rotate(51.2)">V</text><text class="cls-5" transform="matrix(0.57, 0.81, -0.82, 0.58, 617.08, 108.65)"> </text><text class="cls-5" transform="matrix(0.55, 0.83, -0.84, 0.55, 619.94, 112.69)"> </text><text class="cls-6" transform="matrix(0.51, 0.86, -0.86, 0.51, 622.66, 116.81)">•</text><text class="cls-6" transform="matrix(0.47, 0.88, -0.88, 0.47, 626.38, 123.09)"> </text><text class="cls-5" transform="translate(629.07 128.15) rotate(64.1)"> </text><text class="cls-5" transform="translate(631.29 132.51) rotate(67.3)">S</text><text class="cls-5" transform="matrix(0.3, 0.95, -0.95, 0.3, 635.53, 142.4)">U</text><text class="cls-5" transform="translate(639.98 156.4) rotate(78.46)">N</text><text class="cls-5" transform="matrix(0.1, 0.99, -1, 0.1, 643, 171.2)">D</text><text class="cls-5" transform="matrix(0, 1, -1, 0, 644.45, 185.45)">H</text><text class="cls-5" transform="matrix(-0.09, 0.99, -1, -0.09, 644.35, 200.35)">E</text><text class="cls-5" transform="translate(643.36 211.6) rotate(100.62)">D</text><text class="cls-5" transform="matrix(-0.25, 0.97, -0.97, -0.25, 640.55, 225.75)"> </text><text class="cls-5" transform="matrix(-0.28, 0.96, -0.96, -0.29, 639.3, 230.56)"> </text><text class="cls-6" transform="translate(637.93 235.28) rotate(109.04)">•</text><text class="cls-5" transform="translate(635.52 242.19) rotate(111.52)"> </text><text class="cls-5" transform="translate(633.7 246.8) rotate(113.53)"> </text><text class="cls-5" transform="matrix(-0.45, 0.89, -0.89, -0.45, 631.83, 251.33)">L</text><text class="cls-5" transform="matrix(-0.5, 0.86, -0.86, -0.5, 626.8, 261.15)">I</text><text class="cls-5" transform="translate(623.95 266.31) rotate(123.94)">V</text><text class="cls-5" transform="matrix(-0.61, 0.79, -0.79, -0.61, 616.64, 276.95)"> </text><text class="cls-5" transform="translate(613.62 280.89) rotate(129.51)"> </text><text class="cls-6" transform="translate(610.51 284.7) rotate(131.97)">•</text><text class="cls-5" transform="matrix(-0.69, 0.72, -0.72, -0.69, 606.99, 288.63)"> </text><text class="cls-5" transform="translate(603.59 292.21) rotate(135.61)"> </text><text class="cls-5" transform="matrix(-0.75, 0.66, -0.66, -0.75, 600.15, 295.7)">S</text><text class="cls-5" transform="matrix(-0.81, 0.59, -0.59, -0.81, 592.13, 302.86)">U</text><text class="cls-5" transform="matrix(-0.86, 0.5, -0.5, -0.87, 580.24, 311.54)">N</text><text class="cls-5" transform="translate(567.18 319.07) rotate(156.04)">D</text><text class="cls-5" transform="translate(554.11 324.91) rotate(162)">H</text><text class="cls-5" transform="matrix(-0.97, 0.22, -0.22, -0.98, 539.91, 329.45)">E</text><text class="cls-5" transform="matrix(-0.99, 0.13, -0.13, -0.99, 528.89, 331.97)">D</text><text class="cls-5" transform="translate(514.58 333.73) rotate(176.35)"> </text><text class="cls-5" transform="translate(509.64 334.05) rotate(178.35)"> </text><text class="cls-6" transform="matrix(-1, -0.01, 0.01, -1, 504.72, 334.22)">•</text><text class="cls-5" transform="translate(497.4 334.09) rotate(-176.67)"> </text><text class="cls-5" transform="matrix(-0.99, -0.09, 0.09, -1, 492.45, 333.8)"> </text><text class="cls-5" transform="translate(487.57 333.44) rotate(-171.38)">L</text><text class="cls-5" transform="matrix(-0.98, -0.21, 0.21, -0.98, 476.68, 331.72)">I</text><text class="cls-5" transform="translate(470.91 330.61) rotate(-164.08)">V</text><text class="cls-5" transform="translate(458.53 326.95) rotate(-160.45)"> </text></svg>