<?xml version="1.0" encoding="utf-8"?>
<!-- Generator: Adobe Illustrator 22.1.0, SVG Export Plug-In . SVG Version: 6.00 Build 0)  -->
<!DOCTYPE svg PUBLIC "-//W3C//DTD SVG 1.1//EN" "http://www.w3.org/Graphics/SVG/1.1/DTD/svg11.dtd">
<svg version="1.1" id="Layer_1" xmlns="http://www.w3.org/2000/svg" xmlns:xlink="http://www.w3.org/1999/xlink" x="0px" y="0px"
	 viewBox="0 0 70 70" style="enable-background:new 0 0 70 70;" xml:space="preserve">
<style type="text/css">
	.st0{fill:#FBBB86;}
	.st1{fill:none;stroke:#FFFFFF;stroke-width:1.6052;stroke-linecap:round;stroke-linejoin:round;stroke-miterlimit:10;}
	.st2{fill:#FFFFFF;}
</style>
<g>
	<ellipse class="st0" cx="35" cy="35" rx="34.5" ry="34.5"/>
	<g>
		<path class="st1" d="M36.9,36.4"/>
		<path class="st2" d="M32.7,50.3c-0.2,0-0.4,0-0.6,0c-4.8-0.2-9.3-2.2-12.6-5.7c-0.3-0.3-0.3-0.8,0-1.1l2.5-2.4
			c0.2-0.1,0.4-0.2,0.6-0.2s0.4,0.1,0.5,0.3c2.4,2.5,5.6,4,9.1,4.1s6.8-1.1,9.3-3.5s4-5.6,4.1-9.1s-1.1-6.8-3.5-9.3
			c0-0.2-0.1-0.4-0.1-0.6s0.1-0.4,0.3-0.5l2.5-2.4c0.3-0.3,0.8-0.3,1.1,0c3.3,3.5,5,8.1,4.8,12.9s-2.2,9.3-5.7,12.6
			C41.6,48.6,37.3,50.3,32.7,50.3z M21.2,44c6.2,6.1,16.3,6.3,22.7,0.3c3.2-3,5.1-7.1,5.2-11.5c0.1-4.1-1.2-8.1-3.9-11.2l-1.4,1.3
			c2.3,2.8,3.5,6.2,3.4,9.9c-0.1,3.9-1.8,7.5-4.6,10.2c-2.9,2.7-6.6,4.1-10.5,3.9c-3.6-0.1-7-1.6-9.6-4.1L21.2,44z"/>
		<path class="st2" d="M23,42.2l-0.7-0.7c0.2-0.2,0.2-0.3,0.3-0.5c0.1-0.2,0.2-0.5,0.6-0.9c0.4-0.3,0.7-0.4,0.9-0.5
			c0.2-0.1,0.3-0.1,0.5-0.3s0.2-0.3,0.3-0.5c0.1-0.2,0.2-0.5,0.6-0.9c0.4-0.3,0.7-0.4,0.9-0.5c0.2-0.1,0.3-0.1,0.5-0.3
			s0.2-0.3,0.3-0.5c0.1-0.2,0.2-0.5,0.6-0.9c0.4-0.3,0.7-0.4,0.9-0.5c0.2-0.1,0.3-0.1,0.5-0.3s0.2-0.3,0.3-0.5
			c0.1-0.2,0.2-0.5,0.6-0.9s0.7-0.4,0.9-0.5c0.2-0.1,0.3-0.1,0.5-0.3s0.2-0.3,0.3-0.5c0.1-0.2,0.2-0.5,0.6-0.9
			c0.4-0.3,0.7-0.4,0.9-0.5s0.3-0.1,0.5-0.3c0.2-0.2,0.2-0.3,0.3-0.5s0.2-0.5,0.6-0.9c0.4-0.3,0.7-0.4,0.9-0.5s0.3-0.1,0.5-0.3
			c0.2-0.2,0.2-0.3,0.3-0.5s0.2-0.5,0.5-0.9c0.4-0.3,0.7-0.4,0.9-0.5s0.3-0.1,0.5-0.3c0.2-0.2,0.2-0.3,0.3-0.5s0.2-0.5,0.6-0.9
			c0.4-0.3,0.7-0.4,0.9-0.5s0.3-0.1,0.5-0.3c0.2-0.2,0.2-0.3,0.3-0.5s0.2-0.5,0.6-0.9c0.4-0.3,0.7-0.4,0.9-0.5s0.3-0.1,0.5-0.3
			l0.7,0.7c-0.4,0.3-0.7,0.4-0.9,0.5s-0.3,0.1-0.5,0.3c-0.2,0.2-0.2,0.3-0.3,0.5s-0.2,0.5-0.6,0.9c-0.4,0.3-0.7,0.4-0.9,0.5
			s-0.3,0.1-0.5,0.3c-0.2,0.2-0.2,0.3-0.3,0.5s-0.2,0.5-0.6,0.9c-0.4,0.3-0.7,0.4-0.9,0.5s-0.3,0.1-0.5,0.3
			c-0.2,0.2-0.2,0.3-0.3,0.5s-0.2,0.5-0.6,0.9c-0.4,0.3-0.7,0.4-0.9,0.5s-0.3,0.1-0.5,0.3c-0.2,0.2-0.2,0.3-0.3,0.5
			s-0.2,0.5-0.6,0.9c-0.4,0.3-0.7,0.4-0.9,0.5S33.2,31.8,33,32s-0.2,0.3-0.3,0.5s-0.2,0.5-0.6,0.9c-0.4,0.3-0.7,0.4-0.9,0.5
			C31,34,30.9,34,30.7,34.2s-0.2,0.3-0.3,0.5c-0.1,0.2-0.2,0.5-0.6,0.9c-0.4,0.3-0.7,0.4-0.9,0.5c-0.2,0.1-0.3,0.1-0.5,0.3
			s-0.2,0.3-0.3,0.5c-0.1,0.2-0.2,0.5-0.6,0.9c-0.4,0.3-0.7,0.4-0.9,0.5c-0.2,0.1-0.3,0.1-0.5,0.3s-0.2,0.3-0.3,0.5
			c-0.1,0.2-0.2,0.5-0.6,0.9c-0.4,0.3-0.7,0.4-0.9,0.5c-0.2,0.1-0.3,0.1-0.5,0.3s-0.2,0.3-0.3,0.5C23.5,41.5,23.4,41.8,23,42.2z"/>
	</g>
</g>
</svg>
