<?xml version="1.0" encoding="utf-8"?>
<!-- Generator: Adobe Illustrator 22.1.0, SVG Export Plug-In . SVG Version: 6.00 Build 0)  -->
<!DOCTYPE svg PUBLIC "-//W3C//DTD SVG 1.1//EN" "http://www.w3.org/Graphics/SVG/1.1/DTD/svg11.dtd">
<svg version="1.1" id="Layer_1" xmlns="http://www.w3.org/2000/svg" xmlns:xlink="http://www.w3.org/1999/xlink" x="0px" y="0px"
	 viewBox="0 0 70 70" style="enable-background:new 0 0 70 70;" xml:space="preserve">
<style type="text/css">
	.st0{fill:#F399C1;}
	.st1{fill:#FFFFFF;}
</style>
<g>
	<circle class="st0" cx="35" cy="35" r="34.5"/>
	<path class="st1" d="M49.4,21.6c0.8,0,1.5,0.3,2,0.8c0.6,0.6,0.8,1.2,0.8,2v21.1c0,0.8-0.3,1.5-0.8,2c-0.6,0.6-1.2,0.8-2,0.8H20.6
		c-0.8,0-1.5-0.3-2-0.8c-0.6-0.6-0.8-1.2-0.8-2v-21c0-0.8,0.3-1.5,0.8-2s1.2-0.8,2-0.8h28.8V21.6z M20.6,23.5
		c-0.3,0-0.5,0.1-0.7,0.3s-0.3,0.4-0.3,0.7v2.9h30.7v-2.9c0-0.3-0.1-0.5-0.3-0.7s-0.4-0.3-0.7-0.3H20.6z M49.4,46.5
		c0.3,0,0.5-0.1,0.7-0.3s0.3-0.4,0.3-0.7V33.1H19.7v12.5c0,0.3,0.1,0.5,0.3,0.7s0.4,0.3,0.7,0.3L49.4,46.5L49.4,46.5z M29.2,41.5
		c0-0.2-0.1-0.4-0.2-0.5s-0.3-0.2-0.5-0.2h-4.3c-0.2,0-0.4,0.1-0.5,0.2c-0.1,0.1-0.2,0.3-0.2,0.5V42c0,0.2,0.1,0.4,0.2,0.5
		s0.3,0.2,0.5,0.2h4.3c0.2,0,0.4-0.1,0.5-0.2c0.1-0.1,0.2-0.3,0.2-0.5V41.5z M40.8,41.5c0-0.2-0.1-0.4-0.2-0.5
		c-0.1-0.1-0.3-0.2-0.5-0.2H32c-0.2,0-0.4,0.1-0.5,0.2c-0.1,0.1-0.2,0.3-0.2,0.5V42c0,0.2,0.1,0.4,0.2,0.5s0.3,0.2,0.5,0.2h8
		c0.2,0,0.4-0.1,0.5-0.2c0.1-0.1,0.2-0.3,0.2-0.5L40.8,41.5L40.8,41.5z"/>
</g>
</svg>
