<?xml version="1.0" encoding="utf-8"?>
<!-- Generator: Adobe Illustrator 22.1.0, SVG Export Plug-In . SVG Version: 6.00 Build 0)  -->
<!DOCTYPE svg PUBLIC "-//W3C//DTD SVG 1.1//EN" "http://www.w3.org/Graphics/SVG/1.1/DTD/svg11.dtd">
<svg version="1.1" id="Layer_1" xmlns="http://www.w3.org/2000/svg" xmlns:xlink="http://www.w3.org/1999/xlink" x="0px" y="0px"
	 viewBox="0 0 70 70" style="enable-background:new 0 0 70 70;" xml:space="preserve">
<style type="text/css">
	.st0{fill:#F399C1;}
	.st1{fill:#FFFFFF;}
</style>
<g>
	<g>
		<circle class="st0" cx="35" cy="35" r="34.5"/>
	</g>
	<g>
		<path class="st1" d="M35.4,29h-0.7c-0.8,0-1.2,0.5-1.2,1.2v17.9c0,0.8,0.5,1.2,1.2,1.2h0.7c0.8,0,1.2-0.4,1.2-1.2V30.2
			C36.6,29.5,36.1,29,35.4,29z"/>
		<path class="st1" d="M35.5,21.1h-1c-0.8,0-1.2,0.4-1.2,1.2v1.4c0,0.8,0.4,1.2,1.2,1.2h1c0.8,0,1.2-0.4,1.2-1.2v-1.4
			C36.7,21.6,36.3,21.1,35.5,21.1z"/>
	</g>
</g>
</svg>
