<?xml version="1.0" encoding="utf-8"?>
<!-- Generator: Adobe Illustrator 22.0.1, SVG Export Plug-In . SVG Version: 6.00 Build 0)  -->
<!DOCTYPE svg PUBLIC "-//W3C//DTD SVG 1.1//EN" "http://www.w3.org/Graphics/SVG/1.1/DTD/svg11.dtd">
<svg version="1.1" id="Layer_1" xmlns="http://www.w3.org/2000/svg" xmlns:xlink="http://www.w3.org/1999/xlink" x="0px" y="0px"
	 viewBox="0 0 30 34" style="enable-background:new 0 0 30 34;" xml:space="preserve">
<style type="text/css">
	.st0{fill:#231F20;}
</style>
<g>
	<path class="st0" d="M23.8,8.2h3c1.9,0,3.4,1.5,3.4,3.4v16.8c0,1.5-0.5,2.7-1.6,3.8c-1,1-2.3,1.6-3.8,1.6H5.6
		c-1.5,0-2.7-0.5-3.8-1.6c-1-1-1.6-2.3-1.6-3.8V11.6c0-1.9,1.5-3.4,3.4-3.4h3c0-1.5,0.4-3,1.1-4.3s1.8-2.3,3.1-3.1
		c1.3-0.8,2.8-1.1,4.3-1.1c1.6,0,3,0.4,4.3,1.1c1.3,0.8,2.4,1.8,3.1,3.1C23.4,5.2,23.8,6.7,23.8,8.2z M28.1,28.3l0-16
		c0-1.1-0.9-2-2-2h-2.3v3.2c0,0.3-0.1,0.6-0.3,0.8c-0.2,0.2-0.5,0.3-0.8,0.3s-0.6-0.1-0.8-0.3c-0.2-0.2-0.3-0.5-0.3-0.8v-3.2H8.8
		v3.2c0,0.3-0.1,0.6-0.3,0.8c-0.2,0.2-0.5,0.3-0.8,0.3s-0.6-0.1-0.8-0.3c-0.2-0.2-0.3-0.5-0.3-0.8v-3.2H4.4c-1.1,0-2,0.9-2,2l0,16
		c0,0.8,0.3,1.6,0.9,2.2c0.6,0.7,1.4,1,2.4,1h19.3c0.9,0,1.7-0.3,2.4-1C27.8,30,28.1,29.2,28.1,28.3z M15.2,1.8
		c-1.8,0-3.3,0.6-4.6,1.9C9.4,4.9,8.8,6.4,8.8,8.2h12.9c0-1.8-0.6-3.3-1.9-4.5C18.5,2.5,17,1.8,15.2,1.8z"/>
</g>
</svg>
