<?xml version="1.0" encoding="utf-8"?>
<!-- Generator: Adobe Illustrator 22.0.1, SVG Export Plug-In . SVG Version: 6.00 Build 0)  -->
<!DOCTYPE svg PUBLIC "-//W3C//DTD SVG 1.1//EN" "http://www.w3.org/Graphics/SVG/1.1/DTD/svg11.dtd">
<svg version="1.1" id="Layer_1" xmlns="http://www.w3.org/2000/svg" xmlns:xlink="http://www.w3.org/1999/xlink" x="0px" y="0px"
	 viewBox="0 0 70 70" style="enable-background:new 0 0 70 70;" xml:space="preserve">
<style type="text/css">
	.st0{fill-rule:evenodd;clip-rule:evenodd;fill:#FBBB86;}
	.st1{fill:#FFFFFF;}
</style>
<g>
	<g>
		<g>
			<circle class="st0" cx="35" cy="35" r="34.5"/>
		</g>
	</g>
	<path class="st1" d="M34.9,25.1c0,0.1,0.1,0.2,0.1,0.2l0,0l0.1,0.2l0.1,0.1l0,0.1c1.5,3,3.8,6.1,5.6,8.5c0.9,1.2,2,2.7,2.2,3.1
		l0,0.1l0,0.1c0.5,1.2,0.8,2.4,0.8,3.7c0,5-4.1,9-9,9c-5,0-9-4.1-9-9c0-1.2,0.2-2.4,0.7-3.6l0-0.1l0-0.1c0.2-0.4,1.3-1.8,2.1-2.9
		c1.9-2.4,4.5-5.8,5.9-8.9l0.1-0.2l0-0.1C34.8,25.3,34.9,25.2,34.9,25.1 M34.9,18.5L34.9,18.5L34.9,18.5c0,0-1,4-2,6.1
		c0,0.1-0.1,0.1-0.1,0.2c0,0,0,0,0,0c-2.2,4.9-7.6,10.4-8.1,12c-0.6,1.3-0.9,2.8-0.9,4.4c0,6.1,5,11.1,11.1,11.1S46,47.3,46,41.2
		c0-1.6-0.4-3.1-1-4.5c-0.5-1.5-5.6-7.1-8-12c0,0,0-0.1-0.1-0.1c0,0,0,0,0,0C35.9,22.4,34.9,18.5,34.9,18.5L34.9,18.5z"/>
</g>
</svg>
