<?xml version="1.0" encoding="utf-8"?>
<!-- Generator: Adobe Illustrator 22.0.1, SVG Export Plug-In . SVG Version: 6.00 Build 0)  -->
<!DOCTYPE svg PUBLIC "-//W3C//DTD SVG 1.1//EN" "http://www.w3.org/Graphics/SVG/1.1/DTD/svg11.dtd">
<svg version="1.1" id="Layer_1" xmlns="http://www.w3.org/2000/svg" xmlns:xlink="http://www.w3.org/1999/xlink" x="0px" y="0px"
	 viewBox="0 0 70 70" style="enable-background:new 0 0 70 70;" xml:space="preserve">
<style type="text/css">
	.st0{fill-rule:evenodd;clip-rule:evenodd;fill:#E2E999;}
	.st1{fill:#FFFFFF;}
</style>
<g>
	<circle class="st0" cx="35" cy="35" r="34.5"/>
	<g>
		<path class="st1" d="M38.4,24.3c-2.1-1.2-4.7-1.2-6.8,0c-1,0.6-1.9,1.4-2.5,2.5c-0.6,1-0.9,2.2-0.9,3.4v2h-0.1
			c-0.7,0-1.2,0.2-1.7,0.7c-0.5,0.5-0.7,1-0.7,1.7v6.8l2.3-2.6v-4.3l0.1-0.1h3.8l2-2.3h-3.4v-2c0-0.8,0.2-1.6,0.6-2.3
			c0.4-0.7,0.9-1.2,1.6-1.6c1.4-0.8,3.2-0.8,4.6,0c0.4,0.2,0.7,0.5,1,0.8l1.5-1.7C39.4,25,38.9,24.6,38.4,24.3z"/>
		<path class="st1" d="M41.9,32.2h-0.1v-2c0,0,0,0,0,0L38,34.4h3.9l0.1,0.1l0,7.7c0,0,0,0-0.1,0H31.1l-2,2.3h12.8
			c0.7,0,1.2-0.2,1.7-0.7c0.5-0.5,0.7-1,0.7-1.7v-7.6c0-0.7-0.2-1.2-0.7-1.7C43.2,32.4,42.6,32.2,41.9,32.2z"/>
		<path class="st1" d="M35,15.8c-10.3,0-18.7,8.4-18.7,18.7c0,10.3,8.4,18.7,18.7,18.7c10.3,0,18.7-8.4,18.7-18.7
			C53.7,24.2,45.3,15.8,35,15.8z M18.3,34.5c0-9.2,7.5-16.7,16.7-16.7c3.8,0,7.3,1.3,10.1,3.4l-22,24.9C20.1,43.2,18.3,39,18.3,34.5
			z M35,51.2c-3.9,0-7.6-1.4-10.4-3.7l22-25c3.1,3,5.1,7.3,5.1,12C51.7,43.7,44.2,51.2,35,51.2z"/>
	</g>
</g>
</svg>
