<?xml version="1.0" encoding="utf-8"?>
<!-- Generator: Adobe Illustrator 22.1.0, SVG Export Plug-In . SVG Version: 6.00 Build 0)  -->
<!DOCTYPE svg PUBLIC "-//W3C//DTD SVG 1.1//EN" "http://www.w3.org/Graphics/SVG/1.1/DTD/svg11.dtd">
<svg version="1.1" id="Layer_1" xmlns="http://www.w3.org/2000/svg" xmlns:xlink="http://www.w3.org/1999/xlink" x="0px" y="0px"
	 viewBox="0 0 70 70" style="enable-background:new 0 0 70 70;" xml:space="preserve">
<style type="text/css">
	.st0{fill:#FBBB86;}
	.st1{fill:#FFFFFF;}
</style>
<g>
	<circle class="st0" cx="35" cy="35" r="34.5"/>
	<g>
		<path class="st1" d="M46.2,24.2c-1.2-2-2.7-3.5-4.7-4.7s-4.1-1.8-6.5-1.8c-2.3,0-4.5,0.6-6.5,1.8c-2,1.2-3.5,2.7-4.7,4.7
			S22,28.3,22,30.7c0,1.4,0.2,2.7,0.5,3.8c0.4,1.1,1.1,2.5,2.1,4.1c0.7,1.1,2.2,3.3,4.4,6.5l4.5,6.5c0.3,0.4,0.8,0.7,1.3,0.7
			s1-0.2,1.3-0.7l4.5-6.5c2.2-3.2,3.7-5.4,4.4-6.5c1-1.6,1.7-3,2.1-4.1c0.4-1.1,0.5-2.4,0.5-3.8C47.9,28.4,47.4,26.2,46.2,24.2z
			 M45.3,33.9c-0.3,0.9-0.9,2.1-1.9,3.7c-0.7,1-2.1,3-4.2,6.1l-4.2,6c-1.1-1.6-2.5-3.6-4.2-6c-2.2-3.1-3.6-5.1-4.2-6.1
			c-0.9-1.5-1.6-2.8-1.9-3.7s-0.5-2-0.5-3.2c0-1.4,0.3-2.8,0.8-4.1c0.5-1.3,1.3-2.5,2.4-3.5c1-1,2.2-1.8,3.5-2.4
			c1.3-0.5,2.7-0.8,4.1-0.8c1.4,0,2.8,0.3,4.1,0.8s2.5,1.3,3.5,2.4c1,1,1.8,2.2,2.4,3.5c0.5,1.3,0.8,2.7,0.8,4.1
			C45.8,31.9,45.6,33,45.3,33.9z"/>
		<ellipse class="st1" cx="35" cy="30.5" rx="5.6" ry="5.6"/>
	</g>
</g>
</svg>
