<?xml version="1.0" encoding="utf-8"?>
<!-- Generator: Adobe Illustrator 22.0.1, SVG Export Plug-In . SVG Version: 6.00 Build 0)  -->
<!DOCTYPE svg PUBLIC "-//W3C//DTD SVG 1.1//EN" "http://www.w3.org/Graphics/SVG/1.1/DTD/svg11.dtd">
<svg version="1.1" id="Layer_1" xmlns="http://www.w3.org/2000/svg" xmlns:xlink="http://www.w3.org/1999/xlink" x="0px" y="0px"
	 viewBox="0 0 70 70" style="enable-background:new 0 0 70 70;" xml:space="preserve">
<style type="text/css">
	.st0{fill-rule:evenodd;clip-rule:evenodd;fill:#FBBB86;}
	.st1{fill:#FFFFFF;}
</style>
<g>
	<circle class="st0" cx="35" cy="35" r="34.5"/>
	<path class="st1" d="M25.6,34.6c-4.3,0-7.9-3.5-7.9-7.9s3.5-7.9,7.9-7.9s7.9,3.5,7.9,7.9S30,34.6,25.6,34.6z M25.6,21.5
		c-2.9,0-5.2,2.4-5.2,5.2s2.4,5.2,5.2,5.2s5.2-2.4,5.2-5.2S28.5,21.5,25.6,21.5z"/>
	<path class="st1" d="M44.4,51.1c-4.3,0-7.9-3.5-7.9-7.9s3.5-7.9,7.9-7.9s7.9,3.5,7.9,7.9S48.7,51.1,44.4,51.1z M44.4,38
		c-2.9,0-5.2,2.4-5.2,5.2s2.4,5.2,5.2,5.2s5.2-2.4,5.2-5.2S47.3,38,44.4,38z"/>
	<path class="st1" d="M23,50.4L23,50.4c-0.6-0.4-0.7-1.3-0.2-1.8l22.4-28.8c0.4-0.6,1.3-0.7,1.8-0.2v0c0.6,0.4,0.7,1.3,0.2,1.8
		L24.9,50.1C24.4,50.7,23.6,50.8,23,50.4z"/>
</g>
</svg>
