<?xml version="1.0" encoding="utf-8"?>
<!-- Generator: Adobe Illustrator 22.1.0, SVG Export Plug-In . SVG Version: 6.00 Build 0)  -->
<!DOCTYPE svg PUBLIC "-//W3C//DTD SVG 1.1//EN" "http://www.w3.org/Graphics/SVG/1.1/DTD/svg11.dtd">
<svg version="1.1" id="Layer_1" xmlns="http://www.w3.org/2000/svg" xmlns:xlink="http://www.w3.org/1999/xlink" x="0px" y="0px"
	 viewBox="0 0 70 70" style="enable-background:new 0 0 70 70;" xml:space="preserve">
<style type="text/css">
	.st0{fill-rule:evenodd;clip-rule:evenodd;fill:#F399C1;}
	.st1{fill:#FFFFFF;}
</style>
<g>
	<circle class="st0" cx="35" cy="35" r="35"/>
	<path class="st1" d="M48.8,22.2c0.9,0,1.6,0.3,2.3,0.9c0.6,0.6,0.9,1.4,0.9,2.3v19.1c0,0.9-0.3,1.6-0.9,2.3
		c-0.6,0.6-1.4,0.9-2.3,0.9H21.2c-0.9,0-1.6-0.3-2.3-0.9c-0.6-0.6-0.9-1.4-0.9-2.3V25.4c0-0.9,0.3-1.6,0.9-2.3
		c0.6-0.6,1.4-0.9,2.3-0.9H48.8z M21.2,24.4c-0.3,0-0.6,0.1-0.8,0.3c-0.2,0.2,4.6,3.6,9.7,7.7l0.6,0.5c0.9,0.8,1.6,1.3,2.1,1.6
		c0.8,0.6,1.6,0.9,2.1,0.9s1.3-0.3,2.1-0.9c0.5-0.3,1.2-0.8,2.1-1.6l0.7-0.5c5.1-4.1,9.9-7.5,9.7-7.7c-0.2-0.2-0.5-0.3-0.8-0.3H21.2
		z M48.8,45.6c0.3,0,0.6-0.1,0.8-0.3c0.2-0.2,0.3-0.5,0.3-0.8V27.1c-1.6,1.2-4.5,3.6-8.7,7l-0.7,0.5c-1.1,0.9-1.9,1.5-2.5,1.9
		c-1.1,0.7-2.1,1-3,1s-1.9-0.3-3-1c-0.7-0.4-1.5-1-2.5-1.9L28.8,34c-4.3-3.4-7.2-5.7-8.7-7v17.5c0,0.3,0.1,0.6,0.3,0.8
		c0.2,0.2,0.5,0.3,0.8,0.3H48.8z"/>
</g>
</svg>
