<?xml version="1.0" encoding="utf-8"?>
<!-- Generator: Adobe Illustrator 22.0.1, SVG Export Plug-In . SVG Version: 6.00 Build 0)  -->
<!DOCTYPE svg PUBLIC "-//W3C//DTD SVG 1.1//EN" "http://www.w3.org/Graphics/SVG/1.1/DTD/svg11.dtd">
<svg version="1.1" xmlns="http://www.w3.org/2000/svg" xmlns:xlink="http://www.w3.org/1999/xlink" x="0px" y="0px"
	 viewBox="0 0 1885.1 1869.6" style="enable-background:new 0 0 1885.1 1869.6;" xml:space="preserve">
<style type="text/css">
	.st0{fill:#004F3D;}
	.st1{fill:#8FC247;}
</style>
<g id="URL">
</g>
<g id="Logo">
	<g>
		<path class="st0" d="M1598.3,277.9c-46.3-46.3-96.3-86.6-149-121c0.5,0.4,1,0.7,1.6,1.1c382.7,268.1,486.6,1226.8-503.8,1362.6
			l1,208.7c-129.4-11.1-345.5-219.3-455.2-446.8c37.2-186.4,282.9-453.1,451-450.8l4.2,212.7c227.9-76.5,460.6-306,511.2-457.2
			c-19.8-141.7-341.2-474-512.2-456.4l8.5,209.2c-659.4-2-1010.5,835.9-537.5,1351.2c360.3,250.4,859,214.9,1180-106.1
			C1959.2,1224,1959.2,638.9,1598.3,277.9z"/>
		<path class="st1" d="M955.6,339.9l-8.5-209.2c171-17.6,492.4,314.8,512.2,456.4c-50.6,151.2-283.2,380.7-511.2,457.2l-4.2-212.7
			c-168.2-2.3-413.8,264.4-451,450.8c109.7,227.5,325.8,435.6,455.2,446.8l-1-208.7c990.4-135.8,886.5-1094.4,503.8-1362.6
			c-0.5-0.4-1-0.7-1.6-1.1C1091.6-76.2,609.2-33.5,294.5,281.1C114.2,461.4,23.2,696.9,22.2,932.5c0,0.3,0,0.6,0,0.9
			c0,1.1,0,2.2,0,3.2c0,4.3,0,8.5,0.1,12.8c0,0.3,0,0.5,0,0.8c0.1,9.4,0.4,18.7,0.8,28c0.1,3,0.3,6,0.5,9.1c0,0.4,0,0.9,0.1,1.3
			C36,1205.4,125,1418.6,291.3,1585c39.8,39.8,82.3,75.1,126.9,106.1C-54.9,1175.8,296.2,337.9,955.6,339.9z"/>
	</g>
</g>
</svg>
