<?xml version="1.0" encoding="utf-8"?>
<!-- Generator: Adobe Illustrator 22.1.0, SVG Export Plug-In . SVG Version: 6.00 Build 0)  -->
<!DOCTYPE svg PUBLIC "-//W3C//DTD SVG 1.1//EN" "http://www.w3.org/Graphics/SVG/1.1/DTD/svg11.dtd">
<svg version="1.1" id="Layer_1" xmlns="http://www.w3.org/2000/svg" xmlns:xlink="http://www.w3.org/1999/xlink" x="0px" y="0px"
	 viewBox="0 0 70 70" style="enable-background:new 0 0 70 70;" xml:space="preserve">
<style type="text/css">
	.st0{fill:#E2E999;}
	.st1{fill:#FFFFFF;}
</style>
<g>
	<circle class="st0" cx="35" cy="35" r="34.5"/>
	<g>
		<path class="st1" d="M49.2,45.4c0.7,0.9,1,1.9,0.8,3s-0.6,2-1.3,2.7s-1.7,1.1-2.9,1.1H24.2c-1.1,0-2.1-0.4-2.9-1.1
			s-1.2-1.7-1.3-2.7s0.2-2.1,0.8-3l9.9-12.9V19.9h-1.8c-0.1,0-0.2,0-0.3-0.1s-0.1-0.2-0.1-0.3v-1.3c0-0.1,0-0.2,0.1-0.3
			s0.2-0.1,0.3-0.1H41c0.1,0,0.2,0,0.3,0.1s0.1,0.2,0.1,0.3v1.3c0,0.1,0,0.2-0.1,0.3s-0.2,0.1-0.3,0.1h-1.8v12.6L49.2,45.4z
			 M45.8,50.1c0.5,0,1-0.2,1.4-0.5s0.6-0.8,0.7-1.3s-0.1-1-0.4-1.5L37.4,33.5c-0.1-0.2-0.2-0.4-0.2-0.7V19.9h-4.3v12.9
			c0,0.2-0.1,0.4-0.2,0.7L22.5,46.7c-0.4,0.4-0.5,0.9-0.5,1.5s0.3,1,0.7,1.3s0.9,0.5,1.4,0.5L45.8,50.1L45.8,50.1z"/>
	</g>
</g>
</svg>
