<?xml version="1.0" encoding="utf-8"?>
<!-- Generator: Adobe Illustrator 22.0.1, SVG Export Plug-In . SVG Version: 6.00 Build 0)  -->
<!DOCTYPE svg PUBLIC "-//W3C//DTD SVG 1.1//EN" "http://www.w3.org/Graphics/SVG/1.1/DTD/svg11.dtd">
<svg version="1.1" id="Layer_1" xmlns="http://www.w3.org/2000/svg" xmlns:xlink="http://www.w3.org/1999/xlink" x="0px" y="0px"
	 viewBox="0 0 70 70" style="enable-background:new 0 0 70 70;" xml:space="preserve">
<style type="text/css">
	.st0{fill-rule:evenodd;clip-rule:evenodd;fill:#F399C1;}
	.st1{fill:#FFFFFF;}
</style>
<circle class="st0" cx="35" cy="35" r="34.5"/>
<g>
	<path class="st1" d="M44.1,19.3c2.8,1.6,5,3.9,6.7,6.7c1.6,2.8,2.5,5.8,2.5,9.1s-0.8,6.3-2.5,9.1c-1.6,2.8-3.9,5-6.7,6.7
		c-2.8,1.6-5.8,2.5-9.1,2.5s-6.3-0.8-9.1-2.5c-2.8-1.6-5-3.9-6.7-6.7c-1.6-2.8-2.5-5.8-2.5-9.1s0.8-6.3,2.5-9.1
		c1.6-2.8,3.9-5,6.7-6.7c2.8-1.6,5.8-2.5,9.1-2.5S41.3,17.7,44.1,19.3z M27,21.4c-2.4,1.4-4.4,3.4-5.8,5.8c-1.4,2.5-2.1,5.1-2.1,8
		c0,2.9,0.7,5.5,2.1,7.9c1.4,2.4,3.4,4.4,5.8,5.8c2.5,1.4,5.1,2.1,8,2.1c2.9,0,5.5-0.7,7.9-2.1c2.4-1.4,4.4-3.4,5.8-5.8
		c1.4-2.5,2.1-5.1,2.1-8c0-2.9-0.7-5.5-2.1-7.9c-1.4-2.4-3.4-4.4-5.8-5.8c-2.5-1.4-5.1-2.1-7.9-2.1C32.1,19.2,29.4,19.9,27,21.4z
		 M25.7,38.1c0.2-0.4,0.6-0.6,1-0.6c0.4,0,0.8,0.1,1,0.5c1.3,2,2.9,3.4,4.6,4c1.8,0.7,3.5,0.7,5.3,0c1.8-0.7,3.3-2,4.6-4
		c0.2-0.4,0.6-0.6,1-0.5c0.4,0,0.8,0.3,1,0.6c0.2,0.4,0.2,0.8-0.1,1.2c-1.6,2.5-3.5,4.1-5.8,5c-2.3,0.9-4.6,0.9-6.8,0
		c-2.3-0.9-4.2-2.5-5.8-5C25.5,38.9,25.5,38.5,25.7,38.1z"/>
	<path class="st1" d="M32.8,33.8c-0.6,0-1.1-0.5-1.1-1.1c0-1.4-1.1-2.6-2.6-2.6c-1.4,0-2.6,1.1-2.6,2.6c0,0.6-0.5,1.1-1.1,1.1
		c-0.6,0-1.1-0.5-1.1-1.1c0-2.6,2.1-4.7,4.7-4.7s4.7,2.1,4.7,4.7C33.9,33.3,33.4,33.8,32.8,33.8z"/>
	<path class="st1" d="M44.4,33.8c-0.6,0-1.1-0.5-1.1-1.1c0-1.4-1.1-2.6-2.6-2.6c-1.4,0-2.6,1.1-2.6,2.6c0,0.6-0.5,1.1-1.1,1.1
		s-1.1-0.5-1.1-1.1c0-2.6,2.1-4.7,4.7-4.7c2.6,0,4.7,2.1,4.7,4.7C45.5,33.3,45,33.8,44.4,33.8z"/>
</g>
</svg>
