<?xml version="1.0" encoding="utf-8"?>
<!-- Generator: Adobe Illustrator 22.1.0, SVG Export Plug-In . SVG Version: 6.00 Build 0)  -->
<!DOCTYPE svg PUBLIC "-//W3C//DTD SVG 1.1//EN" "http://www.w3.org/Graphics/SVG/1.1/DTD/svg11.dtd">
<svg version="1.1" id="Layer_1" xmlns="http://www.w3.org/2000/svg" xmlns:xlink="http://www.w3.org/1999/xlink" x="0px" y="0px"
	 viewBox="0 0 70 70" style="enable-background:new 0 0 70 70;" xml:space="preserve">
<style type="text/css">
	.st0{fill:#A3DDF8;}
	.st1{fill:#FFFFFF;}
</style>
<g>
	<circle class="st0" cx="35" cy="35" r="34.5"/>
	<g>
		<path class="st1" d="M32.8,41.3v-0.9c0-6,6.9-6.8,6.9-12c0-2.5-2.1-4.5-5.2-4.5c-1.7,0-3.2,0.7-4,1.1c-0.5,0.3-1,0.3-1.3-0.2
			l-0.3-0.5c-0.4-0.5-0.4-1,0.2-1.3c0.9-0.6,3-1.7,5.6-1.7c4.5,0,7.9,2.9,7.9,7c0,6.4-6.9,7.1-7.1,12.2v0.9c0,0.6-0.3,0.8-0.9,0.8
			h-0.7C33.1,42.3,32.8,42,32.8,41.3z M32.6,47.5c0-0.6,0.3-1,0.9-1h1.2c0.6,0,0.9,0.4,0.9,1v1.1c0,0.6-0.3,1-0.9,1h-1.2
			c-0.6,0-0.9-0.4-0.9-1V47.5z"/>
	</g>
</g>
</svg>
