<?xml version="1.0" encoding="utf-8"?>
<!-- Generator: Adobe Illustrator 22.0.1, SVG Export Plug-In . SVG Version: 6.00 Build 0)  -->
<!DOCTYPE svg PUBLIC "-//W3C//DTD SVG 1.1//EN" "http://www.w3.org/Graphics/SVG/1.1/DTD/svg11.dtd">
<svg version="1.1" id="Layer_1" xmlns="http://www.w3.org/2000/svg" xmlns:xlink="http://www.w3.org/1999/xlink" x="0px" y="0px"
	 viewBox="0 0 70 70" style="enable-background:new 0 0 70 70;" xml:space="preserve">
<style type="text/css">
	.st0{fill-rule:evenodd;clip-rule:evenodd;fill:#F399C1;}
	.st1{fill:#FFFFFF;}
</style>
<g>
	<circle class="st0" cx="35" cy="35" r="34.5"/>
	<g>
		<path class="st1" d="M52.2,46c-0.1,0.7-0.4,1.2-1,1.7s-1.1,0.7-1.9,0.7H20.6c-0.7,0-1.3-0.2-1.9-0.7c-0.5-0.5-0.8-1-1-1.7
			s0-1.3,0.3-1.9l14.4-24.9c0.4-0.6,0.9-1.1,1.5-1.3c0.7-0.2,1.3-0.2,2,0c0.7,0.2,1.2,0.6,1.5,1.3l14.4,24.9
			C52.2,44.7,52.3,45.4,52.2,46z M35.8,20.1c-0.2-0.3-0.5-0.5-0.8-0.5s-0.6,0.2-0.8,0.5L19.8,45c-0.2,0.3-0.1,0.6,0,1
			c0.2,0.3,0.4,0.5,0.8,0.5h28.8c0.4,0,0.6-0.2,0.8-0.5c0.2-0.3,0.2-0.6,0-1L35.8,20.1z M33.8,40.5c-0.3,0.3-0.5,0.7-0.5,1.2
			s0.2,0.9,0.5,1.2c0.3,0.3,0.7,0.5,1.2,0.5s0.9-0.2,1.2-0.5c0.3-0.3,0.5-0.7,0.5-1.2s-0.2-0.9-0.5-1.2C35.9,40.1,35.5,40,35,40
			S34.1,40.1,33.8,40.5z M33.8,40.5c-0.3,0.3-0.5,0.7-0.5,1.2s0.2,0.9,0.5,1.2c0.3,0.3,0.7,0.5,1.2,0.5s0.9-0.2,1.2-0.5
			c0.3-0.3,0.5-0.7,0.5-1.2s-0.2-0.9-0.5-1.2C35.9,40.1,35.5,40,35,40S34.1,40.1,33.8,40.5z M35.7,27.3c0.2,0,0.4,0.1,0.6,0.2
			c0.1,0.1,0.2,0.3,0.1,0.5L36,38.1c0,0.2-0.1,0.4-0.2,0.5c-0.1,0.1-0.3,0.2-0.5,0.2h-0.5c-0.2,0-0.4-0.1-0.5-0.2
			c-0.1-0.1-0.2-0.3-0.2-0.4L33.6,28c0-0.2,0-0.4,0.1-0.5c0.1-0.1,0.3-0.2,0.6-0.2H35.7z"/>
	</g>
</g>
</svg>
