<?xml version="1.0" encoding="utf-8"?>
<!-- Generator: Adobe Illustrator 22.1.0, SVG Export Plug-In . SVG Version: 6.00 Build 0)  -->
<!DOCTYPE svg PUBLIC "-//W3C//DTD SVG 1.1//EN" "http://www.w3.org/Graphics/SVG/1.1/DTD/svg11.dtd">
<svg version="1.1" id="Layer_1" xmlns="http://www.w3.org/2000/svg" xmlns:xlink="http://www.w3.org/1999/xlink" x="0px" y="0px"
	 viewBox="0 0 70 70" style="enable-background:new 0 0 70 70;" xml:space="preserve">
<style type="text/css">
	.st0{fill:#F399C1;}
	.st1{fill:#FFFFFF;}
</style>
<g>
	<circle class="st0" cx="35" cy="35" r="34.5"/>
	<path class="st1" d="M55.2,41.8h-8.6l4.6-2.8l0.4-0.3c0.7-0.4,0.9-1.3,0.5-2l-0.3-0.4l-9.3-15.2l-0.3-0.4c-0.4-0.7-1.3-0.9-2-0.5
		l-0.4,0.3L18.9,33.2l-0.4,0.3c-0.7,0.4-0.9,1.3-0.5,2l0.3,0.4l3.6,5.9h-7c-0.8,0-1.5,0.7-1.5,1.5s0.7,1.5,1.5,1.5h3.3H26h12h12h5.2
		c0.8,0,1.5-0.7,1.5-1.5C56.7,42.4,56,41.8,55.2,41.8z M39.5,22.9l-4.8,12.3l-13.2-1.3L39.5,22.9z M20.1,34.8v0.3L20,34.9L20.1,34.8
		z M25.1,43.2l-4.6-7.5l15.4,1.5l5.5-14.1L50,37.2l-7.3,4.5l0,0l-2.4,1.5H25.1z"/>
</g>
</svg>
