<?xml version="1.0" encoding="utf-8"?>
<!-- Generator: Adobe Illustrator 22.1.0, SVG Export Plug-In . SVG Version: 6.00 Build 0)  -->
<!DOCTYPE svg PUBLIC "-//W3C//DTD SVG 1.1//EN" "http://www.w3.org/Graphics/SVG/1.1/DTD/svg11.dtd">
<svg version="1.1" id="Layer_1" xmlns="http://www.w3.org/2000/svg" xmlns:xlink="http://www.w3.org/1999/xlink" x="0px" y="0px"
	 viewBox="0 0 70 70" style="enable-background:new 0 0 70 70;" xml:space="preserve">
<style type="text/css">
	.st0{fill:#FBBB86;}
	.st1{fill:#FFFFFF;}
</style>
<g>
	<circle class="st0" cx="35" cy="35" r="34.5"/>
	<g>
		<path class="st1" d="M49.3,21.2c-0.7-0.7-1.4-1-2.4-1h-3.3v-2.4c0-0.2-0.1-0.4-0.2-0.6C43.2,17.1,43,17,42.8,17h-0.6
			c-0.2,0-0.4,0.1-0.6,0.2c-0.2,0.2-0.2,0.4-0.2,0.6v2.4H28v-2.4c0-0.2-0.1-0.4-0.2-0.6C27.6,17,27.4,17,27.2,17h-0.6
			c-0.2,0-0.4,0.1-0.6,0.2c-0.2,0.2-0.2,0.4-0.2,0.6v2.4h-3.3c-0.9,0-1.7,0.3-2.4,1c-0.7,0.7-1,1.4-1,2.4v24.5c0,0.9,0.3,1.7,1,2.4
			s1.4,1,2.4,1H47c0.9,0,1.7-0.3,2.4-1s1-1.4,1-2.4V23.6C50.3,22.7,50,21.9,49.3,21.2z M21.3,23.6c0-0.3,0.1-0.6,0.3-0.8
			s0.5-0.3,0.8-0.3h3.3v2.7c0,0.2,0.1,0.4,0.2,0.6c0.2,0.2,0.4,0.2,0.6,0.2h0.6c0.2,0,0.4-0.1,0.6-0.2c0.2-0.2,0.2-0.4,0.2-0.6v-2.7
			h13.4v2.7c0,0.2,0.1,0.4,0.2,0.6C41.8,26,42,26,42.2,26h0.6c0.2,0,0.4-0.1,0.6-0.2c0.2-0.2,0.2-0.4,0.2-0.6v-2.7H47
			c0.3,0,0.6,0.1,0.8,0.3c0.2,0.2,0.3,0.5,0.3,0.8v24.5c0,0.3-0.1,0.6-0.3,0.8s-0.5,0.3-0.8,0.3H22.4c-0.3,0-0.6-0.1-0.8-0.3
			s-0.3-0.5-0.3-0.8C21.3,48.1,21.3,23.6,21.3,23.6z"/>
		<polygon class="st1" points="33.9,33.6 33.9,40.9 31.2,40.9 31.2,43.2 39.5,43.2 39.5,40.9 36.7,40.9 36.7,30.4 34.7,30.4 
			30.7,32.8 31.7,34.8 		"/>
	</g>
</g>
</svg>
