<?xml version="1.0" encoding="utf-8"?>
<!-- Generator: Adobe Illustrator 22.1.0, SVG Export Plug-In . SVG Version: 6.00 Build 0)  -->
<!DOCTYPE svg PUBLIC "-//W3C//DTD SVG 1.1//EN" "http://www.w3.org/Graphics/SVG/1.1/DTD/svg11.dtd">
<svg version="1.1" id="Layer_1" xmlns="http://www.w3.org/2000/svg" xmlns:xlink="http://www.w3.org/1999/xlink" x="0px" y="0px"
	 viewBox="0 0 70 70" style="enable-background:new 0 0 70 70;" xml:space="preserve">
<style type="text/css">
	.st0{fill:#E2E999;}
	.st1{fill:#FFFFFF;}
</style>
<g>
	<circle class="st0" cx="35" cy="35" r="34.5"/>
	<g>
		<g>
			<path class="st1" d="M42.6,21.8c3,0,5.3,0.9,7.1,2.6s2.6,4.1,2.6,7.1c0,1.9-0.6,3.8-1.8,5.8c-0.7,1.2-1.6,2.2-2.6,3.2l-11.1,11
				c-0.5,0.4-1,0.7-1.7,0.7s-1.2-0.2-1.7-0.7l-11.1-11c-0.8-0.8-1.6-1.7-2.4-2.8c-1.4-2.1-2.1-4.1-2.1-6.1c0-3,0.9-5.4,2.6-7.1
				s4.1-2.6,7.1-2.6c2.4,0,5,1.2,7.6,3.6C37.6,23,40.1,21.8,42.6,21.8z M46.3,39c1.1-1.1,2-2.2,2.7-3.5c0.8-1.4,1.2-2.8,1.2-4.1
				c0-2.4-0.7-4.3-2-5.6s-3.2-2-5.6-2c-1.4,0-2.9,0.5-4.4,1.6c-0.9,0.6-1.9,1.5-2.9,2.5L35,28.3c-1.3-1.3-2.4-2.3-3.4-2.9
				c-1.5-1-2.9-1.4-4.2-1.4c-2.4,0-4.3,0.7-5.6,2c-1.3,1.3-2,3.2-2,5.6c0,1.3,0.4,2.6,1.2,4.1c0.7,1.3,1.6,2.4,2.6,3.3l11.2,11
				c0.1,0.1,0.3,0.1,0.4,0L46.3,39z"/>
		</g>
	</g>
</g>
</svg>
