<?xml version="1.0" encoding="utf-8"?>
<!-- Generator: Adobe Illustrator 22.0.1, SVG Export Plug-In . SVG Version: 6.00 Build 0)  -->
<!DOCTYPE svg PUBLIC "-//W3C//DTD SVG 1.1//EN" "http://www.w3.org/Graphics/SVG/1.1/DTD/svg11.dtd">
<svg version="1.1" id="Layer_1" xmlns="http://www.w3.org/2000/svg" xmlns:xlink="http://www.w3.org/1999/xlink" x="0px" y="0px"
	 viewBox="0 0 60 60" style="enable-background:new 0 0 60 60;" xml:space="preserve">
<style type="text/css">
	.st0{fill:#A3DCF7;}
</style>
<g>
	<g>
		<path class="st0" d="M30,0.5C13.7,0.5,0.5,13.7,0.5,30S13.7,59.5,30,59.5c16.3,0,29.5-13.2,29.5-29.5S46.3,0.5,30,0.5z M30,57
			C15.1,57,3,44.9,3,30C3,15.1,15.1,3,30,3s27,12.1,27,27C57,44.9,44.9,57,30,57z"/>
		<path class="st0" d="M33.7,27.9V17.1h1.5c0.1,0,0.2,0,0.2-0.1c0.1-0.1,0.1-0.2,0.1-0.2v-1.2c0-0.1,0-0.2-0.1-0.2
			c-0.1-0.1-0.2-0.1-0.2-0.1H24.8c-0.1,0-0.2,0-0.2,0.1c-0.1,0.1-0.1,0.2-0.1,0.2v1.2c0,0.1,0,0.2,0.1,0.2c0.1,0.1,0.2,0.1,0.2,0.1
			h1.5v10.8l-8.5,11.1c-0.6,0.8-0.8,1.6-0.7,2.5c0.1,0.9,0.5,1.7,1.2,2.3c0.7,0.6,1.5,1,2.4,1h18.6c1,0,1.8-0.3,2.4-1
			c0.7-0.6,1.1-1.4,1.2-2.3c0.1-0.9-0.1-1.8-0.7-2.5L33.7,27.9z M40.5,42.4c-0.3,0.3-0.7,0.5-1.2,0.5H20.7c-0.5,0-0.9-0.2-1.2-0.5
			s-0.5-0.7-0.6-1.2c0-0.5,0.1-0.9,0.4-1.3L28,28.7c0.1-0.2,0.2-0.4,0.2-0.6V17.1h3.7v11.1c0,0.2,0.1,0.4,0.2,0.6L40.7,40
			c0.3,0.4,0.4,0.8,0.3,1.3C41,41.8,40.8,42.1,40.5,42.4z"/>
	</g>
</g>
</svg>
