<?xml version="1.0" encoding="utf-8"?>
<!-- Generator: Adobe Illustrator 22.1.0, SVG Export Plug-In . SVG Version: 6.00 Build 0)  -->
<!DOCTYPE svg PUBLIC "-//W3C//DTD SVG 1.1//EN" "http://www.w3.org/Graphics/SVG/1.1/DTD/svg11.dtd">
<svg version="1.1" id="Layer_1" xmlns="http://www.w3.org/2000/svg" xmlns:xlink="http://www.w3.org/1999/xlink" x="0px" y="0px"
	 viewBox="0 0 70 70" style="enable-background:new 0 0 70 70;" xml:space="preserve">
<style type="text/css">
	.st0{fill:#A3DDF8;}
	.st1{fill:#FFFFFF;}
</style>
<circle class="st0" cx="35" cy="35" r="34.5"/>
<path class="st1" d="M54.2,49.6l-0.3-0.2c-0.5-0.4-0.8-0.7-1-0.9c-0.3-0.4-0.5-0.8-0.7-1.4c0.9-0.8,1.5-1.7,2-2.7
	c0.5-1,0.7-2.2,0.7-3.3c0-1.8-0.6-3.4-1.7-4.8c-0.9-1.2-2.2-2.3-3.7-3.1c0-0.4,0.1-0.8,0.1-1.2c0-2.5-0.8-4.7-2.3-6.8
	c-1.5-2.1-3.7-3.7-6.3-4.9c-2.7-1.2-5.6-1.8-8.7-1.8s-6,0.6-8.7,1.8c-2.6,1.2-4.8,2.8-6.3,4.9c-1.6,2.1-2.3,4.3-2.3,6.8
	c0,1.6,0.3,3.1,1,4.6c0.7,1.5,1.7,2.8,3,3.9c-0.3,0.9-0.7,1.7-1.1,2.3c-0.3,0.3-0.8,0.8-1.6,1.4l-0.5,0.3c-0.5,0.4-0.8,0.9-0.8,1.4
	s0.2,0.9,0.5,1.2c0.4,0.3,0.8,0.5,1.3,0.4c3.6-0.3,6.8-1.3,9.6-2.8c1.7,0.5,3.6,0.7,5.4,0.8c0.1,0.2,0.2,0.3,0.3,0.5
	c1.1,1.4,2.6,2.6,4.5,3.5c1.9,0.8,3.9,1.3,6.1,1.3c1.4,0,2.8-0.2,4.1-0.5c1.9,1.1,4.2,1.7,6.6,2c0,0,0.1,0,0.1,0
	c0.4,0,0.7-0.1,0.9-0.4c0.3-0.3,0.5-0.6,0.5-1C54.9,50.4,54.6,50,54.2,49.6z M26.1,42.4c-3.1,1.9-6.2,3.1-9.3,3.6c1.4-1,2.4-2,3-2.9
	c0.6-0.9,0.9-2,1.1-3.3c-1.2-1-2.2-2.2-3-3.4c-0.8-1.4-1.2-2.8-1.2-4.3c0-2,0.7-3.9,2.1-5.7c1.4-1.7,3.3-3.1,5.6-4.2
	c2.4-1,4.9-1.6,7.7-1.6c2.8,0,5.3,0.5,7.7,1.6c2.4,1,4.2,2.4,5.6,4.2c1.4,1.7,2.1,3.6,2.1,5.7c0,0.1,0,0.3,0,0.4
	c-1.5-0.5-3.2-0.8-5-0.8c-2.2,0-4.2,0.4-6.1,1.3c-1.9,0.8-3.4,2-4.5,3.5c-1.1,1.5-1.7,3.1-1.7,4.8c0,0.8,0.1,1.5,0.3,2.2
	C29.1,43.2,27.5,42.9,26.1,42.4z M47,48.1L47,48.1l-0.2,0c-1.3,0.4-2.7,0.7-4.2,0.7c-1.9,0-3.6-0.4-5.2-1.1
	c-1.6-0.7-2.9-1.6-3.8-2.8c-0.9-1.2-1.4-2.4-1.4-3.8c0-1.3,0.5-2.6,1.4-3.8c0.9-1.2,2.2-2.1,3.8-2.8c1.6-0.7,3.4-1.1,5.2-1.1
	c1.7,0,3.2,0.3,4.7,0.9l1.7,0.8c1.1,0.6,2,1.4,2.7,2.3c0.9,1.2,1.4,2.4,1.4,3.8c0,1-0.3,2-0.8,2.9c-0.5,0.8-1.2,1.6-2,2.3l-0.1,0.1
	l0,0.1c0.1,1,0.4,1.8,0.8,2.4c0.3,0.5,0.7,1,1.3,1.4C50.6,50,48.8,49.2,47,48.1z"/>
</svg>
